<svg width="201" height="95" viewBox="0 0 201 95" fill="none" xmlns="http://www.w3.org/2000/svg">
<path d="M36.193 45.7043C34.7011 47.0508 32.7633 47.6382 29.6954 47.6382H28.4212V31.5495H29.6954C32.7633 31.5495 34.6249 32.0981 36.193 33.5171C37.835 34.9786 38.8228 37.2432 38.8228 39.574C38.8228 41.9095 37.835 44.2434 36.193 45.7043ZM30.6465 27.4272H23.677V51.7571H30.6098C34.2963 51.7571 36.9582 50.8877 39.2949 48.9484C42.0715 46.6515 43.7135 43.1897 43.7135 39.609C43.7135 32.429 38.3465 27.4272 30.6465 27.4272Z" fill="white"/>
<path d="M45.8983 51.7571H50.6463V27.4272H45.8983V51.7571Z" fill="white"/>
<path d="M62.2559 36.7638C59.4068 35.71 58.5701 35.0149 58.5701 33.7004C58.5701 32.1681 60.0606 31.0037 62.1071 31.0037C63.5298 31.0037 64.6989 31.5877 65.936 32.9741L68.4201 29.7226C66.3787 27.9377 63.9361 27.0251 61.2674 27.0251C56.9608 27.0251 53.6757 30.0146 53.6757 33.9966C53.6757 37.3485 55.2054 39.0646 59.6646 40.6688C61.5231 41.324 62.4691 41.7606 62.9465 42.0544C63.8952 42.6736 64.3703 43.55 64.3703 44.5718C64.3703 46.5432 62.8022 48.0037 60.6837 48.0037C58.4192 48.0037 56.5951 46.8717 55.502 44.7587L52.4345 47.7107C54.6221 50.9203 57.2492 52.3427 60.8618 52.3427C65.7961 52.3427 69.2572 49.0636 69.2572 44.3536C69.2572 40.4881 67.657 38.7382 62.2559 36.7638Z" fill="white"/>
<path d="M70.7544 39.609C70.7544 46.7604 76.3724 52.3057 83.6024 52.3057C85.6462 52.3057 87.3965 51.904 89.5551 50.8877V45.3013C87.6571 47.2002 85.9759 47.966 83.823 47.966C79.0414 47.966 75.6474 44.5008 75.6474 39.5739C75.6474 34.9027 79.1487 31.2179 83.6024 31.2179C85.8669 31.2179 87.5811 32.0256 89.5551 33.9554V28.3717C87.4711 27.3149 85.7573 26.8772 83.7144 26.8772C76.5212 26.8772 70.7544 32.5347 70.7544 39.609Z" fill="white"/>
<path d="M127.202 43.7696L120.711 27.4271H115.524L125.853 52.3812H128.408L138.924 27.4271H133.777L127.202 43.7696Z" fill="white"/>
<path d="M141.071 51.7571H154.536V47.6382H145.815V41.0709H154.214V36.9497H145.815V31.5495H154.536V27.4272H141.071V51.7571Z" fill="white"/>
<path d="M163.809 38.6284H162.422V31.2595H163.884C166.841 31.2595 168.449 32.4977 168.449 34.8656C168.449 37.3116 166.841 38.6284 163.809 38.6284ZM173.335 34.61C173.335 30.0552 170.196 27.4272 164.72 27.4272H157.68V51.7571H162.422V41.9834H163.041L169.613 51.7571H175.452L167.79 41.5072C171.365 40.7805 173.335 38.3354 173.335 34.61Z" fill="white"/>
<path d="M175.466 28.6337H175.379V28.0748H175.471C175.724 28.0748 175.854 28.1657 175.854 28.3498C175.854 28.5391 175.722 28.6337 175.466 28.6337ZM176.365 28.342C176.365 27.9156 176.071 27.6824 175.555 27.6824H174.868V29.8209H175.379V28.9915L175.978 29.8209H176.601L175.898 28.939C176.199 28.858 176.365 28.6389 176.365 28.342Z" fill="white"/>
<path d="M175.652 30.2784C174.834 30.2784 174.165 29.5983 174.165 28.7498C174.165 27.8983 174.825 27.2185 175.652 27.2185C176.465 27.2185 177.128 27.9139 177.128 28.7498C177.128 29.5912 176.465 30.2784 175.652 30.2784ZM175.659 26.8829C174.62 26.8829 173.795 27.7117 173.795 28.7471C173.795 29.7818 174.629 30.6116 175.659 30.6116C176.671 30.6116 177.5 29.773 177.5 28.7471C177.5 27.7264 176.671 26.8829 175.659 26.8829Z" fill="white"/>
<path d="M32.1895 63.6017V63.826C32.1895 64.8028 32.0574 65.4625 31.7271 66.0568C31.014 67.3505 29.5614 68.182 28.0164 68.182C25.5469 68.182 23.5 66.1228 23.5 63.6412C23.5 61.1201 25.5602 59.0741 28.0957 59.0741C29.073 59.0741 30.0367 59.391 30.7896 59.9717C31.1329 60.2225 31.3838 60.4734 31.8064 60.988L31.0801 61.648C30.2087 60.4996 29.3104 59.9982 28.109 59.9982C26.1016 59.9982 24.4906 61.6347 24.4906 63.6544C24.4906 65.6082 26.1149 67.2579 28.0297 67.2579C29.1255 67.2579 30.2349 66.6507 30.7763 65.7528C31.0008 65.3968 31.0934 65.0537 31.1329 64.5125H28.5183V63.6017H32.1895Z" fill="white"/>
<path d="M38.6165 67.1124H41.0332V68.0232H37.6263V59.2193H38.6165V67.1124Z" fill="white"/>
<path d="M46.0733 63.5751C46.0733 64.6575 46.4564 65.5551 47.1957 66.2549C47.8693 66.8883 48.7673 67.2579 49.639 67.2579C51.646 67.2579 53.2571 65.6476 53.2571 63.6279C53.2571 61.6218 51.6593 59.9982 49.6652 59.9982C47.6976 59.9982 46.0733 61.6218 46.0733 63.5751ZM54.2477 63.6279C54.2477 66.1493 52.1742 68.182 49.6257 68.182C48.3712 68.182 47.0901 67.6013 46.2184 66.6374C45.4791 65.8059 45.0827 64.7634 45.0827 63.5751C45.0827 61.1466 47.1957 59.0741 49.6785 59.0741C52.1742 59.0741 54.2477 61.1333 54.2477 63.6279Z" fill="white"/>
<path d="M61.5003 67.1124C62.306 67.1124 62.6759 67.0202 63.0457 66.7298C63.4019 66.4395 63.6133 65.9906 63.6133 65.5154C63.6133 64.9742 63.3228 64.4463 62.8737 64.2087C62.5305 64.0106 62.0816 63.9313 61.3685 63.9313H60.378V67.1124H61.5003ZM61.1176 63.0998C61.7646 63.0998 62.0684 63.0205 62.3588 62.7567C62.6625 62.4926 62.8342 62.0835 62.8342 61.6216C62.8342 61.1465 62.6625 60.7237 62.3721 60.4599C62.0949 60.2224 61.7513 60.1298 61.1438 60.1298H60.378V63.0998H61.1176ZM59.3878 59.2193H60.9855C61.9096 59.2193 62.5171 59.3908 62.9796 59.7738C63.4944 60.1825 63.7983 60.8823 63.7983 61.6083C63.7983 62.3605 63.5339 62.8755 62.9268 63.3112C63.9698 63.6148 64.5906 64.4463 64.5906 65.5416C64.5906 66.2942 64.2736 66.9674 63.7059 67.4293C63.1641 67.865 62.5832 68.0232 61.5797 68.0232H59.3878V59.2193Z" fill="white"/>
<path d="M73.0392 61.0937L71.5338 64.6179H74.5049L73.0392 61.0937ZM71.1245 65.5287L70.0679 68.0232H68.9983L73.0526 58.7969L77.0139 68.0232H75.9313L74.888 65.5287H71.1245Z" fill="white"/>
<path d="M83.8759 67.1124H86.2926V68.0232H82.8857V59.2193H83.8759V67.1124Z" fill="white"/>
<path d="M100.234 58.8496L107.087 66.0434V59.2194H108.078V68.4195L101.224 61.2387V68.0233H100.234V58.8496Z" fill="white"/>
<path d="M114.191 60.1298V62.7567H117.664V63.6676H114.191V67.1124H117.757V68.0232H113.2V59.2193H117.757V60.1298H114.191Z" fill="white"/>
<path d="M125.579 68.0232H124.588V60.1298H122.462V59.2193H127.718V60.1298H125.579V68.0232Z" fill="white"/>
<path d="M135.111 65.8192L137.871 58.7705L140.472 65.8192L143.06 59.2195H144.13L140.446 68.4724L137.844 61.437L135.071 68.4724L131.69 59.2195H132.76L135.111 65.8192Z" fill="white"/>
<path d="M147.691 63.5751C147.691 64.6575 148.075 65.5551 148.814 66.2549C149.488 66.8883 150.386 67.2579 151.257 67.2579C153.264 67.2579 154.875 65.6476 154.875 63.6279C154.875 61.6218 153.277 59.9982 151.284 59.9982C149.315 59.9982 147.691 61.6218 147.691 63.5751ZM155.866 63.6279C155.866 66.1493 153.793 68.182 151.244 68.182C149.989 68.182 148.709 67.6013 147.837 66.6374C147.098 65.8059 146.701 64.7634 146.701 63.5751C146.701 61.1466 148.814 59.0741 151.297 59.0741C153.793 59.0741 155.866 61.1333 155.866 63.6279Z" fill="white"/>
<path d="M161.496 63.2979C162.737 63.2979 163.437 62.7169 163.437 61.6876C163.437 61.1465 163.199 60.671 162.79 60.4201C162.473 60.2224 162.076 60.1298 161.456 60.1298H160.875V63.2979H161.496ZM164.982 68.0232H163.78L161.126 64.1689H160.875V68.0232H159.885V59.2193H161.311C162.314 59.2193 162.922 59.351 163.423 59.6945C164.031 60.1032 164.401 60.8561 164.401 61.6876C164.401 63.0205 163.53 63.9712 162.183 64.0896L164.982 68.0232Z" fill="white"/>
<path d="M174.456 59.2193H175.777L171.644 63.3241L175.91 68.0232H174.563L170.957 63.9844L170.706 64.2349V68.0232H169.716V59.2193H170.706V62.9943L174.456 59.2193Z" fill="white"/>
<path d="M117.256 39.939C117.256 47.2237 111.35 53.1291 104.066 53.1291C96.7809 53.1291 90.8755 47.2237 90.8755 39.939C90.8755 32.6544 96.7809 26.749 104.066 26.749C111.35 26.749 117.256 32.6544 117.256 39.939Z" fill="white"/>
</svg>
