<svg width="201" height="95" viewBox="0 0 201 95" fill="none" xmlns="http://www.w3.org/2000/svg">
<g clip-path="url(#clip0_68_1908)">
<path d="M28.4933 18L10.5 48.0469L28.4933 39.8172V18Z" fill="white"/>
<path d="M28.4933 39.8171L10.5 48.0468L28.4933 58.7525V39.8171Z" fill="white"/>
<path d="M46.4898 48.0469L28.4932 18V39.8172L46.4898 48.0469Z" fill="white"/>
<path d="M28.4932 58.7525L46.4898 48.0468L28.4932 39.8171V58.7525Z" fill="white"/>
<path d="M10.5 51.4823L28.4933 77V62.1812L10.5 51.4823Z" fill="white"/>
<path d="M28.4932 62.1813V77.0001L46.4999 51.4824L28.4932 62.1813Z" fill="white"/>
</g>
<path d="M66.5487 47.4878H59.611V53.0813H67.6701V54.7832H57.5V39H67.5602V40.7127H59.611V45.7859H66.5487V47.4878Z" fill="white"/>
<path d="M84.5057 40.7127H79.3602V54.7832H77.2602V40.7127H72.1257V39H84.5057V40.7127Z" fill="white"/>
<path d="M102.111 54.7832H99.989V47.4878H91.9188V54.7832H89.8079V39H91.9188V45.7859H99.989V39H102.111V54.7832Z" fill="white"/>
<path d="M117.836 47.4878H110.898V53.0813H118.958V54.7832H108.787V39H118.848V40.7127H110.898V45.7859H117.836V47.4878Z" fill="white"/>
<path d="M130.384 48.3984H126.624V54.7832H124.502V39H129.801C131.604 39 132.99 39.4047 133.957 40.2141C134.932 41.0235 135.419 42.2014 135.419 43.748C135.419 44.7308 135.148 45.5872 134.606 46.3171C134.071 47.047 133.323 47.5926 132.363 47.9539L136.123 54.6531V54.7832H133.858L130.384 48.3984ZM126.624 46.6965H129.867C130.915 46.6965 131.747 46.4291 132.363 45.8943C132.986 45.3595 133.297 44.6441 133.297 43.748C133.297 42.7724 133.001 42.0244 132.407 41.5041C131.82 40.9837 130.97 40.72 129.856 40.7127H126.624V46.6965Z" fill="white"/>
<path d="M150.364 47.4878H143.426V53.0813H151.485V54.7832H141.315V39H151.375V40.7127H143.426V45.7859H150.364V47.4878Z" fill="white"/>
<path d="M168.31 39V49.7317C168.303 51.2204 167.826 52.4381 166.881 53.3848C165.942 54.3315 164.667 54.8627 163.054 54.9783L162.494 55C160.742 55 159.346 54.5339 158.305 53.6016C157.264 52.6694 156.736 51.3866 156.721 49.7534V39H158.81V49.6883C158.81 50.8302 159.129 51.7191 159.767 52.355C160.405 52.9837 161.314 53.2981 162.494 53.2981C163.688 53.2981 164.601 52.9837 165.231 52.355C165.869 51.7263 166.188 50.841 166.188 49.6992V39H168.31Z" fill="white"/>
<path d="M177.295 39L182.529 51.878L187.762 39H190.5V54.7832H188.389V48.6369L188.587 42.0027L183.331 54.7832H181.715L176.471 42.0352L176.68 48.6369V54.7832H174.569V39H177.295Z" fill="white"/>
<defs>
<clipPath id="clip0_68_1908">
<rect width="36" height="59" fill="white" transform="translate(10.5 18)"/>
</clipPath>
</defs>
</svg>
