<svg width="382" height="353" viewBox="0 0 382 353" fill="none" xmlns="http://www.w3.org/2000/svg">
<g opacity="0.2">
<mask id="mask0_68_1785" style="mask-type:alpha" maskUnits="userSpaceOnUse" x="0" y="0" width="763" height="752">
<rect x="0.457031" y="751.296" width="751.296" height="762.543" transform="rotate(-90 0.457031 751.296)" fill="url(#paint0_linear_68_1785)"/>
</mask>
<g mask="url(#mask0_68_1785)">
<path fill-rule="evenodd" clip-rule="evenodd" d="M376.667 -0.000138417C170.468 -0.00014743 2.70632 167.761 2.70631 373.961C2.7063 580.16 170.468 747.922 376.667 747.922C582.867 747.922 750.628 580.16 750.628 373.961C750.628 167.761 582.867 -0.000129403 376.667 -0.000138417ZM376.667 2.27429C581.616 2.2743 748.354 169.012 748.354 373.961C748.354 578.909 581.616 745.647 376.667 745.647C171.719 745.647 4.98078 578.909 4.98079 373.961C4.9808 169.012 171.719 2.27428 376.667 2.27429ZM40.0302 373.961C40.0302 188.345 191.052 37.3231 376.668 37.3231C562.284 37.3231 713.305 188.345 713.305 373.961C713.305 559.577 562.284 710.598 376.668 710.598C191.052 710.598 40.0302 559.577 40.0302 373.961ZM707.619 373.961C707.619 191.484 559.168 43.0091 376.668 43.0091C194.191 43.0091 45.7162 191.461 45.7162 373.961C45.7162 556.438 194.168 704.912 376.668 704.912C559.145 704.912 707.619 556.438 707.619 373.961ZM376.69 74.6459C211.635 74.6458 77.376 208.928 77.376 373.96C77.376 538.992 211.635 673.252 376.69 673.274C541.745 673.274 676.005 539.015 676.005 373.96C676.005 208.905 541.723 74.6459 376.69 74.6459ZM376.668 83.7436C536.696 83.7436 666.884 213.932 666.884 373.96C666.884 533.989 536.696 664.177 376.668 664.177C216.639 664.177 86.451 533.989 86.451 373.96C86.451 213.932 216.639 83.7435 376.668 83.7436ZM114.699 373.961C114.699 229.512 232.219 111.993 376.667 111.993C521.116 111.993 638.636 229.512 638.636 373.961C638.636 518.41 521.116 635.929 376.667 635.929C232.219 635.929 114.699 518.41 114.699 373.961ZM626.149 373.961C626.149 236.404 514.247 124.502 376.69 124.502C239.133 124.502 127.231 236.404 127.231 373.961C127.231 511.518 239.11 623.42 376.667 623.42C514.225 623.42 626.149 511.518 626.149 373.961ZM376.668 149.316C252.803 149.316 152.023 250.096 152.023 373.961C152.023 497.826 252.803 598.606 376.668 598.606C500.533 598.606 601.313 497.826 601.313 373.961C601.313 250.096 500.533 149.316 376.668 149.316ZM376.668 165.237C491.754 165.237 585.392 258.875 585.392 373.961C585.392 489.047 491.776 582.685 376.668 582.685C261.582 582.685 167.944 489.047 167.944 373.961C167.944 258.875 261.582 165.237 376.668 165.237ZM189.345 373.961C189.345 270.679 273.385 186.639 376.667 186.639C479.949 186.639 563.989 270.656 563.989 373.961C563.989 477.265 479.949 561.283 376.667 561.283C273.385 561.283 189.345 477.243 189.345 373.961ZM544.656 373.961C544.656 281.324 469.304 205.972 376.667 205.972C284.03 205.972 208.678 281.324 208.678 373.961C208.678 466.598 284.03 541.95 376.667 541.95C469.304 541.95 544.656 466.598 544.656 373.961ZM376.668 223.962C293.947 223.962 226.669 291.239 226.669 373.96C226.669 456.658 293.947 523.958 376.667 523.958C459.388 523.958 526.666 456.681 526.666 373.96C526.666 291.239 459.388 223.962 376.668 223.962ZM376.668 246.706C446.834 246.706 503.922 303.794 503.922 373.96C503.922 444.126 446.834 501.214 376.667 501.214C306.502 501.214 249.413 444.126 249.413 373.96C249.413 303.794 306.502 246.706 376.668 246.706ZM263.993 373.961C263.993 311.823 314.53 261.286 376.668 261.286C438.805 261.286 489.343 311.823 489.343 373.961C489.343 436.098 438.805 486.636 376.668 486.636C314.53 486.636 263.993 436.098 263.993 373.961ZM463.187 373.961C463.187 326.266 424.385 287.442 376.668 287.442C328.95 287.442 290.149 326.243 290.149 373.961C290.149 421.678 328.95 460.48 376.668 460.48C424.385 460.48 463.187 421.655 463.187 373.961ZM301.315 373.961C301.315 332.407 335.113 298.609 376.667 298.609C418.221 298.609 452.019 332.407 452.019 373.961C452.019 415.515 418.221 449.313 376.667 449.313C335.113 449.313 301.315 415.515 301.315 373.961ZM422.451 373.961C422.451 348.715 401.913 328.177 376.667 328.177C351.421 328.177 330.883 348.715 330.883 373.961C330.883 399.207 351.421 419.745 376.667 419.745C401.913 419.745 422.451 399.207 422.451 373.961Z" fill="url(#paint1_linear_68_1785)"/>
</g>
</g>
<defs>
<linearGradient id="paint0_linear_68_1785" x1="376.105" y1="751.296" x2="376.105" y2="1342.95" gradientUnits="userSpaceOnUse">
<stop stop-color="#C4C4C4"/>
<stop offset="1" stop-color="#C4C4C4" stop-opacity="0"/>
</linearGradient>
<linearGradient id="paint1_linear_68_1785" x1="750.628" y1="373.961" x2="2.7064" y2="373.961" gradientUnits="userSpaceOnUse">
<stop stop-color="#B75CFF"/>
<stop offset="1" stop-color="#00FFF0"/>
</linearGradient>
</defs>
</svg>
