<svg width="253" height="388" viewBox="0 0 253 388" fill="none" xmlns="http://www.w3.org/2000/svg">
<g opacity="0.2">
<mask id="mask0_68_1788" style="mask-type:alpha" maskUnits="userSpaceOnUse" x="-141" y="0" width="394" height="388">
<rect x="252.087" width="387.289" height="393.087" transform="rotate(90 252.087 0)" fill="url(#paint0_linear_68_1788)"/>
</mask>
<g mask="url(#mask0_68_1788)">
<path fill-rule="evenodd" clip-rule="evenodd" d="M58.1524 387.289C164.447 387.289 250.927 300.809 250.927 194.514C250.927 88.2196 164.447 1.73935 58.1524 1.73935C-48.1423 1.73935 -134.623 88.2196 -134.623 194.514C-134.623 300.809 -48.1423 387.289 58.1524 387.289ZM58.1524 386.117C-47.4975 386.117 -133.45 300.164 -133.45 194.514C-133.45 88.8644 -47.4975 2.91181 58.1524 2.91181C163.802 2.91181 249.755 88.8644 249.755 194.514C249.755 300.164 163.802 386.117 58.1524 386.117ZM231.687 194.514C231.687 290.198 153.836 368.049 58.1522 368.049C-37.5318 368.049 -115.383 290.198 -115.383 194.514C-115.383 98.8304 -37.5318 20.9794 58.1522 20.9794C153.836 20.9794 231.687 98.8304 231.687 194.514ZM-112.452 194.514C-112.452 288.58 -35.9256 365.118 58.1522 365.118C152.218 365.118 228.756 288.592 228.756 194.514C228.756 100.448 152.23 23.9106 58.1522 23.9106C-35.9138 23.9106 -112.452 100.448 -112.452 194.514ZM58.1406 348.81C143.226 348.81 212.436 279.588 212.436 194.515C212.436 109.441 143.226 40.2314 58.1406 40.2198C-26.9444 40.2198 -96.1544 109.43 -96.1544 194.515C-96.1544 279.6 -26.9327 348.81 58.1406 348.81ZM58.1523 344.12C-24.3416 344.12 -91.4529 277.009 -91.4529 194.515C-91.4529 112.021 -24.3416 44.9096 58.1523 44.9096C140.646 44.9096 207.757 112.021 207.757 194.515C207.757 277.009 140.646 344.12 58.1523 344.12ZM193.196 194.514C193.196 268.977 132.615 329.558 58.1524 329.558C-16.3102 329.558 -76.8909 268.977 -76.8909 194.514C-76.8909 120.052 -16.3102 59.4709 58.1524 59.4709C132.615 59.471 193.196 120.052 193.196 194.514ZM-70.4541 194.514C-70.4541 265.424 -12.7693 323.109 58.1407 323.109C129.051 323.109 186.736 265.424 186.736 194.514C186.736 123.604 129.063 65.9194 58.1524 65.9194C-12.7576 65.9194 -70.4541 123.604 -70.4541 194.514ZM58.1522 310.318C122.004 310.318 173.956 258.366 173.956 194.514C173.956 130.662 122.004 78.711 58.1522 78.711C-5.69966 78.711 -57.6511 130.662 -57.6511 194.514C-57.6511 258.366 -5.69966 310.318 58.1522 310.318ZM58.1522 302.11C-1.17398 302.11 -49.4439 253.841 -49.4439 194.514C-49.4439 135.188 -1.18571 86.9182 58.1522 86.9182C117.478 86.9182 165.748 135.188 165.748 194.514C165.748 253.841 117.478 302.11 58.1522 302.11ZM154.716 194.514C154.716 247.755 111.394 291.078 58.1526 291.078C4.91142 291.078 -38.4108 247.767 -38.4108 194.514C-38.4108 141.261 4.91143 97.951 58.1526 97.951C111.394 97.951 154.716 141.273 154.716 194.514ZM-28.4449 194.514C-28.4449 242.268 10.3985 281.112 58.1526 281.112C105.907 281.112 144.75 242.268 144.75 194.514C144.75 146.76 105.907 107.917 58.1526 107.917C10.3985 107.917 -28.4449 146.76 -28.4449 194.514ZM58.1523 271.838C100.795 271.838 135.476 237.157 135.476 194.515C135.476 151.884 100.795 117.191 58.1523 117.191C15.5102 117.191 -19.171 151.873 -19.171 194.515C-19.171 237.157 15.5102 271.838 58.1523 271.838ZM58.1523 260.114C21.9821 260.114 -7.44646 230.685 -7.44646 194.515C-7.44646 158.345 21.9821 128.916 58.1523 128.916C94.3226 128.916 123.751 158.345 123.751 194.515C123.751 230.685 94.3226 260.114 58.1523 260.114ZM116.236 194.514C116.236 226.546 90.1837 252.598 58.1522 252.598C26.1208 252.598 0.0688343 226.546 0.0688347 194.514C0.0688351 162.483 26.1208 136.431 58.1522 136.431C90.1837 136.431 116.236 162.483 116.236 194.514ZM13.5521 194.514C13.5521 219.101 33.5541 239.115 58.1522 239.115C82.7503 239.115 102.752 219.112 102.752 194.514C102.752 169.916 82.7503 149.914 58.1522 149.914C33.5541 149.914 13.5521 169.928 13.5521 194.514ZM96.996 194.514C96.996 215.935 79.5733 233.358 58.1525 233.358C36.7318 233.358 19.3091 215.935 19.3091 194.514C19.3091 173.094 36.7318 155.671 58.1525 155.671C79.5733 155.671 96.996 173.094 96.996 194.514ZM34.551 194.514C34.551 207.529 45.1383 218.116 58.1525 218.116C71.1668 218.116 81.754 207.529 81.754 194.514C81.754 181.5 71.1668 170.913 58.1525 170.913C45.1383 170.913 34.551 181.5 34.551 194.514Z" fill="url(#paint1_linear_68_1788)"/>
</g>
</g>
<defs>
<linearGradient id="paint0_linear_68_1788" x1="445.732" y1="0" x2="445.732" y2="335.689" gradientUnits="userSpaceOnUse">
<stop stop-color="#C4C4C4"/>
<stop offset="1" stop-color="#C4C4C4" stop-opacity="0"/>
</linearGradient>
<linearGradient id="paint1_linear_68_1788" x1="-134.623" y1="194.514" x2="250.927" y2="194.514" gradientUnits="userSpaceOnUse">
<stop stop-color="#A431FF"/>
<stop offset="1" stop-color="#00FFF0"/>
</linearGradient>
</defs>
</svg>
