<svg width="756" height="705" viewBox="0 0 756 705" fill="none" xmlns="http://www.w3.org/2000/svg">
<g opacity="0.2">
<mask id="mask0_68_1805" style="mask-type:alpha" maskUnits="userSpaceOnUse" x="0" y="0" width="756" height="705">
<rect width="756" height="705" fill="url(#paint0_linear_68_1805)"/>
</mask>
<g mask="url(#mask0_68_1805)">
<path fill-rule="evenodd" clip-rule="evenodd" d="M756 378.907C756 171.417 587.188 2.60472 379.698 2.6047C172.207 2.60468 3.39516 171.417 3.39514 378.907C3.39513 586.398 172.207 755.21 379.698 755.21C587.188 755.21 756 586.398 756 378.907ZM753.711 378.907C753.711 585.139 585.929 752.921 379.698 752.921C173.466 752.921 5.68381 585.139 5.68383 378.907C5.68385 172.675 173.466 4.89337 379.698 4.89339C585.929 4.89341 753.712 172.676 753.711 378.907ZM379.698 40.1622C566.476 40.1622 718.443 192.13 718.443 378.908C718.443 565.686 566.476 717.653 379.698 717.653C192.92 717.653 40.9524 565.686 40.9524 378.908C40.9524 192.13 192.92 40.1622 379.698 40.1622ZM379.698 711.931C563.317 711.931 712.722 562.55 712.722 378.908C712.722 195.288 563.34 45.8839 379.698 45.8839C196.078 45.8839 46.6741 195.265 46.6741 378.908C46.674 562.527 196.078 711.931 379.698 711.931ZM680.887 378.93C680.887 212.842 545.764 77.7419 379.698 77.7419C213.633 77.7419 78.5329 212.842 78.51 378.93C78.51 545.019 213.61 680.119 379.698 680.119C545.787 680.119 680.887 544.996 680.887 378.93ZM671.732 378.907C671.732 539.938 540.729 670.941 379.698 670.941C218.668 670.941 87.6647 539.938 87.6647 378.907C87.6647 217.877 218.668 86.8737 379.698 86.8737C540.729 86.8737 671.732 217.877 671.732 378.907ZM379.698 115.299C525.051 115.299 643.306 233.554 643.306 378.907C643.306 524.26 525.051 642.516 379.698 642.516C234.344 642.516 116.089 524.26 116.089 378.907C116.089 233.554 234.344 115.299 379.698 115.299ZM379.698 629.951C518.116 629.951 630.718 517.349 630.718 378.93C630.718 240.512 518.116 127.909 379.698 127.909C241.279 127.909 128.677 240.489 128.677 378.907C128.677 517.326 241.279 629.951 379.698 629.951ZM605.749 378.908C605.749 254.267 504.338 152.856 379.698 152.856C255.057 152.856 153.646 254.267 153.646 378.908C153.646 503.548 255.057 604.959 379.698 604.959C504.338 604.959 605.749 503.548 605.749 378.908ZM589.729 378.908C589.729 494.714 495.504 588.939 379.698 588.939C263.891 588.938 169.667 494.737 169.667 378.908C169.667 263.101 263.891 168.877 379.698 168.877C495.504 168.877 589.729 263.101 589.729 378.908ZM379.698 190.412C483.626 190.412 568.192 274.979 568.192 378.907C568.192 482.835 483.649 567.401 379.698 567.401C275.746 567.401 191.203 482.835 191.203 378.907C191.203 274.979 275.769 190.412 379.698 190.412ZM379.698 547.948C472.915 547.948 548.739 472.124 548.739 378.907C548.739 285.69 472.915 209.866 379.698 209.866C286.48 209.866 210.657 285.69 210.657 378.907C210.657 472.124 286.48 547.948 379.698 547.948ZM530.636 378.907C530.636 295.669 462.937 227.97 379.699 227.97C296.483 227.97 228.761 295.669 228.761 378.907C228.761 462.146 296.46 529.845 379.699 529.845C462.937 529.845 530.636 462.146 530.636 378.907ZM507.749 378.907C507.749 449.513 450.304 506.958 379.699 506.958C309.093 506.958 251.648 449.513 251.648 378.907C251.648 308.302 309.093 250.857 379.699 250.857C450.304 250.857 507.75 308.302 507.749 378.907ZM379.698 265.527C442.224 265.527 493.078 316.381 493.078 378.908C493.078 441.434 442.224 492.288 379.698 492.288C317.171 492.288 266.317 441.434 266.317 378.908C266.317 316.381 317.171 265.527 379.698 265.527ZM379.698 465.968C427.691 465.968 466.759 426.924 466.759 378.908C466.759 330.891 427.714 291.847 379.698 291.847C331.682 291.847 292.637 330.891 292.637 378.908C292.637 426.924 331.704 465.968 379.698 465.968ZM379.698 303.083C421.512 303.083 455.521 337.093 455.521 378.907C455.521 420.721 421.512 454.731 379.698 454.731C337.884 454.731 303.874 420.721 303.874 378.907C303.874 337.093 337.884 303.083 379.698 303.083ZM379.698 424.978C405.102 424.978 425.769 404.311 425.769 378.907C425.769 353.503 405.102 332.836 379.698 332.836C354.294 332.836 333.627 353.503 333.627 378.907C333.627 404.311 354.294 424.978 379.698 424.978Z" fill="url(#paint1_linear_68_1805)"/>
</g>
</g>
<defs>
<linearGradient id="paint0_linear_68_1805" x1="378" y1="0" x2="378" y2="602.057" gradientUnits="userSpaceOnUse">
<stop stop-color="#C4C4C4"/>
<stop offset="1" stop-color="#C4C4C4" stop-opacity="0"/>
</linearGradient>
<linearGradient id="paint1_linear_68_1805" x1="379.698" y1="755.21" x2="379.698" y2="2.60476" gradientUnits="userSpaceOnUse">
<stop stop-color="#B75CFF"/>
<stop offset="1" stop-color="#00FFF0"/>
</linearGradient>
</defs>
</svg>
