<svg width="455" height="489" viewBox="0 0 455 489" fill="none" xmlns="http://www.w3.org/2000/svg">
<g opacity="0.2">
<mask id="mask0_68_1830" style="mask-type:alpha" maskUnits="userSpaceOnUse" x="0" y="0" width="497" height="489">
<rect y="489" width="489" height="496.32" transform="rotate(-90 0 489)" fill="url(#paint0_linear_68_1830)"/>
</mask>
<g mask="url(#mask0_68_1830)">
<path fill-rule="evenodd" clip-rule="evenodd" d="M244.866 -5.64158e-05C110.656 -6.22823e-05 1.4638 109.192 1.4638 243.402C1.46379 377.612 110.656 486.804 244.866 486.804C379.076 486.804 488.268 377.612 488.268 243.402C488.268 109.192 379.076 -5.05493e-05 244.866 -5.64158e-05ZM244.866 1.48031C378.262 1.48032 486.787 110.006 486.787 243.402C486.787 376.798 378.262 485.323 244.866 485.323C111.47 485.323 2.94417 376.798 2.94417 243.402C2.94418 110.006 111.47 1.4803 244.866 1.48031ZM25.7569 243.402C25.757 122.589 124.053 24.2927 244.866 24.2927C365.679 24.2927 463.975 122.589 463.975 243.402C463.975 364.215 365.679 462.511 244.866 462.511C124.053 462.511 25.7569 364.215 25.7569 243.402ZM460.274 243.402C460.274 124.632 363.651 27.9936 244.866 27.9936C126.096 27.9936 29.4579 124.617 29.4579 243.402C29.4579 362.172 126.081 458.81 244.866 458.81C363.636 458.81 460.274 362.172 460.274 243.402ZM244.881 48.5852C137.45 48.5852 50.0644 135.986 50.0644 243.401C50.0644 350.817 137.45 438.203 244.881 438.218C352.311 438.218 439.697 350.832 439.697 243.401C439.697 135.971 352.296 48.5852 244.881 48.5852ZM244.866 54.5066C349.025 54.5066 433.761 139.243 433.761 243.401C433.761 347.56 349.024 432.296 244.866 432.296C140.707 432.296 55.9711 347.56 55.9711 243.401C55.9711 139.243 140.707 54.5066 244.866 54.5066ZM74.357 243.402C74.357 149.384 150.848 72.8933 244.866 72.8933C338.884 72.8933 415.374 149.384 415.374 243.402C415.374 337.42 338.884 413.911 244.866 413.911C150.848 413.911 74.357 337.42 74.357 243.402ZM407.247 243.402C407.247 153.869 334.413 81.0353 244.881 81.0353C155.348 81.0353 82.5139 153.869 82.5139 243.402C82.5139 332.935 155.333 405.769 244.866 405.769C334.398 405.769 407.247 332.935 407.247 243.402ZM244.866 97.186C164.245 97.186 98.6501 162.781 98.6501 243.402C98.6501 324.023 164.245 389.618 244.866 389.618C325.487 389.618 391.082 324.023 391.082 243.402C391.082 162.781 325.487 97.186 244.866 97.186ZM244.866 107.549C319.773 107.549 380.719 168.495 380.719 243.402C380.719 318.308 319.787 379.255 244.866 379.255C169.959 379.255 109.013 318.308 109.013 243.402C109.013 168.495 169.959 107.549 244.866 107.549ZM122.943 243.402C122.943 176.178 177.642 121.479 244.866 121.479C312.089 121.479 366.789 176.164 366.789 243.402C366.789 310.64 312.089 365.325 244.866 365.325C177.642 365.325 122.943 310.625 122.943 243.402ZM354.205 243.402C354.205 183.107 305.161 134.062 244.866 134.062C184.57 134.062 135.526 183.107 135.526 243.402C135.526 303.697 184.57 352.742 244.866 352.742C305.161 352.742 354.205 303.697 354.205 243.402ZM244.866 145.771C191.025 145.771 147.236 189.56 147.236 243.401C147.236 297.227 191.025 341.031 244.866 341.031C298.707 341.031 342.496 297.242 342.496 243.401C342.496 189.56 298.707 145.771 244.866 145.771ZM244.866 160.575C290.535 160.575 327.692 197.732 327.692 243.401C327.692 289.071 290.535 326.228 244.866 326.228C199.197 326.228 162.039 289.071 162.039 243.401C162.039 197.732 199.197 160.575 244.866 160.575ZM171.529 243.402C171.529 202.958 204.422 170.064 244.866 170.064C285.31 170.064 318.203 202.958 318.203 243.402C318.203 283.845 285.31 316.739 244.866 316.739C204.422 316.739 171.529 283.845 171.529 243.402ZM301.179 243.402C301.179 212.359 275.924 187.089 244.866 187.089C213.808 187.089 188.553 212.344 188.553 243.402C188.553 274.46 213.808 299.715 244.866 299.715C275.924 299.715 301.179 274.445 301.179 243.402ZM195.821 243.402C195.821 216.356 217.819 194.357 244.866 194.357C271.912 194.357 293.91 216.356 293.91 243.402C293.91 270.448 271.912 292.446 244.866 292.446C217.819 292.446 195.821 270.448 195.821 243.402ZM274.665 243.402C274.665 226.97 261.298 213.602 244.866 213.602C228.434 213.602 215.066 226.97 215.066 243.402C215.066 259.834 228.434 273.202 244.866 273.202C261.298 273.202 274.665 259.834 274.665 243.402Z" fill="url(#paint1_linear_68_1830)"/>
</g>
</g>
<defs>
<linearGradient id="paint0_linear_68_1830" x1="244.5" y1="489" x2="244.5" y2="912.849" gradientUnits="userSpaceOnUse">
<stop stop-color="#C4C4C4"/>
<stop offset="1" stop-color="#C4C4C4" stop-opacity="0"/>
</linearGradient>
<linearGradient id="paint1_linear_68_1830" x1="488.268" y1="243.402" x2="1.46385" y2="243.402" gradientUnits="userSpaceOnUse">
<stop stop-color="#A431FF"/>
<stop offset="1" stop-color="#00FFF0"/>
</linearGradient>
</defs>
</svg>
