<svg width="319" height="244" viewBox="0 0 319 244" fill="none" xmlns="http://www.w3.org/2000/svg">
<g opacity="0.2">
<path d="M159.5 132.557C132.997 132.557 111.442 111.002 111.442 84.4999C111.442 57.9974 132.997 36.4423 159.5 36.4423C186.002 36.4423 207.558 57.9974 207.558 84.4999C207.558 111.002 186.002 132.557 159.5 132.557ZM159.5 47.5981C139.157 47.5981 122.598 64.1477 122.598 84.4999C122.598 104.852 139.148 121.402 159.5 121.402C179.852 121.402 196.402 104.852 196.402 84.4999C196.402 64.1477 179.842 47.5981 159.5 47.5981Z" fill="url(#paint0_linear_68_1796)"/>
<path d="M159.5 148.477C124.218 148.477 95.5232 119.782 95.5232 84.5C95.5232 49.2183 124.218 20.5234 159.5 20.5234C194.781 20.5234 223.476 49.2183 223.476 84.5C223.476 119.782 194.772 148.477 159.5 148.477ZM159.5 30.2242C129.573 30.2242 105.224 54.5731 105.224 84.5C105.224 114.427 129.573 138.776 159.5 138.776C189.427 138.776 213.776 114.427 213.776 84.5C213.776 54.5731 189.427 30.2242 159.5 30.2242Z" fill="url(#paint1_linear_68_1796)"/>
<path d="M159.5 164.396C115.449 164.396 79.6045 128.551 79.6045 84.5001C79.6045 40.449 115.439 4.60461 159.5 4.60461C203.561 4.60461 239.396 40.449 239.396 84.5001C239.396 128.551 203.551 164.396 159.5 164.396ZM159.5 12.8503C119.989 12.8503 87.8501 44.9889 87.8501 84.5001C87.8501 124.011 119.989 156.15 159.5 156.15C199.011 156.15 231.15 124.011 231.15 84.5001C231.15 44.9889 199.011 12.8503 159.5 12.8503Z" fill="url(#paint2_linear_68_1796)"/>
<path d="M159.5 180.314C106.67 180.314 63.6855 137.33 63.6855 84.4998C63.6855 31.6695 106.67 -11.3146 159.5 -11.3146C212.33 -11.3146 255.314 31.6695 255.314 84.4998C255.314 137.33 212.33 180.314 159.5 180.314ZM159.5 -4.5241C110.414 -4.5241 70.4761 35.414 70.4761 84.4998C70.4761 133.586 110.414 173.524 159.5 173.524C208.586 173.524 248.524 133.586 248.524 84.4998C248.524 35.4043 208.586 -4.5241 159.5 -4.5241Z" fill="url(#paint3_linear_68_1796)"/>
<path d="M159.5 196.233C97.8905 196.233 47.7666 146.11 47.7666 84.5C47.7666 22.8904 97.8905 -27.2335 159.5 -27.2335C221.11 -27.2335 271.233 22.8904 271.233 84.5C271.233 146.11 221.11 196.233 159.5 196.233ZM159.5 -21.9077C100.83 -21.9077 53.102 25.82 53.102 84.4903C53.102 143.161 100.83 190.888 159.5 190.888C218.17 190.888 265.898 143.17 265.898 84.5C265.898 25.8297 218.17 -21.9077 159.5 -21.9077Z" fill="url(#paint4_linear_68_1796)"/>
<path d="M159.5 212.152C89.111 212.152 31.8376 154.889 31.8376 84.4903C31.8376 14.1015 89.1013 -43.1718 159.5 -43.1718C229.898 -43.1718 287.162 14.0918 287.162 84.4903C287.152 154.889 229.888 212.152 159.5 212.152ZM159.5 -39.2818C91.2451 -39.2818 35.718 16.2454 35.718 84.5C35.718 152.755 91.2451 208.282 159.5 208.282C227.754 208.282 283.281 152.755 283.281 84.5C283.281 16.2454 227.754 -39.2818 159.5 -39.2818Z" fill="url(#paint5_linear_68_1796)"/>
<path d="M159.5 228.081C80.332 228.081 15.9189 163.668 15.9189 84.4998C15.9189 5.33184 80.332 -59.0812 159.5 -59.0812C238.668 -59.0812 303.081 5.33184 303.081 84.4998C303.081 163.668 238.668 228.081 159.5 228.081ZM159.5 -56.656C81.6707 -56.656 18.3441 6.66085 18.3441 84.4998C18.3441 162.329 81.661 225.656 159.5 225.656C237.329 225.656 300.656 162.339 300.656 84.4998C300.656 6.67054 237.329 -56.656 159.5 -56.656Z" fill="url(#paint6_linear_68_1796)"/>
<path d="M159.5 244C71.5528 244 0 172.447 0 84.5C0 -3.44715 71.5528 -75 159.5 -75C247.447 -75 319 -3.44715 319 84.5C319 172.447 247.447 244 159.5 244ZM159.5 -74.0299C72.0864 -74.0299 0.970077 -2.91361 0.970077 84.5C0.970077 171.914 72.0864 243.03 159.5 243.03C246.914 243.03 318.03 171.914 318.03 84.5C318.03 -2.91361 246.914 -74.0299 159.5 -74.0299Z" fill="url(#paint7_linear_68_1796)"/>
</g>
<defs>
<linearGradient id="paint0_linear_68_1796" x1="159.5" y1="36.4423" x2="159.5" y2="132.557" gradientUnits="userSpaceOnUse">
<stop stop-color="#B75CFF"/>
<stop offset="1" stop-color="#00FFF0"/>
</linearGradient>
<linearGradient id="paint1_linear_68_1796" x1="159.5" y1="20.5234" x2="159.5" y2="148.477" gradientUnits="userSpaceOnUse">
<stop stop-color="#B75CFF"/>
<stop offset="1" stop-color="#00FFF0"/>
</linearGradient>
<linearGradient id="paint2_linear_68_1796" x1="159.5" y1="4.60461" x2="159.5" y2="164.396" gradientUnits="userSpaceOnUse">
<stop stop-color="#B75CFF"/>
<stop offset="1" stop-color="#00FFF0"/>
</linearGradient>
<linearGradient id="paint3_linear_68_1796" x1="159.5" y1="-11.3146" x2="159.5" y2="180.314" gradientUnits="userSpaceOnUse">
<stop stop-color="#B75CFF"/>
<stop offset="1" stop-color="#00FFF0"/>
</linearGradient>
<linearGradient id="paint4_linear_68_1796" x1="159.5" y1="-27.2335" x2="159.5" y2="196.233" gradientUnits="userSpaceOnUse">
<stop stop-color="#B75CFF"/>
<stop offset="1" stop-color="#00FFF0"/>
</linearGradient>
<linearGradient id="paint5_linear_68_1796" x1="159.5" y1="-43.1718" x2="159.5" y2="212.152" gradientUnits="userSpaceOnUse">
<stop stop-color="#B75CFF"/>
<stop offset="1" stop-color="#00FFF0"/>
</linearGradient>
<linearGradient id="paint6_linear_68_1796" x1="159.5" y1="-59.0812" x2="159.5" y2="228.081" gradientUnits="userSpaceOnUse">
<stop stop-color="#B75CFF"/>
<stop offset="1" stop-color="#00FFF0"/>
</linearGradient>
<linearGradient id="paint7_linear_68_1796" x1="159.5" y1="-75" x2="159.5" y2="244" gradientUnits="userSpaceOnUse">
<stop stop-color="#B75CFF"/>
<stop offset="1" stop-color="#00FFF0"/>
</linearGradient>
</defs>
</svg>
