<svg width="320" height="740" viewBox="0 0 320 740" fill="none" xmlns="http://www.w3.org/2000/svg">
<g opacity="0.2">
<mask id="mask0_68_1782" style="mask-type:alpha" maskUnits="userSpaceOnUse" x="-431" y="0" width="751" height="740">
<rect x="319.579" y="-6.10352e-05" width="739.509" height="750.579" transform="rotate(90 319.579 -6.10352e-05)" fill="url(#paint0_linear_68_1782)"/>
</mask>
<g mask="url(#mask0_68_1782)">
<path fill-rule="evenodd" clip-rule="evenodd" d="M-50.7287 739.509C152.236 739.509 317.365 574.379 317.365 371.415C317.365 168.451 152.236 3.32126 -50.7287 3.32127C-253.693 3.32128 -418.823 168.451 -418.823 371.415C-418.823 574.379 -253.693 739.509 -50.7287 739.509ZM-50.7287 737.27C-252.462 737.27 -416.584 573.148 -416.584 371.415C-416.584 169.682 -252.462 5.55999 -50.7287 5.55998C151.004 5.55997 315.126 169.682 315.126 371.415C315.126 573.148 151.004 737.27 -50.7287 737.27ZM280.627 371.415C280.627 554.119 131.974 702.771 -50.7291 702.771C-233.433 702.771 -382.085 554.119 -382.085 371.415C-382.085 188.712 -233.433 40.0592 -50.7292 40.0592C131.974 40.0592 280.627 188.712 280.627 371.415ZM-376.488 371.415C-376.488 551.029 -230.366 697.174 -50.7291 697.174C128.885 697.174 275.03 551.052 275.03 371.415C275.03 191.801 128.907 45.656 -50.7292 45.6561C-230.343 45.6561 -376.488 191.801 -376.488 371.415ZM-50.7513 666.034C111.714 666.034 243.867 533.859 243.867 371.416C243.867 208.973 111.714 76.8199 -50.7513 76.7976C-213.217 76.7976 -345.37 208.95 -345.37 371.416C-345.37 533.881 -213.194 666.034 -50.7513 666.034ZM-50.7289 657.079C-208.247 657.079 -336.392 528.934 -336.392 371.416C-336.392 213.898 -208.247 85.7526 -50.7289 85.7525C106.789 85.7525 234.934 213.898 234.934 371.416C234.934 528.934 106.789 657.079 -50.7289 657.079ZM207.13 371.415C207.13 513.597 91.4538 629.273 -50.7287 629.273C-192.911 629.273 -308.587 513.597 -308.587 371.415C-308.587 229.233 -192.911 113.557 -50.7287 113.557C91.4538 113.557 207.13 229.233 207.13 371.415ZM-296.296 371.415C-296.296 506.814 -186.15 616.96 -50.751 616.96C84.648 616.96 194.794 506.814 194.794 371.415C194.794 236.016 84.6704 125.87 -50.7287 125.87C-186.128 125.87 -296.296 236.016 -296.296 371.415ZM-50.7291 592.536C71.1927 592.536 170.391 493.337 170.391 371.415C170.391 249.493 71.1927 150.295 -50.7291 150.295C-172.651 150.295 -271.85 249.493 -271.85 371.415C-271.85 493.337 -172.651 592.536 -50.7291 592.536ZM-50.7291 576.864C-164.009 576.864 -256.178 484.695 -256.178 371.415C-256.178 258.135 -164.032 165.966 -50.7291 165.966C62.5512 165.966 154.72 258.135 154.72 371.415C154.72 484.695 62.5512 576.864 -50.7291 576.864ZM133.654 371.415C133.654 473.076 50.9328 555.798 -50.7284 555.798C-152.39 555.798 -235.111 473.099 -235.111 371.415C-235.111 269.731 -152.39 187.032 -50.7284 187.032C50.9328 187.032 133.654 269.754 133.654 371.415ZM-216.082 371.415C-216.082 462.599 -141.912 536.769 -50.7284 536.769C40.4555 536.769 114.625 462.599 114.625 371.415C114.625 280.231 40.4555 206.062 -50.7284 206.062C-141.912 206.062 -216.082 280.231 -216.082 371.415ZM-50.7288 519.061C30.6942 519.061 96.9161 452.839 96.9161 371.416C96.9161 290.015 30.6942 223.771 -50.7288 223.771C-132.152 223.771 -198.374 289.993 -198.374 371.416C-198.374 452.839 -132.152 519.061 -50.7288 519.061ZM-50.7288 496.674C-119.794 496.674 -175.986 440.481 -175.986 371.416C-175.986 302.351 -119.794 246.159 -50.7288 246.159C18.3363 246.159 74.5287 302.351 74.5287 371.416C74.5287 440.481 18.3363 496.674 -50.7288 496.674ZM60.1782 371.415C60.1782 432.578 10.4334 482.322 -50.7291 482.322C-111.891 482.322 -161.636 432.578 -161.636 371.415C-161.636 310.253 -111.891 260.508 -50.7291 260.508C10.4334 260.508 60.1782 310.253 60.1782 371.415ZM-135.891 371.415C-135.891 418.362 -97.6978 456.577 -50.7291 456.577C-3.76027 456.577 34.4327 418.384 34.4327 371.415C34.4327 324.446 -3.76027 286.253 -50.7291 286.253C-97.6978 286.253 -135.891 324.469 -135.891 371.415ZM23.441 371.415C23.441 412.317 -9.8267 445.585 -50.7285 445.585C-91.6303 445.585 -124.898 412.317 -124.898 371.415C-124.898 330.513 -91.6303 297.246 -50.7285 297.246C-9.82671 297.246 23.441 330.513 23.441 371.415ZM-95.7944 371.415C-95.7944 396.265 -75.5785 416.481 -50.7285 416.481C-25.8785 416.481 -5.66264 396.265 -5.66264 371.415C-5.66265 346.565 -25.8785 326.349 -50.7285 326.349C-75.5785 326.349 -95.7944 346.565 -95.7944 371.415Z" fill="url(#paint1_linear_68_1782)"/>
</g>
</g>
<defs>
<linearGradient id="paint0_linear_68_1782" x1="689.334" y1="-6.10352e-05" x2="689.334" y2="582.37" gradientUnits="userSpaceOnUse">
<stop stop-color="#C4C4C4"/>
<stop offset="0.552931" stop-color="#C4C4C4" stop-opacity="0"/>
</linearGradient>
<linearGradient id="paint1_linear_68_1782" x1="-418.823" y1="371.415" x2="317.365" y2="371.415" gradientUnits="userSpaceOnUse">
<stop stop-color="#B75CFF"/>
<stop offset="1" stop-color="#00FFF0"/>
</linearGradient>
</defs>
</svg>
