<svg width="201" height="95" viewBox="0 0 201 95" fill="none" xmlns="http://www.w3.org/2000/svg">
<g clip-path="url(#clip0_68_1969)">
<g clip-path="url(#clip1_68_1969)">
<path d="M130.185 11.2909C133.498 11.2909 136.209 14.0017 136.209 17.315V77.685C136.209 80.9983 133.498 83.7091 130.185 83.7091H69.815C66.5017 83.7091 63.7909 80.9983 63.7909 77.685V17.315C63.7909 14.0017 66.4587 11.2909 69.815 11.2909H130.185ZM130.185 10H69.815C65.7702 10 62.5 13.2702 62.5 17.315V77.685C62.5 81.7298 65.7702 85 69.815 85H130.185C134.23 85 137.5 81.7298 137.5 77.685V17.315C137.5 13.2702 134.23 10 130.185 10Z" fill="white"/>
<path fill-rule="evenodd" clip-rule="evenodd" d="M130.185 11.2909H69.8151C66.4588 11.2909 63.791 13.9587 63.791 17.315V77.685C63.791 80.9983 66.5019 83.7091 69.8151 83.7091H130.185C133.498 83.7091 136.209 80.9983 136.209 77.685V17.315C136.209 14.0017 133.498 11.2909 130.185 11.2909ZM104.238 35.3442V48.296L107.853 47.4355V40.2926C107.853 38.6575 108.498 37.5387 109.746 37.0654C110.306 36.8072 110.908 36.6781 111.51 36.6781V33.4509C111.209 33.3649 110.865 33.4079 110.564 33.494C108.498 34.0103 107.638 36.2478 107.638 36.2478V34.5267L104.238 35.3442ZM86.3811 52.5128C86.3811 52.5128 85.8217 51.6953 85.8217 48.7693V42.2719L84.1006 42.7021V40.0343L85.8648 39.604V36.7211L89.4792 35.8605V38.7435L92.018 38.141V40.8089L89.4792 41.4113V47.9948C89.4792 50.9638 90.2538 51.5662 90.2538 51.5662L86.3811 52.5128ZM93.3949 39.4751C92.7064 40.7659 92.3622 42.4441 92.3622 44.7677C92.3622 48.5542 93.481 51.179 97.8699 50.1894C102.388 49.1136 102.732 46.0155 102.775 44.7677V44.2083L99.5051 44.9828C99.5051 44.9828 99.462 45.3701 99.462 45.4992C99.376 46.4458 99.0317 47.1773 97.8269 47.4355C96.45 47.7367 95.9767 46.704 95.9767 44.5095V44.3804L102.947 42.7453V41.0672C102.99 37.926 101.57 35.6024 97.6118 36.506C95.5894 36.9363 94.2125 37.926 93.3949 39.4751ZM95.9767 42.1859C95.9767 40.2926 96.5791 39.1739 97.7409 38.9157C99.0317 38.6575 99.462 39.389 99.462 40.809V41.3684L95.9767 42.1859ZM123.644 37.1946C123.515 33.2359 124.548 30.0947 128.937 29.1051C131.734 28.4596 132.81 29.1911 133.369 29.9226C133.885 30.6111 134.101 31.5147 134.101 32.7625V32.9777L130.658 33.7952V33.3219C130.658 31.8159 130.228 31.2565 129.152 31.5147C127.861 31.8589 127.302 33.0638 127.302 35.5595V36.7212C127.302 39.2169 127.646 40.3787 129.152 40.0345C130.443 39.7763 130.615 38.6145 130.658 37.6249V36.9794L134.101 36.1619V36.6782C134.101 39.9484 132.379 42.0138 129.109 42.7884C124.634 43.8211 123.774 41.2393 123.644 37.1946ZM116.114 37.7108C113.49 38.7865 111.725 39.7331 111.725 42.7452C111.725 44.9397 113.102 46.5318 115.684 45.9293C118.137 45.3269 118.868 43.5197 118.868 43.5197C118.954 43.9069 119.127 44.2942 119.299 44.6814L119.299 44.6815L122.569 43.907C122.569 43.907 122.053 43.5197 122.053 40.7228V34.9999C122.053 32.5472 120.891 30.9982 117.319 31.8158C114.565 32.4612 112.973 33.666 112.457 35.4732C112.285 36.1187 112.199 36.8071 112.242 37.4526L115.598 36.6781C115.598 36.5705 115.609 36.4629 115.62 36.3553C115.63 36.2478 115.641 36.1402 115.641 36.0326C115.641 35.2151 116.244 34.5266 117.061 34.3545C118.266 34.0533 118.567 34.6557 118.567 35.3872C118.567 36.2478 118.481 36.7211 116.114 37.7108ZM116.803 39.6471C117.448 39.3459 118.008 39.0016 118.567 38.6144V40.4216C118.567 41.7985 117.836 42.7882 116.76 43.0464C115.77 43.3046 115.211 42.7022 115.211 41.8416C115.211 40.8519 115.727 40.1634 116.803 39.6471ZM67.5347 61.5921C66.3729 61.5921 65.4693 60.6455 65.4693 59.5267C65.4693 59.1394 65.5984 58.7522 65.8135 58.4079L65.8565 58.3649H65.8996L70.8049 57.2031V60.9036H70.7188C70.5331 60.9465 70.3414 60.9906 70.1497 61.0346L70.1472 61.0352L70.147 61.0352L70.1465 61.0353C69.1847 61.2564 68.2231 61.4774 68.008 61.5491C67.9219 61.5491 67.8466 61.5598 67.7713 61.5706C67.696 61.5813 67.6207 61.5921 67.5347 61.5921ZM65.4693 64.2599C65.4693 65.3786 66.3729 66.3253 67.5347 66.3253H67.5347C67.7068 66.3253 67.8359 66.3253 68.008 66.2822C68.2231 66.2105 69.1854 65.9894 70.1476 65.7683C70.34 65.724 70.5324 65.6798 70.7188 65.6368H70.8049V61.9363L65.8996 63.0981H65.8565L65.8135 63.1411C65.5984 63.4853 65.4693 63.8726 65.4693 64.2599ZM67.5347 71.1015C66.3729 71.1015 65.4693 70.1548 65.4693 69.0361C65.4693 68.6488 65.5984 68.2616 65.8135 67.9173L65.8565 67.8743L70.8049 66.7125V70.413H70.7188C70.1245 70.5671 69.4851 70.7099 68.9735 70.8242L68.9735 70.8242L68.9731 70.8243C68.4848 70.9334 68.1131 71.0164 68.008 71.0584C67.8359 71.1015 67.7068 71.1015 67.5347 71.1015ZM66.9749 36.2049V57.0311L70.7615 56.1274V35.3443L66.9749 36.2049ZM76.4414 55.2668C76.4414 53.9759 75.4087 52.9432 74.1178 52.9432C72.8269 52.9432 71.7942 53.9759 71.7942 55.2668V74.716C71.7942 78.2013 74.6341 81.0413 78.1195 81.0413H84.746V72.9087V63.8726C84.746 62.8399 84.2297 61.8933 83.3691 61.3339L77.431 57.3322V66.4544C77.431 66.7125 77.2159 66.9707 76.9147 66.9707C76.6565 66.9707 76.3983 66.7556 76.3983 66.4544C76.4414 66.3253 76.4414 56.4716 76.4414 55.2668ZM76.2266 43.3907C76.915 42.0568 78.1199 41.1102 79.5829 40.766C82.2937 40.1205 83.1543 41.7126 83.1973 43.9501V53.2014L79.5829 54.062V45.284C79.5829 43.9071 78.9374 43.6489 78.1629 43.821C77.1302 44.0792 76.3987 45.198 76.3987 46.661V52.6851C75.409 51.7814 73.989 51.5663 72.7842 52.0396V42.7023L76.2266 41.9277V43.3907ZM131.863 27.4268C130.615 27.4268 129.626 26.4371 129.626 25.1893C129.626 23.9414 130.615 22.9518 131.863 22.9518C133.111 22.9518 134.101 23.9414 134.101 25.1893C134.058 26.4371 133.068 27.4268 131.863 27.4268ZM131.863 23.253C130.787 23.253 129.927 24.1136 129.927 25.1893C129.927 26.265 130.787 27.1256 131.863 27.1256C132.939 27.1256 133.799 26.265 133.799 25.1893C133.799 24.1566 132.939 23.253 131.863 23.253ZM131.993 23.8985H131.046V26.5663H131.476V25.4045H131.82C132.122 25.4045 132.208 25.5336 132.208 25.8348V26.3512C132.208 26.4372 132.251 26.5233 132.294 26.6093H132.767C132.681 26.5663 132.638 26.4803 132.638 26.3942V25.8348C132.638 25.4476 132.466 25.3185 132.208 25.2754C132.509 25.1894 132.681 24.9312 132.681 24.587V24.4579C132.638 24.1136 132.337 23.8555 131.993 23.8985ZM132.251 24.7591C132.251 24.9742 132.036 25.1033 131.82 25.1033H131.433V24.2427H131.82C132.122 24.2427 132.251 24.3718 132.251 24.673V24.7591Z" fill="white"/>
</g>
</g>
<defs>
<clipPath id="clip0_68_1969">
<rect width="200" height="95" fill="white" transform="translate(0.5)"/>
</clipPath>
<clipPath id="clip1_68_1969">
<rect width="75" height="75" fill="white" transform="translate(62.5 10)"/>
</clipPath>
</defs>
</svg>
