<svg width="201" height="95" viewBox="0 0 201 95" fill="none" xmlns="http://www.w3.org/2000/svg">
<path fill-rule="evenodd" clip-rule="evenodd" d="M128.646 67.3273C135.46 67.3273 141.009 61.7787 141.009 54.9645V6H73.7432C66.929 6 61.3804 11.5487 61.3804 18.3628V67.3273H128.646ZM124.216 42.4072H119.105V37.7346H124.216C124.411 37.7346 124.703 37.7346 124.849 37.7833C125.822 38.0267 126.65 38.9028 126.65 40.0709C126.65 41.2877 125.822 42.1638 124.849 42.3585C124.776 42.3585 124.654 42.3707 124.532 42.3828C124.411 42.395 124.289 42.4072 124.216 42.4072ZM123.632 10.1375C118.765 10.1375 114.774 14.0799 114.774 18.9958V28.1949H127.283C127.575 28.1949 127.915 28.1949 128.159 28.2436C130.982 28.3896 133.075 29.8498 133.075 32.3808C133.075 34.3763 131.663 36.0799 129.035 36.4206V36.5179C131.906 36.7126 134.097 38.3188 134.097 40.8011C134.097 43.4781 131.663 45.2303 128.451 45.2303H114.725V63.2391H127.721C132.588 63.2391 136.579 59.2966 136.579 54.3807V10.1375H123.632ZM124.216 30.8717C125.19 31.0177 126.017 31.7964 126.017 32.9646C126.017 34.1327 125.19 34.9115 124.216 35.0575C124.167 35.1062 123.875 35.1062 123.729 35.1062H119.105V30.823H123.729C123.81 30.823 123.92 30.8377 124.018 30.851L124.018 30.851L124.018 30.851C124.099 30.8618 124.172 30.8717 124.216 30.8717ZM74.6679 10.1374C69.8006 10.1374 65.8095 14.0799 65.8095 18.9958V40.8497C68.2918 42.0666 70.8714 42.8453 73.4511 42.8453C76.5174 42.8453 78.1723 40.9958 78.1723 38.4648V28.1462H85.7652V38.4161C85.7652 42.4073 83.2829 45.6683 74.8626 45.6683C69.752 45.6683 65.7608 44.5488 65.7608 44.5488V63.1904H78.7564C83.6236 63.1904 87.6148 59.2479 87.6148 54.332V10.1374H74.6679ZM90.2925 18.9958C90.2925 14.0799 94.2836 10.1375 99.1509 10.1375H112.146V54.4294C112.146 59.3453 108.155 63.2878 103.288 63.2878H90.2925V42.8453C92.5314 44.7436 96.4252 45.9604 102.704 45.6684C106.111 45.5223 109.664 44.5976 109.664 44.5976V40.8498C107.863 41.7259 105.722 42.602 102.947 42.7967C98.1774 43.1861 95.3057 40.8498 95.3057 36.7126C95.3057 32.6241 98.1774 30.2879 102.947 30.6286C105.722 30.8232 107.863 31.6507 109.664 32.5755V28.8277C109.664 28.8277 106.062 27.9029 102.704 27.7569C96.4252 27.4648 92.5314 28.6817 90.2925 30.5799V18.9958Z" fill="white"/>
<path d="M52.9115 75.6018V81.9292C52.9115 83 53.1549 83.4867 53.3496 83.7788C53.9823 84.6062 54.9557 84.8009 55.6858 84.8009C58.4602 84.8009 58.4602 82.6593 58.4602 81.9292V75.6992H59.823V81.9779C59.823 82.5133 59.823 83.6814 58.9956 84.7036C57.9734 85.969 56.4646 86.1151 55.6858 86.1151C54.7124 86.1151 53.0575 85.8717 52.0841 84.5089C51.792 84.0708 51.5 83.4867 51.5 81.9292V75.6992H52.9115V75.6018Z" fill="white"/>
<path d="M62.0625 79.4954V78.668H63.3767V79.7875C63.5227 79.4954 64.0581 78.522 65.6643 78.522C66.297 78.522 68.2439 78.7653 68.2439 80.9556V85.7742H66.8811V81.2963C66.8811 80.8096 66.8324 80.4202 66.4917 80.0795C66.151 79.7388 65.6643 79.5928 65.2262 79.5928C64.2528 79.5928 63.3767 80.2742 63.3767 81.6857V85.7742H62.0625V79.4954Z" fill="white"/>
<path d="M70.4829 75.6018H72.0891V77.062H70.4829V75.6018ZM70.6289 78.6682H71.9431V85.7257H70.6289V78.6682Z" fill="white"/>
<path d="M80.7032 78.6679C80.7032 78.9599 80.6545 79.5927 80.6545 79.836V88.4997H79.2917V84.9953C79.1943 85.1413 79.0483 85.3847 78.7076 85.5794C78.1235 85.9688 77.4421 86.0174 77.1014 86.0174C75.3979 86.0174 73.889 84.8006 73.889 82.1723C73.889 79.544 75.3492 78.5706 76.8581 78.5706C78.3182 78.5706 78.951 79.3493 79.2917 79.836L79.3404 78.6679H80.7032ZM77.2474 79.544C75.3492 79.544 75.3005 81.5396 75.3005 82.075C75.3005 82.5617 75.3492 83.6325 75.8846 84.3139C76.1766 84.752 76.7607 84.9953 77.3935 84.9953C79.0483 84.9953 79.3404 83.7298 79.3404 82.3183C79.389 81.7829 79.389 79.544 77.2474 79.544Z" fill="white"/>
<path d="M84.5 78.668V83.2432C84.5 83.9246 84.6461 84.8007 86.0089 84.8007C86.6903 84.8007 87.2744 84.5573 87.6637 84.0219C87.9558 83.5839 87.9558 83.0485 87.9558 82.7078V78.7166H89.3186V84.46C89.3186 84.606 89.3673 85.3848 89.3673 85.7741H88.0045L87.9558 84.5573C87.7124 85.0441 87.2257 85.8228 85.7168 85.8228C83.9646 85.8228 83.1372 84.8007 83.1372 83.4379V78.668H84.5Z" fill="white"/>
<path d="M92.7741 82.4645C92.7254 83.9247 93.3582 84.9955 94.8184 84.9955C95.6945 84.9955 96.3759 84.5575 96.4732 83.5353H97.7874C97.7387 83.876 97.69 84.4601 97.2033 84.9955C96.9113 85.3362 96.1812 85.9203 94.7697 85.9203C92.5308 85.9203 91.46 84.5575 91.46 82.3185C91.46 80.907 91.752 79.7875 92.8715 79.0088C93.5529 78.5221 94.3803 78.4734 94.8184 78.4734C97.9821 78.4734 97.9334 81.2964 97.8847 82.4159H92.7741V82.4645ZM96.4732 81.5398C96.4732 80.8583 96.3759 79.4468 94.721 79.4468C93.8449 79.4468 92.8228 79.9822 92.7741 81.5398H96.4732Z" fill="white"/>
<path d="M100.075 75.6018H101.389V85.7744H100.075V75.6018Z" fill="white"/>
<path d="M106.987 85.8229L105.965 88.4513H104.602L105.673 85.7256L102.703 78.6681H104.212L106.451 84.2654L108.69 78.6681H110.15L106.987 85.8229Z" fill="white"/>
<path d="M117.208 81.7832L113.217 75.6018H114.969L117.987 80.6151L121.053 75.6018H122.611L118.619 81.8319V85.7744H117.208V81.7832Z" fill="white"/>
<path d="M125.482 78.522C128.305 78.522 128.938 80.7609 128.938 82.2211C128.938 84.314 127.77 86.0175 125.336 86.0175C123 86.0175 121.832 84.4113 121.832 82.3184C121.881 80.5662 122.708 78.522 125.482 78.522ZM125.385 84.9954C126.407 84.9954 127.527 84.2653 127.527 82.1237C127.527 80.3715 126.699 79.4467 125.482 79.4467C124.655 79.4467 123.292 79.9821 123.292 82.2211C123.244 83.6813 123.876 84.9954 125.385 84.9954Z" fill="white"/>
<path d="M132.297 78.6681V83.2433C132.297 83.9247 132.443 84.8008 133.806 84.8008C134.487 84.8008 135.071 84.5575 135.461 84.0221C135.753 83.584 135.753 83.0486 135.753 82.7079V78.7168H137.115V84.4601C137.115 84.6061 137.164 85.3849 137.164 85.7743H135.801L135.753 84.5575C135.509 85.0442 135.023 85.8229 133.514 85.8229C131.762 85.8229 130.934 84.8008 130.934 83.438V78.6681H132.297Z" fill="white"/>
<path d="M139.792 80.1281C139.792 79.6414 139.744 79.1546 139.744 78.6679H141.106L141.155 80.0307C141.399 79.0573 142.275 78.7166 142.859 78.6192C143.248 78.5706 143.54 78.5706 143.783 78.5706V79.8847C143.735 79.836 143.637 79.836 143.54 79.836C143.443 79.836 143.297 79.836 143.151 79.836C141.593 79.836 141.204 80.7608 141.204 81.9776V85.7254H139.841V80.1281H139.792Z" fill="white"/>
<path d="M146.022 83.6813C146.022 84.2166 146.314 84.9467 147.58 84.9467C148.115 84.9467 148.553 84.8494 148.845 84.5087C148.991 84.314 149.088 84.0706 149.088 83.8273C149.088 83.1459 148.602 82.9998 147.531 82.7565C146.071 82.4158 144.805 82.1237 144.805 80.6636C144.805 79.3494 145.925 78.522 147.58 78.522C148.456 78.522 149.721 78.7653 150.11 79.6414C150.305 80.0308 150.305 80.3715 150.305 80.6636H148.942C148.991 79.5928 148.066 79.4954 147.58 79.4954C147.385 79.4954 146.119 79.4954 146.119 80.5175C146.119 81.1503 146.752 81.345 147.141 81.4423C149.088 81.929 149.526 82.0264 149.964 82.4158C150.354 82.8052 150.5 83.2919 150.5 83.7299C150.5 84.5087 150.062 85.1901 149.526 85.5308C148.894 85.9202 148.164 86.0175 147.434 86.0175C145.973 86.0175 144.659 85.4335 144.659 83.7299H146.022V83.6813Z" fill="white"/>
</svg>
