<svg width="201" height="95" viewBox="0 0 201 95" fill="none" xmlns="http://www.w3.org/2000/svg">
<g clip-path="url(#clip0_68_1918)">
<mask id="path-1-inside-1_68_1918" fill="white">
<path d="M73.5011 46.9998C73.5011 63.5684 60.0699 77 43.5015 77C26.9328 77 13.5015 63.5684 13.5015 46.9998C13.5015 30.4314 26.9328 17 43.5015 17C60.0697 17 73.5011 30.4314 73.5011 46.9998Z"/>
</mask>
<path d="M69.5011 46.9998C69.5011 61.3594 57.8607 73 43.5015 73V81C62.2791 81 77.5011 65.7775 77.5011 46.9998H69.5011ZM43.5015 73C29.142 73 17.5015 61.3593 17.5015 46.9998H9.50146C9.50146 65.7775 24.7237 81 43.5015 81V73ZM17.5015 46.9998C17.5015 32.6405 29.142 21 43.5015 21V13C24.7237 13 9.50146 28.2222 9.50146 46.9998H17.5015ZM43.5015 21C57.8606 21 69.5011 32.6405 69.5011 46.9998H77.5011C77.5011 28.2222 62.2789 13 43.5015 13V21Z" fill="white" mask="url(#path-1-inside-1_68_1918)"/>
<path d="M41.747 55.014L43.6956 47.6768L48.3089 45.9913L49.4564 41.6792L49.4172 41.5723L44.876 43.2313L48.148 30.9111H38.8687L34.5897 46.9892L31.0171 48.2943L29.8367 52.7398L33.4065 51.4358L30.8847 60.9113H55.5805L57.1637 55.014H41.747Z" fill="white"/>
</g>
<path d="M88.94 37.21H90.98L86.42 56.26H95.63L95.24 58H83.99L88.94 37.21Z" fill="white"/>
<path d="M101.949 42.49H103.899L100.149 58H98.199L101.949 42.49ZM102.729 37.96C102.729 37.44 102.869 37.05 103.149 36.79C103.449 36.51 103.769 36.37 104.109 36.37C104.509 36.37 104.819 36.5 105.039 36.76C105.259 37 105.369 37.32 105.369 37.72C105.369 38.2 105.209 38.57 104.889 38.83C104.569 39.09 104.249 39.22 103.929 39.22C103.529 39.22 103.229 39.11 103.029 38.89C102.829 38.65 102.729 38.34 102.729 37.96Z" fill="white"/>
<path d="M109.91 37.93L111.95 37.57L110.78 42.49H116.24L115.85 44.17H110.36L108.53 51.76C108.43 52.12 108.34 52.51 108.26 52.93C108.2 53.33 108.17 53.73 108.17 54.13C108.17 55.03 108.39 55.66 108.83 56.02C109.27 56.38 109.82 56.56 110.48 56.56C111.12 56.56 111.67 56.49 112.13 56.35C112.61 56.21 113.11 56.02 113.63 55.78L113.81 57.55C113.27 57.77 112.66 57.96 111.98 58.12C111.32 58.28 110.66 58.36 110 58.36C109.48 58.36 108.99 58.3 108.53 58.18C108.07 58.06 107.66 57.86 107.3 57.58C106.96 57.3 106.68 56.93 106.46 56.47C106.26 56.01 106.16 55.43 106.16 54.73C106.16 53.87 106.3 52.88 106.58 51.76L109.91 37.93Z" fill="white"/>
<path d="M130.278 46.12C130.278 47.24 129.998 48.15 129.438 48.85C128.898 49.55 128.128 50.11 127.128 50.53C126.148 50.93 124.958 51.22 123.558 51.4C122.178 51.58 120.638 51.71 118.938 51.79V52.42C118.938 53 118.998 53.54 119.118 54.04C119.238 54.54 119.458 54.98 119.778 55.36C120.098 55.72 120.538 56.01 121.098 56.23C121.678 56.45 122.418 56.56 123.318 56.56C124.018 56.56 124.718 56.46 125.418 56.26C126.138 56.06 126.818 55.76 127.458 55.36L127.668 57.16C126.988 57.54 126.238 57.83 125.418 58.03C124.598 58.25 123.768 58.36 122.928 58.36C121.828 58.36 120.898 58.22 120.138 57.94C119.398 57.66 118.788 57.27 118.308 56.77C117.848 56.27 117.518 55.67 117.318 54.97C117.118 54.27 117.018 53.5 117.018 52.66C117.018 51.38 117.208 50.11 117.588 48.85C117.988 47.59 118.568 46.46 119.328 45.46C120.088 44.46 121.018 43.66 122.118 43.06C123.238 42.44 124.508 42.13 125.928 42.13C127.328 42.13 128.398 42.5 129.138 43.24C129.898 43.96 130.278 44.92 130.278 46.12ZM125.748 43.9C124.948 43.9 124.198 44.07 123.498 44.41C122.798 44.73 122.168 45.17 121.608 45.73C121.048 46.29 120.558 46.94 120.138 47.68C119.738 48.42 119.438 49.2 119.238 50.02C120.938 49.98 122.368 49.87 123.528 49.69C124.688 49.51 125.618 49.26 126.318 48.94C127.038 48.62 127.548 48.24 127.848 47.8C128.148 47.34 128.298 46.82 128.298 46.24C128.298 45.46 128.058 44.88 127.578 44.5C127.118 44.1 126.508 43.9 125.748 43.9Z" fill="white"/>
<path d="M141.777 57.25C141.377 57.51 140.757 57.76 139.917 58C139.097 58.24 138.177 58.36 137.157 58.36C135.337 58.36 133.967 57.84 133.047 56.8C132.127 55.76 131.667 54.33 131.667 52.51C131.667 51.15 131.877 49.85 132.297 48.61C132.717 47.35 133.327 46.24 134.127 45.28C134.947 44.32 135.947 43.56 137.127 43C138.307 42.42 139.647 42.13 141.147 42.13C142.187 42.13 143.217 42.3 144.237 42.64L143.427 44.41C142.967 44.23 142.507 44.11 142.047 44.05C141.607 43.97 141.177 43.93 140.757 43.93C139.697 43.93 138.727 44.16 137.847 44.62C136.987 45.06 136.247 45.67 135.627 46.45C135.007 47.21 134.527 48.1 134.187 49.12C133.847 50.12 133.677 51.18 133.677 52.3C133.677 53.62 133.977 54.66 134.577 55.42C135.197 56.18 136.177 56.56 137.517 56.56C137.937 56.56 138.357 56.52 138.777 56.44C139.217 56.36 139.617 56.27 139.977 56.17C140.337 56.05 140.657 55.93 140.937 55.81C141.217 55.69 141.427 55.58 141.567 55.48L141.777 57.25Z" fill="white"/>
<path d="M146.977 53.02C146.977 54.2 147.307 55.09 147.967 55.69C148.627 56.29 149.417 56.59 150.337 56.59C151.057 56.59 151.797 56.41 152.557 56.05C153.317 55.67 154.007 55.11 154.627 54.37C155.267 53.61 155.787 52.66 156.187 51.52C156.607 50.38 156.817 49.04 156.817 47.5C156.817 46.32 156.487 45.43 155.827 44.83C155.167 44.23 154.377 43.93 153.457 43.93C152.737 43.93 151.997 44.12 151.237 44.5C150.477 44.86 149.777 45.42 149.137 46.18C148.517 46.92 147.997 47.86 147.577 49C147.177 50.14 146.977 51.48 146.977 53.02ZM158.797 47.35C158.797 49.23 158.527 50.86 157.987 52.24C157.467 53.62 156.787 54.77 155.947 55.69C155.127 56.59 154.207 57.26 153.187 57.7C152.187 58.14 151.197 58.36 150.217 58.36C149.517 58.36 148.847 58.25 148.207 58.03C147.587 57.81 147.037 57.48 146.557 57.04C146.077 56.6 145.697 56.06 145.417 55.42C145.137 54.76 144.997 54 144.997 53.14C144.997 51.26 145.257 49.63 145.777 48.25C146.317 46.87 146.997 45.73 147.817 44.83C148.657 43.93 149.577 43.26 150.577 42.82C151.597 42.38 152.597 42.16 153.577 42.16C154.277 42.16 154.937 42.27 155.557 42.49C156.197 42.71 156.757 43.04 157.237 43.48C157.717 43.92 158.097 44.47 158.377 45.13C158.657 45.77 158.797 46.51 158.797 47.35Z" fill="white"/>
<path d="M164.088 42.49H166.038L162.288 58H160.338L164.088 42.49ZM164.868 37.96C164.868 37.44 165.008 37.05 165.288 36.79C165.588 36.51 165.908 36.37 166.248 36.37C166.648 36.37 166.958 36.5 167.178 36.76C167.398 37 167.508 37.32 167.508 37.72C167.508 38.2 167.348 38.57 167.028 38.83C166.708 39.09 166.388 39.22 166.068 39.22C165.668 39.22 165.368 39.11 165.168 38.89C164.968 38.65 164.868 38.34 164.868 37.96Z" fill="white"/>
<path d="M170.968 43.03C171.748 42.81 172.578 42.62 173.458 42.46C174.338 42.28 175.208 42.19 176.068 42.19C176.788 42.19 177.468 42.27 178.108 42.43C178.748 42.57 179.308 42.83 179.788 43.21C180.268 43.59 180.648 44.09 180.928 44.71C181.208 45.33 181.348 46.1 181.348 47.02C181.348 47.54 181.308 48.08 181.228 48.64C181.148 49.18 181.038 49.73 180.898 50.29L179.038 58H177.088L178.738 51.1C178.898 50.44 179.038 49.77 179.158 49.09C179.298 48.41 179.378 47.76 179.398 47.14C179.398 46.52 179.298 46.01 179.098 45.61C178.918 45.21 178.658 44.89 178.318 44.65C177.998 44.41 177.618 44.24 177.178 44.14C176.738 44.04 176.278 43.99 175.798 43.99C175.278 43.99 174.748 44.03 174.208 44.11C173.668 44.19 173.138 44.29 172.618 44.41L169.348 58H167.398L170.968 43.03Z" fill="white"/>
<defs>
<clipPath id="clip0_68_1918">
<rect width="60" height="60" fill="white" transform="translate(13.5 17)"/>
</clipPath>
</defs>
</svg>
