<svg width="200" height="95" viewBox="0 0 200 95" fill="none" xmlns="http://www.w3.org/2000/svg">
<path d="M175.013 40.3499C175.597 37.6695 176.476 35.1035 177.121 32.4833C177.38 31.4443 177.789 31.1371 178.822 31.2274C180.019 31.2892 181.219 31.2892 182.415 31.2274C183.729 31.2094 184.364 32.149 183.641 33.2603C182.937 34.4114 182.428 35.6713 182.135 36.9889C181.126 40.9704 179.232 44.6417 178.127 48.59C177.859 49.4989 177.734 50.4438 177.756 51.3909C177.874 55.0472 177.907 58.7064 178.058 62.3596C178.103 63.4408 177.756 63.736 176.726 63.6788C175.375 63.6075 174.02 63.6176 172.67 63.7089C171.911 63.7571 171.63 63.6035 171.618 62.7843C171.567 59.5497 171.248 56.3302 171.393 53.0745C171.522 50.126 170.85 47.2287 169.793 44.4308C168.348 40.6029 167.257 36.6455 165.577 32.8989C165.149 31.9412 165.128 31.1552 166.61 31.2395C168.206 31.3298 170.107 30.7606 171.329 31.4503C172.552 32.14 172.642 34.2181 173.242 35.6667C173.913 37.196 174.504 38.7592 175.013 40.3499Z" fill="white"/>
<path d="M131.869 47.2468C131.869 42.3377 131.905 37.4255 131.842 32.5134C131.826 31.3328 132.26 31.2033 133.266 31.3328C134.357 31.4653 135.459 31.4895 136.555 31.4051C137.588 31.3268 137.775 31.7304 137.76 32.667C137.76 40.4975 137.832 48.3039 137.784 56.1223C137.784 57.4836 138.157 57.833 139.449 57.7336C140.955 57.6161 142.461 57.7577 143.967 57.6884C144.982 57.6433 145.301 58.0227 145.217 59.0015C145.107 60.2503 145.061 61.5038 145.078 62.7572C145.078 63.4649 144.777 63.5884 144.175 63.5914C140.314 63.6095 136.452 63.6215 132.591 63.7028C131.501 63.7269 131.688 63.0674 131.688 62.4349V47.2468H131.869Z" fill="white"/>
<path d="M104.905 47.298H104.604C104.604 40.2837 104.58 33.2724 104.631 26.2581C104.631 25.192 104.33 24.9269 103.3 24.942C98.09 25.0203 92.8797 25.0324 87.6694 25.0534C85.0883 25.0534 85.0763 25.0534 85.0763 27.5261C85.0763 41.0939 85.0974 54.6587 85.0763 68.2265C85.0763 69.2927 85.3775 69.5938 86.4045 69.5667C92.0605 69.4131 97.7165 69.5667 103.37 69.7806C104.659 69.8288 104.948 69.4131 104.936 68.1874C104.86 61.2243 104.905 54.2611 104.905 47.298ZM101.475 58.9745C101.349 60.2192 101.291 61.47 101.303 62.7211C101.303 63.3837 101.093 63.5824 100.445 63.5854C96.5871 63.5854 92.7291 63.6065 88.8711 63.6969C87.7477 63.721 87.9916 63.0283 87.9916 62.4229C87.9916 57.3632 87.9916 52.3045 87.9916 47.2468H88.0639C88.0639 42.2895 88.1061 37.3292 88.0278 32.3749C88.0097 31.3811 88.4344 31.1191 89.1542 31.2696C90.3589 31.5136 91.5485 31.4443 92.7321 31.3901C93.7892 31.3419 94.0573 31.6612 94.0542 32.7123C94.0181 40.4223 94.0874 48.1353 94.0241 55.8483C94.0241 57.2909 94.2621 57.9114 95.8553 57.7307C97.2888 57.568 98.7586 57.7307 100.21 57.6855C101.177 57.6554 101.593 57.9475 101.475 58.9745Z" fill="white"/>
<path d="M82.5102 47.7254C82.5102 40.8587 82.4741 33.995 82.5404 27.1282C82.5404 25.8332 82.0826 25.5411 80.914 25.538C75.4026 25.517 69.8911 25.4477 64.3797 25.3604C63.452 25.3604 63.0003 25.7459 63.1388 26.5982C63.705 30.1038 63.1087 33.5944 63.0575 37.091C62.9852 41.7983 63.3587 46.4996 63.0876 51.21C62.7503 56.7811 62.7322 62.3669 63.0334 67.9401C63.1027 69.2231 63.4792 69.8345 64.9067 69.7743C66.8523 69.6899 68.822 69.4369 70.7374 69.5785C74.2069 69.8315 77.6644 69.3978 81.1098 69.5966C82.185 69.6598 82.5464 69.3376 82.5343 68.169C82.4771 61.3535 82.5102 54.541 82.5102 47.7254ZM79.7334 32.5252C79.6559 33.7284 79.6419 34.9347 79.6913 36.1393C79.7214 36.9495 79.4082 37.1723 78.6432 37.1452C77.1885 37.097 75.7308 37.1452 74.2792 37.1211C73.5564 37.1001 73.3185 37.3681 73.3275 38.0819C73.3516 39.8347 73.3365 41.5885 73.2823 43.3434C73.2612 44.0029 73.466 44.2198 74.1256 44.2017C75.5803 44.1625 77.0349 44.2258 78.4896 44.1746C79.2034 44.1505 79.4594 44.3704 79.4413 45.0781C79.4082 46.6261 80.0256 48.6079 79.3058 49.6379C78.586 50.6679 76.4838 49.9692 75.005 49.9089C73.5263 49.8487 73.0775 50.3396 73.1709 51.7672C73.2617 53.3193 73.2487 54.8759 73.1317 56.4263C73.0564 57.5346 73.4811 57.7816 74.493 57.7123C75.7911 57.6219 77.1012 57.7123 78.4083 57.6551C79.116 57.6219 79.3811 57.8207 79.3449 58.5586C79.2666 60.1518 79.8509 62.1907 79.0709 63.2147C78.336 64.1815 76.1736 63.4647 74.6406 63.4978C72.5324 63.546 70.4242 63.4526 68.316 63.534C67.298 63.5731 67.0661 63.2328 67.0752 62.269C67.1233 57.3057 67.0962 52.3303 67.0962 47.3791H67.2408C67.2408 42.4669 67.2619 37.5548 67.2227 32.6397C67.2227 31.7091 67.3944 31.3507 68.4274 31.3778C71.8367 31.4681 75.249 31.4651 78.6673 31.441C79.4865 31.429 79.7937 31.6579 79.7334 32.5252Z" fill="white"/>
<path d="M60.6321 47.7014C60.6321 40.8377 60.602 33.974 60.6652 27.1132C60.6863 25.8453 60.2616 25.5441 59.066 25.5441C53.6087 25.5441 48.1525 25.4899 42.6973 25.3815C41.595 25.3454 41.1733 25.773 41.357 26.7639C41.8148 29.2666 41.4384 31.7573 41.357 34.251C41.1221 40.7082 41.6582 47.1683 41.1522 53.6255C41.0017 55.5108 40.8691 57.4142 40.8691 59.2965C40.8691 62.3715 41.5137 65.4314 41.3691 68.5305C41.3269 69.434 41.7636 69.7593 42.643 69.7352C48.2569 69.6689 53.8677 69.6057 59.4816 69.5996C60.5116 69.5996 60.6863 69.1961 60.6863 68.2835C60.6321 61.4319 60.6321 54.5681 60.6321 47.7014ZM51.5066 39.0035C51.6076 40.4075 51.5995 41.8172 51.4825 43.2199C51.4373 44.0301 51.7114 44.2439 52.4884 44.2108C53.8406 44.1536 55.1989 44.25 56.5482 44.1747C57.4306 44.1265 57.6716 44.4517 57.6083 45.277C57.4969 46.7647 58.2408 48.6892 57.3734 49.6349C56.506 50.5806 54.5303 49.9752 53.0546 49.912C51.6451 49.8488 51.1903 50.3005 51.2747 51.6889C51.362 53.3412 51.362 54.9969 51.2747 56.6492C51.2385 57.5256 51.5457 57.7515 52.38 57.7124C53.7804 57.6401 55.1869 57.7124 56.5964 57.6551C57.3071 57.6311 57.5752 57.8539 57.5481 58.5918C57.4969 59.941 57.5059 61.3023 57.5481 62.6486C57.5661 63.2961 57.3433 63.531 56.6897 63.525C53.1299 63.5039 49.57 63.4919 46.0102 63.525C45.0675 63.525 45.2813 62.9227 45.2783 62.4287C45.2783 57.4694 45.2783 52.5081 45.2783 47.5448H45.3717C45.3717 42.726 45.4078 37.9223 45.3476 33.1126C45.3476 31.8145 45.4891 31.3778 47.0462 31.4772C50.2868 31.6881 53.5515 31.5314 56.8042 31.4411C57.7679 31.414 58.0089 31.7121 57.9396 32.6187C57.8312 34.0583 58.3793 35.9527 57.6535 36.8351C56.8825 37.7717 54.9098 37.1845 53.4853 37.0941C51.9312 36.9887 51.356 37.4103 51.5156 39.0035H51.5066Z" fill="white"/>
<path d="M38.6077 59.3849C39.0414 55.7286 38.942 52.0001 38.8607 48.2957C38.7643 43.8052 39.0504 39.3177 38.7161 34.8182C38.5264 32.2944 39.0173 29.7284 38.9811 27.1684C38.9811 25.8403 38.4511 25.3614 37.2584 25.3433C33.4245 25.3433 29.5936 25.3433 25.7597 25.3433C23.0128 25.1056 20.2546 25.0241 17.4985 25.0994C16.6311 25.1235 16.3089 25.2801 16.3089 26.2529C16.2697 40.3237 16.5438 54.3944 16.0589 68.4592C16.0198 69.5675 16.4866 70.0012 17.5648 69.9952C21.48 69.9711 25.3953 69.9289 29.3105 69.9952C30.1026 69.9952 30.6597 69.3597 31.4187 69.5404C33.3101 69.9891 35.2406 69.8416 37.141 69.9861C38.6468 70.0976 38.948 69.5314 38.9872 68.1339C39.0625 65.2156 38.2553 62.3755 38.6077 59.3849ZM37.1621 63.3603C36.2104 62.1737 36.6832 60.6106 35.9393 59.2072C35.355 60.7522 35.6743 62.1587 36.0387 63.6796C33.9516 63.6796 31.9548 63.6796 29.961 63.6796C29.181 63.6796 28.8738 63.2037 28.675 62.4749C27.8046 59.3999 26.9011 56.337 25.9976 53.2741C25.8681 52.8283 25.8892 52.1386 25.1724 52.2591C24.5219 52.3675 24.823 52.991 24.82 53.3735C24.7929 56.4785 24.7658 59.5836 24.82 62.6887C24.8381 63.6645 24.6995 64.1735 23.5611 64.041C22.1305 63.8753 20.3235 64.6192 19.3447 63.7579C18.3147 62.8544 18.9893 61.0142 18.9773 59.5866C18.9351 54.2348 18.8538 48.883 18.655 43.5311C18.5285 40.149 18.6791 36.7517 18.6038 33.3756C18.5767 32.2703 18.905 31.68 20.0073 31.6649C23.019 31.6198 26.0729 31.421 29.0756 31.8035C31.5813 32.1257 34.4967 35.4989 34.9153 38.4504C35.3598 41.434 34.9331 44.4826 33.6865 47.2295C33.4396 47.7656 33.1474 48.4342 32.6806 48.6872C31.1748 49.5004 31.6898 50.5695 32.0783 51.6989C32.6806 53.4367 33.283 55.1835 33.9696 56.9363C34.0269 55.8491 35.4755 55.1715 34.7888 53.8644C34.6924 53.6807 34.9665 53.524 35.1683 53.4999C35.3701 53.4759 35.5839 53.5481 35.617 53.8011C35.8821 55.7919 36.2194 54.0421 36.5477 53.8222V51.8284C37.2434 52.732 37.2645 53.4216 36.8699 54.1625C36.5386 57.2375 37.2102 60.2793 37.1621 63.3603Z" fill="white"/>
<path d="M128.208 37.5309C127.681 34.6878 125.961 32.9199 123.317 31.9622C120.564 30.9653 117.73 30.8991 114.411 31.2304C113.508 31.2801 112.603 31.2721 111.701 31.2063C110.273 31.0497 109.857 31.4924 109.918 32.9802C110.171 39.3259 109.939 45.6776 110.183 52.0293C110.318 55.5169 110.153 59.0135 110.074 62.5071C110.056 63.3414 110.291 63.6666 111.165 63.6486C112.818 63.6124 114.477 63.6094 116.128 63.7209C117.128 63.7871 117.284 63.3956 117.257 62.5162C117.2 60.5616 117.239 58.6009 117.239 56.6493C117.239 53.1196 117.239 53.1527 120.724 52.8877C124.127 52.6287 126.515 50.9331 127.807 47.7196C129.163 44.3705 128.843 40.9673 128.208 37.5309ZM122.88 42.8285C121.26 43.9037 119.637 44.9819 118.004 46.042C117.251 46.5299 116.896 46.2408 116.893 45.3975C116.893 44.2982 116.893 43.199 116.893 42.0846C116.893 41.0335 116.893 39.9764 116.893 38.9344C116.893 38.0308 117.36 37.8682 118.031 38.2929C119.673 39.3409 121.284 40.4312 122.895 41.5214C123.504 41.9521 123.501 42.4099 122.88 42.8285Z" fill="white"/>
<path d="M167.703 62.0011C167.158 59.8719 166.748 57.7064 166.29 55.556C164.662 47.9263 163.039 40.2966 161.42 32.6669C161.234 31.7785 160.866 31.4803 159.945 31.5014C158.092 31.5466 156.234 31.5014 154.382 31.3749C153.436 31.3147 153.129 31.5526 152.982 32.5465C151.576 41.9531 150.132 51.3517 148.651 60.7422C148.211 63.5492 148.16 63.5401 151.021 63.4769C154.195 63.4076 154.195 63.4076 154.506 60.2754C154.762 57.7335 154.761 57.7335 157.364 57.8239C160.55 57.9353 160.55 57.9353 161.399 60.9079C162.176 63.6184 162.176 63.6184 165.013 63.6365C165.463 63.6003 165.916 63.6003 166.366 63.6365C167.832 63.8985 168.028 63.2841 167.703 62.0011ZM158.342 52.6015C155.228 52.3757 155.551 53.1738 155.933 49.9271C156.234 47.3039 156.605 44.6867 156.945 42.0665C158.095 45.2499 158.623 48.5327 159.095 51.8275C159.186 52.4148 158.933 52.6497 158.342 52.6015Z" fill="white"/>
<path d="M24.6017 41.8978C24.8427 40.9943 23.9723 39.3258 25.0414 38.7807C25.9058 38.341 26.975 39.7324 27.9267 40.3408C30.7306 42.1478 30.7155 42.1659 27.9658 43.985C27.3002 44.4277 26.6256 44.8614 25.9721 45.3252C24.9089 46.0811 24.5626 45.6685 24.5957 44.5301C24.6198 43.729 24.6017 42.9248 24.6017 41.8978Z" fill="white"/>
<path d="M34.4785 57.1677C34.6562 56.7069 34.9363 56.7792 34.9785 57.1677C35.0568 57.9387 34.9995 58.7217 34.9995 59.5409C34.8462 59.5104 34.7095 59.4244 34.6156 59.2994C34.5217 59.1743 34.4772 59.0191 34.4906 58.8633C34.6451 58.3081 34.6409 57.7207 34.4785 57.1677Z" fill="white"/>
<path d="M34.4782 57.1675C34.6763 57.4068 34.7847 57.7077 34.7847 58.0183C34.7847 58.3289 34.6763 58.6298 34.4782 58.8691C34.3172 58.3133 34.3172 57.7233 34.4782 57.1675Z" fill="white"/>
</svg>
