<svg width="200" height="95" viewBox="0 0 200 95" fill="none" xmlns="http://www.w3.org/2000/svg">
<path d="M173.638 35.9927C172.843 35.9927 172.206 35.9927 171.411 35.9927C171.411 37.1209 171.252 38.4103 170.934 39.5385C169.025 45.663 166.163 54.6886 164.413 59.8462C164.413 59.8462 164.413 59.8462 164.413 60.0073H167.912C172.683 60.0073 176.182 57.2674 176.978 53.2381C176.978 53.2381 179.204 45.9853 179.841 43.2454C180.636 39.3773 178.568 35.9927 173.638 35.9927Z" fill="white"/>
<path d="M142.465 57.106H150.735L156.461 38.8936H148.19L142.465 57.106Z" fill="white"/>
<path d="M159.483 26H120.517C114.791 26 108.111 30.9963 105.885 37.9267C103.976 43.7289 100.636 53.0769 99.8408 59.2015C99.0456 64.8425 104.612 70 110.179 70C119.563 70 138.489 70 147.873 70C153.598 70 161.551 64.5201 163.141 59.5238C164.891 54.2051 167.753 45.0183 169.662 39.2161C171.252 33.7363 167.753 26.1612 159.483 26ZM118.29 65.9707C116.223 65.9707 113.678 65.9707 111.133 65.9707C107.316 65.9707 100.159 64.8425 105.566 51.9487L109.861 38.2491C110.974 34.381 116.063 29.707 122.107 29.707C124.334 29.707 138.489 29.707 138.489 29.707L136.103 38.5714V38.8938H118.926L117.495 43.4066L114.632 52.4322L114.473 53.0769L113.201 56.9451H122.107L123.539 52.2711H118.926L121.789 43.2454H134.672L130.696 56.9451C129.264 61.9414 124.652 65.9707 118.29 65.9707ZM165.686 38.5714L159.801 57.4286C158.211 62.2637 152.485 66.1319 147.236 66.1319C145.169 66.1319 142.624 66.1319 140.079 66.1319C135.785 66.1319 129.582 64.1978 134.513 52.1099L138.807 38.4103C140.397 33.5751 145.487 29.3846 151.69 29.3846C153.916 29.3846 160.119 29.3846 160.119 29.3846C164.572 29.3846 167.117 34.2198 165.686 38.5714Z" fill="white"/>
<path d="M34.6328 47.2748H38.2909L39.5632 43.729H35.9052L34.6328 47.2748Z" fill="white"/>
<path d="M59.6027 47.2747H63.2607L64.5331 43.7289H61.0341L59.6027 47.2747Z" fill="white"/>
<path d="M31.1335 35.9927C25.7259 35.9927 23.6583 40.1832 22.8631 42.7619L20.3184 52.2711C20.0003 53.5604 20.0003 54.8498 20.4774 56.1392C21.1136 58.2344 22.8631 60.0073 26.3621 60.0073H98.2508C98.2508 59.685 98.2508 59.3626 98.4098 58.8791C99.046 53.7216 101.591 46.3077 103.499 40.5055C103.817 39.3773 104.135 38.4103 104.454 37.4432C104.613 36.9597 104.772 36.4762 104.931 35.9927C67.714 35.9927 31.1335 35.9927 31.1335 35.9927ZM37.0182 50.9817H33.5192L32.4058 54.5275H28.5887L33.3601 39.8608H40.5172C42.5848 39.8608 43.8571 41.3114 43.0619 43.5678C43.0619 43.5678 42.2667 46.3077 41.7895 47.4359C40.5172 51.1429 37.0182 50.9817 37.0182 50.9817ZM40.9943 54.5275L45.6066 39.8608H49.5828L46.2428 50.8205H49.7418L50.8552 47.2747H54.6722L52.2866 54.5275H40.9943ZM64.6921 54.6886H61.0341L61.9884 51.1429H58.6484L57.5351 54.6886H53.718L57.376 43.5678C58.0122 41.7949 59.9208 40.022 62.3064 40.022C63.2607 40.022 65.9645 40.022 65.9645 40.022C68.0321 40.022 68.9864 41.6337 68.5092 43.5678L64.6921 54.6886ZM79.8015 47.7582C79.1653 49.5311 77.4158 51.1429 75.0301 51.1429L73.9168 54.5275H70.0997L71.213 51.1429C69.1454 51.1429 68.1911 49.5311 68.6683 47.5971L71.054 40.022H74.8711L72.6444 47.2747H75.9844L78.5291 40.022H82.3462L79.8015 47.7582ZM84.0957 40.3443H89.0261L87.5947 44.696H82.5052L84.0957 40.3443ZM98.0917 47.9194L96.0241 54.6886H92.207L94.1156 48.0806H90.6166L88.708 54.6886H84.8909L86.9585 47.7582C87.5947 45.9854 89.5033 44.2125 91.889 44.2125C92.8432 44.2125 95.547 44.2125 95.547 44.2125C97.6146 44.2125 98.5689 45.9854 98.0917 47.9194Z" fill="white"/>
</svg>
