<svg width="200" height="95" viewBox="0 0 200 95" fill="none" xmlns="http://www.w3.org/2000/svg">
<path d="M103.453 22H102V73H103.453V63.1579H122V57.2303H107.698V50.4079H119.933V44.4243H107.698V37.7697H122V31.7862H103.453V22Z" fill="white"/>
<path d="M45.7343 51.0089L40.4755 42.6096L33.7063 32.1105L33.5944 32H28V63H34.2098V43.9358L38.8531 51.3957L46.3496 63H52V32H45.7343V51.0089Z" fill="white"/>
<path d="M56 63H76V57.1426H62.087V50.4011H73.9891V44.4884H62.087V37.9127H76V32H56V63Z" fill="white"/>
<path d="M79 37.9679H86.0109V63H92.0978V37.9679H99V32H79V37.9679Z" fill="white"/>
<path d="M142.734 51.0089L137.476 42.5544L130.706 32.1105L130.594 32H125V63H131.21V43.9358L135.853 51.3957L143.35 63H149V32H142.734V51.0089Z" fill="white"/>
<path d="M152 32V37.9679H158.957V63H165.043V37.9679H172V32H152Z" fill="white"/>
</svg>
