<svg width="200" height="95" viewBox="0 0 200 95" fill="none" xmlns="http://www.w3.org/2000/svg">
<g clip-path="url(#clip0_68_2008)">
<path d="M106.515 34.1835L103.369 32.5405L98.3137 35.1712L95.8944 57.6811L103.891 58.5229C103.891 58.5229 105.603 42.6666 106.515 34.1835ZM152.405 68.4625C151.549 68.2632 150.696 68.0702 149.846 67.8837L149.234 67.7546C148.584 67.6158 147.937 67.4771 147.292 67.3456L146.649 67.2164C146.013 67.0897 145.38 66.9629 144.75 66.8433L144.117 66.7262C143.486 66.6082 142.857 66.4942 142.229 66.3842L142.087 66.3579C137.672 65.5862 133.35 64.9851 129.122 64.5546L128.833 64.5283C128.448 64.4876 128.06 64.4517 127.675 64.4135L126.676 64.3202L125.549 64.2245C125.203 64.1934 124.858 64.1671 124.514 64.1408C124.17 64.1145 123.792 64.0834 123.445 64.0595C123.099 64.0356 122.694 64.0069 122.321 63.983L121.358 63.9184L119.914 63.8371L119.286 63.8036C118.604 63.7701 117.926 63.7398 117.252 63.7127L116.529 63.6888L115.174 63.6458H114.933L113.564 63.6123H113.381C111.656 63.582 109.953 63.5764 108.273 63.5955C107.909 64.7506 107.705 65.9494 107.666 67.159C110.254 67.2627 112.854 67.4301 115.465 67.6613L116.585 67.7641C117.105 67.8143 117.627 67.867 118.147 67.922L119.11 68.0248C119.924 68.1157 120.739 68.2122 121.556 68.3142L121.64 68.3261C122.507 68.4362 123.375 68.5549 124.245 68.6825L124.902 68.7686C125.574 68.869 126.247 68.9743 126.922 69.0843L127.608 69.1991C128.32 69.3187 129.033 69.4438 129.745 69.5746C133.738 70.3128 137.722 71.22 141.697 72.2962C144.737 73.1285 147.762 74.07 150.773 75.1207C157.992 76.9168 156.962 69.7444 152.405 68.4625ZM99.0503 67.0275C99.0978 65.9736 99.2249 64.9247 99.4307 63.8897C62.1303 66.0685 38 78.8803 38 78.8803C53.5605 72.3991 75.3943 67.2858 99.0503 67.0275ZM144.203 29.8643C141.062 29.8702 138.002 30.8552 135.454 32.6804C132.906 34.5056 130.998 37.0791 130 40.0382C129.748 38.2127 129.043 36.478 127.949 34.9895L130.191 32.055L123.778 27.2263L123.559 27.5157L121.197 30.6033C120.367 30.4195 119.52 30.328 118.669 30.3306C116.232 30.3515 113.867 31.1571 111.929 32.6266L110.726 25.5809L117.808 18.7241L108.003 17.3107L103.627 8.5L99.2501 17.3107L89.4622 18.7241L96.5444 25.5809L95.3047 32.7557C94.1393 30.2557 92.0913 28.2672 89.5489 27.167C87.0065 26.0668 84.1462 25.9313 81.51 26.7862C78.8737 27.641 76.6447 29.4269 75.2451 31.8054C73.8456 34.1838 73.3727 36.9897 73.9162 39.6914C73.9881 40.0538 74.0789 40.4122 74.1882 40.7652L74.2556 41.1048C73.1239 38.6022 71.4459 36.3811 69.3433 34.6024C67.2407 32.8237 64.7662 31.532 62.099 30.8209L61.7475 30.742C61.1163 30.5871 60.5454 30.2498 60.1071 29.7726C59.6688 29.2955 59.3827 28.6999 59.285 28.0612C59.1873 27.4226 59.2823 26.7695 59.5582 26.1845C59.834 25.5995 60.2782 25.1089 60.8346 24.7746C61.3911 24.4404 62.0347 24.2776 62.6843 24.3067C63.3339 24.3359 63.9601 24.5557 64.484 24.9384C65.0078 25.3211 65.4057 25.8495 65.6273 26.4568C65.849 27.0641 65.8844 27.7231 65.7291 28.3504L65.6425 28.7043L73.4468 30.6176L73.5359 30.2661C73.9564 28.5752 73.9762 26.8104 73.5939 25.1106C73.2115 23.4108 72.4374 21.8223 71.3323 20.4702C70.2273 19.118 68.8216 18.039 67.2257 17.3181C65.6298 16.5972 63.8872 16.254 62.1352 16.3156C60.3832 16.3771 58.6694 16.8418 57.1288 17.6729C55.5881 18.504 54.2626 19.679 53.2565 21.1053C52.2504 22.5317 51.5911 24.1705 51.3306 25.8929C51.0701 27.6153 51.2154 29.3742 51.755 31.0314C48.4805 32.0378 45.5487 33.9216 43.2816 36.4757C41.0146 39.0297 39.5001 42.1553 38.9046 45.5089C38.3091 48.8624 38.6556 52.3142 39.9061 55.4848C41.1566 58.6554 43.2627 61.4222 45.9929 63.4811C48.7231 65.5399 51.9717 66.8112 55.3818 67.1552C58.7919 67.4992 62.2314 66.9026 65.3224 65.431C68.4135 63.9593 71.0363 61.6696 72.9028 58.8134C74.7692 55.9572 75.8071 52.6451 75.9022 49.2411L78.2493 60.8237L86.1451 59.25L84.0074 48.6982C85.0977 48.7946 86.1963 48.7341 87.2692 48.5188C88.7279 48.2275 90.1145 47.6535 91.3499 46.8297C92.5853 46.0059 93.6452 44.9484 94.4692 43.7176C95.2931 42.4868 95.865 41.1068 96.1521 39.6564C96.4392 38.206 96.4359 36.7137 96.1424 35.2645C96.1015 35.066 96.0557 34.8723 96.0076 34.681L103.639 30.6942L110.278 34.162C108.459 36.2092 107.455 38.8455 107.454 41.576V41.6788C107.472 43.5861 107.978 45.4575 108.925 47.1169C109.871 48.7762 111.228 50.1689 112.866 51.1639C109.989 52.4291 107.495 54.4183 105.629 56.9349C105.625 56.9434 105.619 56.9514 105.613 56.9588C105.473 57.1478 105.336 57.3367 105.206 57.528C105.172 57.5759 105.141 57.6237 105.109 57.6715C105.013 57.815 104.917 57.9609 104.825 58.1068L104.676 58.346C104.606 58.4608 104.536 58.5851 104.469 58.6951C104.402 58.8051 104.363 58.8745 104.313 58.9654C104.262 59.0563 104.192 59.1854 104.134 59.2954C104.077 59.4054 104.031 59.4868 103.983 59.5824L103.814 59.9196C103.769 60.0177 103.72 60.1134 103.675 60.2114C103.629 60.3095 103.559 60.4673 103.504 60.5941C102.479 62.9375 101.95 65.465 101.949 68.02C101.948 68.6591 101.982 69.2978 102.05 69.9333V69.9883C102.064 70.1294 102.083 70.2729 102.1 70.414C102.112 70.493 102.122 70.5695 102.134 70.6532C102.151 70.7823 102.17 70.9091 102.192 71.0382C102.213 71.1674 102.23 71.2511 102.25 71.3563C102.269 71.4616 102.286 71.5644 102.305 71.6672C102.348 71.8729 102.394 72.081 102.442 72.2867C102.457 72.3488 102.473 72.411 102.49 72.4756C102.529 72.6358 102.572 72.7961 102.615 72.9539C102.632 73.0161 102.652 73.0783 102.668 73.1405C102.719 73.3079 102.77 73.4753 102.823 73.6427C102.823 73.6738 102.839 73.7025 102.851 73.7336C104.051 77.3971 106.37 80.598 109.486 82.8902C112.603 85.1824 116.361 86.452 120.238 86.522C124.115 86.592 127.918 85.459 131.116 83.2808C134.314 81.1026 136.749 77.9876 138.082 74.3698C136.136 73.8819 134.19 73.437 132.242 73.0352C132.138 73.3055 132.027 73.5733 131.905 73.8412C129.738 78.6029 124.748 82.1473 119.507 82.6567C114.864 83.1087 110.706 81.1332 107.796 77.0938C107.035 76.039 106.403 74.8982 105.913 73.6953C105.901 73.669 105.892 73.6427 105.882 73.6164C105.781 73.3629 105.687 73.107 105.598 72.8487C105.574 72.7817 105.552 72.7124 105.531 72.6454C105.456 72.4206 105.386 72.1934 105.324 71.9662C105.304 71.8992 105.285 71.8323 105.268 71.7653C105.201 71.5118 105.141 71.2583 105.085 71.0048C105.085 70.9665 105.068 70.9306 105.061 70.8923C104.999 70.5886 104.943 70.2849 104.898 69.9764C104.784 69.1994 104.727 68.4153 104.727 67.6302C104.727 66.7248 104.802 65.821 104.951 64.9277C105.194 63.4734 105.627 62.0568 106.238 60.7137C106.361 60.4434 106.479 60.1803 106.624 59.9196L106.674 59.8264C106.802 59.5872 106.937 59.348 107.076 59.1089C107.103 59.0611 107.131 59.0156 107.16 58.9678C107.293 58.7501 107.43 58.5349 107.572 58.3244L107.692 58.1498C108.527 56.9319 109.548 55.852 110.721 54.9499L114.113 59.6566L114.409 59.4461C117.297 57.3965 120.757 56.5212 123.922 57.0425C125.214 57.2432 126.452 57.7 127.562 58.3857C128.673 59.0714 129.633 59.9721 130.386 61.0341C130.581 61.3044 130.763 61.577 130.937 61.8521C133.458 62.1343 135.974 62.4651 138.486 62.8446C137.897 60.8249 136.967 58.9195 135.734 57.2099C135.638 57.076 135.537 56.9469 135.438 56.8177C137.354 58.1905 139.569 59.0938 141.903 59.4539C144.237 59.8141 146.624 59.6208 148.868 58.8899C151.113 58.159 153.151 56.9111 154.818 55.2482C156.484 53.5854 157.731 51.5545 158.457 49.3215C159.183 47.0885 159.367 44.7166 158.995 42.3994C158.622 40.0822 157.703 37.8853 156.313 35.9882C154.923 34.091 153.101 32.5473 150.996 31.483C148.891 30.4187 146.563 29.8641 144.201 29.8643H144.203ZM68.9813 51.592C66.7835 60.441 58.7914 62.7417 52.2991 61.1465C45.8067 59.5513 39.8175 53.8091 42.0177 44.9697C43.4958 39.0265 47.9371 35.0469 52.8311 33.3728C54.3121 35.8285 56.685 37.6262 59.4607 38.3951L59.8145 38.4812C62.9175 39.2442 65.5919 40.9637 67.3107 43.3219C68.1889 44.4888 68.7942 45.8354 69.0828 47.264C69.3714 48.6925 69.3359 50.1669 68.9789 51.5801L68.9813 51.592ZM87.7579 39.292C87.4261 39.7904 86.9628 40.1886 86.4186 40.4433C85.8745 40.6979 85.2704 40.7992 84.6723 40.736C84.0742 40.6728 83.505 40.4477 83.027 40.085C82.5489 39.7224 82.1802 39.2363 81.9613 38.6797L81.7326 37.5533C81.7197 37.0396 81.829 36.5302 82.0515 36.0664C82.2741 35.6026 82.6036 35.1974 83.0133 34.8839C83.423 34.5704 83.9014 34.3573 84.4096 34.2619C84.9178 34.1666 85.4415 34.1916 85.9381 34.3351C86.4347 34.4786 86.8902 34.7364 87.2677 35.0876C87.6451 35.4389 87.9339 35.8736 88.1105 36.3565C88.2871 36.8395 88.3466 37.357 88.284 37.867C88.2215 38.3771 88.0388 38.8653 87.7507 39.292H87.7579ZM121.115 43.8767C120.582 44.4143 119.879 44.7518 119.123 44.8318C118.368 44.9117 117.609 44.7291 116.974 44.3151C116.339 43.9011 115.868 43.2813 115.642 42.5612C115.415 41.8411 115.447 41.0652 115.731 40.3657C116.016 39.6662 116.536 39.0863 117.202 38.7247C117.869 38.3632 118.641 38.2424 119.387 38.3828C120.133 38.5233 120.807 38.9163 121.294 39.4951C121.781 40.0738 122.052 40.8024 122.059 41.5568C122.064 41.9861 121.983 42.4122 121.822 42.8103C121.66 43.2085 121.421 43.5709 121.118 43.8767H121.115ZM125.93 50.2719C127.395 49.0813 128.54 47.5479 129.261 45.8091C129.453 48.5245 130.395 51.1347 131.984 53.3523C130.176 51.9682 128.128 50.9242 125.942 50.2719H125.93ZM144.191 51.6494C142.818 51.648 141.477 51.2423 140.336 50.4835C139.195 49.7248 138.307 48.6471 137.782 47.3866C137.258 46.1261 137.121 44.7395 137.39 43.402C137.659 42.0645 138.321 40.8362 139.292 39.8723C140.263 38.9084 141.5 38.2522 142.847 37.9866C144.193 37.7211 145.589 37.8581 146.857 38.3804C148.125 38.9026 149.209 39.7867 149.971 40.9208C150.734 42.0549 151.141 43.3882 151.141 44.752C151.138 46.5797 150.407 48.3319 149.106 49.6248C147.806 50.9176 146.043 51.6456 144.203 51.6494H144.191ZM159.619 29.7255C159.328 29.7255 159.063 29.2927 158.832 29.0081C159.047 28.9772 159.242 28.8677 159.379 28.7012C159.517 28.5346 159.587 28.3231 159.575 28.108C159.564 27.8929 159.472 27.6899 159.317 27.5387C159.163 27.3875 158.957 27.2991 158.741 27.2909H157.665V30.0245H158.062V29.0248H158.363C158.642 29.2257 159.005 30.0723 159.542 30.0723C159.684 30.0706 159.824 30.0345 159.949 29.9671L159.906 29.6514C159.821 29.6969 159.727 29.7223 159.631 29.7255H159.619ZM158.05 28.7067V27.6496H158.642C158.713 27.6431 158.785 27.6525 158.853 27.6772C158.92 27.7018 158.981 27.7412 159.031 27.7923C159.081 27.8435 159.119 27.9051 159.142 27.9727C159.165 28.0403 159.173 28.1121 159.164 28.183C159.168 28.2524 159.158 28.3219 159.133 28.387C159.108 28.4521 159.07 28.5113 159.021 28.5607C158.972 28.6102 158.912 28.6487 158.847 28.6738C158.782 28.699 158.712 28.7102 158.642 28.7067H158.05ZM158.623 25.3776C157.956 25.3776 157.304 25.574 156.75 25.9419C156.196 26.3098 155.764 26.8327 155.509 27.4445C155.254 28.0563 155.187 28.7296 155.317 29.3791C155.447 30.0286 155.768 30.6252 156.24 31.0934C156.711 31.5617 157.311 31.8806 157.965 32.0098C158.619 32.139 159.297 32.0727 159.912 31.8192C160.528 31.5658 161.054 31.1367 161.425 30.586C161.795 30.0354 161.993 29.3881 161.993 28.7259C161.993 27.8399 161.639 26.9901 161.01 26.3625C160.381 25.7349 159.526 25.3808 158.635 25.3776H158.623ZM158.623 31.7321C158.023 31.7326 157.437 31.5564 156.938 31.2258C156.439 30.8953 156.051 30.4252 155.821 29.875C155.591 29.3249 155.531 28.7194 155.647 28.1351C155.764 27.5509 156.053 27.0141 156.476 26.5928C156.9 26.1715 157.44 25.8844 158.028 25.7681C158.616 25.6517 159.226 25.7112 159.779 25.939C160.333 26.1668 160.807 26.5528 161.14 27.048C161.473 27.5432 161.651 28.1254 161.651 28.7211C161.651 29.5172 161.334 30.2809 160.768 30.8451C160.203 31.4094 159.436 31.7283 158.635 31.7321H158.623Z" fill="white"/>
</g>
<defs>
<clipPath id="clip0_68_2008">
<rect width="124" height="78" fill="white" transform="translate(38 8.5)"/>
</clipPath>
</defs>
</svg>
