<svg width="200" height="95" viewBox="0 0 200 95" fill="none" xmlns="http://www.w3.org/2000/svg">
<path d="M41.9093 36.453L56.5758 43.3585C56.2311 43.1262 49.2561 38.3792 47.1068 34.6225C44.8967 30.7771 45.0589 27.9288 46.9243 25.1762C48.7897 22.4236 53.4127 20.6887 60.4418 21.1463C67.4709 21.604 75.2028 23.7555 81.0018 29.0285C81.0018 29.0285 76.0545 20.1423 63.4629 17.6561C50.8714 15.1698 41.1794 20.1901 35.5899 25.3333C34.1098 26.6994 33.346 27.9971 33.096 29.2402C33.2109 33.0242 41.9093 36.453 41.9093 36.453Z" fill="white"/>
<path d="M46.9243 70.83C45.0521 68.0774 44.8967 65.2292 47.1068 61.3837C49.3169 57.5382 56.5893 52.6409 56.5893 52.6409L41.9093 59.5532C41.9093 59.5532 33.2041 62.982 33.096 66.766C33.346 68.0091 34.1098 69.3068 35.5899 70.6729C41.1794 75.8161 50.8647 80.8296 63.4562 78.3433C76.0545 75.8639 81.0018 66.9777 81.0018 66.9777C75.2028 72.2507 67.4709 74.4091 60.4418 74.8599C53.4127 75.3175 48.7897 73.5895 46.9243 70.83Z" fill="white"/>
<path d="M41.9093 59.5532L56.5893 52.6409C56.5893 52.6409 60.7596 50.3869 60.7596 48.1534C60.7596 48.1056 60.7596 48.0509 60.7528 48.0031C60.7528 47.9553 60.7596 47.9007 60.7596 47.8528C60.7596 45.6193 56.5895 43.3653 56.5895 43.3653C56.5895 43.3653 56.5825 43.3585 56.5758 43.3585L41.9093 36.453C41.9093 36.453 33.211 33.0311 33.0961 29.2471C32.4 32.6828 35.6306 35.6539 38.2936 38.2016C41.8554 41.5963 43.437 44.9705 43.4099 48.0031C43.437 51.0358 41.8554 54.4099 38.2936 57.8114C35.6306 60.3523 32.3998 63.3235 33.096 66.766C33.2041 62.982 41.9093 59.5532 41.9093 59.5532Z" fill="white"/>
<path d="M68.9984 49.4989C68.9984 49.854 69.1741 50.1204 69.5256 50.2912C69.877 50.4688 70.3163 50.5576 70.857 50.5644C71.391 50.5712 71.9182 50.5439 72.4318 50.4961C72.9455 50.4415 73.4321 50.3868 73.885 50.3185C74.3446 50.2502 74.6014 50.2161 74.669 50.2161C74.7163 51.2064 74.5203 51.91 74.0877 52.3198C73.6552 52.7296 72.7833 52.9345 71.4721 52.9345C69.6675 52.9345 68.3428 52.5657 67.4912 51.8212C66.6464 51.0767 66.2206 49.7994 66.2206 47.9689C66.2206 47.0536 66.3355 46.2818 66.5653 45.6534C66.7951 45.0182 67.133 44.5401 67.5791 44.2054C68.0251 43.8775 68.5185 43.6385 69.066 43.5019C69.6134 43.3653 70.2555 43.297 70.9855 43.297C72.3845 43.297 73.4186 43.5975 74.0742 44.1986C74.7366 44.7996 75.0677 45.7559 75.0677 47.0673C75.0677 47.5727 74.9731 47.9689 74.7771 48.2762C74.5879 48.5768 74.331 48.7817 74.0269 48.8841C73.716 48.9866 73.3443 49.0617 72.9117 49.1095C72.4791 49.1574 72.0466 49.171 71.6275 49.1505C71.2017 49.13 70.7489 49.1505 70.2555 49.212C69.7689 49.2666 69.3431 49.3623 68.9984 49.4989ZM68.9105 47.7025C69.0998 47.5659 69.4174 47.4771 69.85 47.4293C70.2826 47.3815 70.6881 47.361 71.0666 47.3542C71.4451 47.3473 71.783 47.2654 72.0736 47.1151C72.3642 46.958 72.5062 46.7189 72.4994 46.3911C72.4994 46.0974 72.2696 45.8515 71.8033 45.6534C71.1612 45.3802 70.5326 45.3597 69.9243 45.5851C69.0795 45.8925 68.7416 46.596 68.9105 47.7025Z" fill="white"/>
<path d="M85.9763 46.555V52.7842C85.5843 52.8047 85.2396 52.8047 84.9625 52.7774C84.6787 52.7501 84.4151 52.6818 84.1582 52.5793C83.9014 52.4769 83.7189 52.3061 83.5973 52.0739C83.4756 51.8417 83.4283 51.548 83.435 51.1928V46.6097C83.2661 45.7764 82.4956 45.4485 81.1303 45.6193C80.4207 45.7081 80.0084 45.7764 79.8935 45.8242C79.9273 46.0154 79.9475 46.2477 79.9475 46.5072V51.1928C79.9611 51.548 79.9002 51.8417 79.7786 52.0739C79.6569 52.3061 79.4677 52.4769 79.2176 52.5793C78.9675 52.6818 78.7039 52.7501 78.4201 52.7774C78.1362 52.8047 77.7983 52.8116 77.4063 52.7842V44.4513C77.4063 43.7068 78.589 43.3106 80.9478 43.256C84.2934 43.1672 85.9696 44.2669 85.9763 46.555Z" fill="white"/>
<path d="M94.837 39.595C95.006 39.7179 95.2155 39.7999 95.4723 39.834C95.7292 39.8682 95.959 39.8887 96.1685 39.8887C96.378 39.8887 96.5808 39.9228 96.77 39.9843C96.9593 40.0458 97.108 40.196 97.2161 40.4351C97.3242 40.6741 97.3783 41.0225 97.3783 41.4801V51.5753C97.3648 51.5889 97.3107 51.6504 97.2161 51.7734C97.1215 51.8963 97.0336 51.9919 96.9525 52.0671C96.8714 52.1422 96.7295 52.2378 96.5132 52.3608C96.2969 52.4837 96.0604 52.5725 95.8035 52.6408C95.5467 52.7091 95.1952 52.7706 94.7559 52.8321C94.3166 52.8867 93.8165 52.9208 93.269 52.9208C91.532 52.9208 90.2816 52.5384 89.5247 51.7802C88.7677 51.022 88.3892 49.7584 88.3892 47.9894C88.3892 47.3063 88.4771 46.6916 88.6595 46.152C88.842 45.6124 89.0786 45.1685 89.376 44.827C89.6734 44.4854 90.0248 44.1986 90.4371 43.9732C90.8426 43.7478 91.2549 43.5838 91.6739 43.495C92.093 43.4063 92.5255 43.3584 92.9784 43.3584C93.8503 43.3584 94.4653 43.495 94.8438 43.7683V39.595H94.837ZM94.837 48.1465V45.7149C94.6883 45.6671 94.5261 45.6261 94.3572 45.5919C94.1814 45.5578 93.9651 45.5305 93.7083 45.5168C93.4515 45.4963 93.2014 45.5032 92.9716 45.5236C92.7418 45.5441 92.4985 45.6124 92.2552 45.7286C92.0051 45.8447 91.7956 45.9949 91.6131 46.1794C91.4306 46.3706 91.2887 46.6302 91.1738 46.9648C91.0589 47.2995 91.0048 47.6957 91.0048 48.1533C91.0048 48.5836 91.0724 48.9661 91.2076 49.2803C91.3428 49.6013 91.5117 49.8472 91.7077 50.018C91.9037 50.1887 92.1471 50.3185 92.4377 50.4005C92.7283 50.4824 92.9851 50.5371 93.2149 50.5576C93.4447 50.5781 93.6948 50.5712 93.9651 50.5371C94.2355 50.5098 94.4247 50.4824 94.5329 50.4619C94.641 50.4414 94.7356 50.4141 94.8303 50.3936H94.8505C94.8438 50.4073 94.8438 49.656 94.837 48.1465Z" fill="white"/>
<path d="M99.7777 48.044C99.7641 47.9757 99.7574 47.8869 99.7506 47.7708C99.7439 47.6547 99.7641 47.4361 99.8047 47.1014C99.8453 46.7736 99.9061 46.4526 100.001 46.152C100.089 45.8515 100.251 45.5168 100.474 45.148C100.697 44.786 100.981 44.4718 101.312 44.2054C101.643 43.9459 102.096 43.7204 102.657 43.5497C103.218 43.3721 103.867 43.2833 104.59 43.2833C105.097 43.2833 105.563 43.3243 105.996 43.4063C106.421 43.4882 106.793 43.5975 107.104 43.7341C107.415 43.8707 107.692 44.0415 107.935 44.2464C108.179 44.4513 108.382 44.6562 108.537 44.8543C108.692 45.0524 108.828 45.2914 108.936 45.5646C109.044 45.8378 109.125 46.0769 109.179 46.275C109.233 46.4731 109.274 46.7053 109.301 46.9785C109.321 47.2449 109.335 47.4498 109.341 47.5864C109.348 47.723 109.348 47.9006 109.341 48.1055C109.335 48.3172 109.335 48.4333 109.335 48.4538C109.335 48.6383 109.328 48.8022 109.314 48.9524C109.301 49.1027 109.267 49.3349 109.213 49.656C109.159 49.977 109.078 50.2639 108.976 50.5098C108.875 50.7625 108.713 51.0357 108.496 51.3294C108.273 51.6231 108.017 51.8758 107.719 52.0739C107.422 52.272 107.03 52.4427 106.55 52.5793C106.07 52.7159 105.529 52.7842 104.935 52.7842C104.313 52.7842 103.759 52.7433 103.272 52.6613C102.785 52.5793 102.373 52.4769 102.035 52.3471C101.697 52.2173 101.4 52.0397 101.143 51.8075C100.886 51.5821 100.683 51.3431 100.528 51.104C100.372 50.8649 100.237 50.5712 100.136 50.2161C100.034 49.8609 99.9601 49.5262 99.9061 49.1983C99.852 48.8705 99.8115 48.4948 99.7777 48.044ZM102.299 48.2011C102.332 48.5973 102.38 48.9183 102.441 49.1505C102.501 49.3828 102.616 49.615 102.779 49.8404C102.941 50.0658 103.191 50.2365 103.515 50.339C103.84 50.4415 104.259 50.4961 104.766 50.4961C105.158 50.4961 105.502 50.4346 105.779 50.3048C106.063 50.1819 106.273 50.0385 106.408 49.8745C106.543 49.7174 106.651 49.5194 106.732 49.294C106.813 49.0686 106.854 48.8978 106.868 48.7817C106.881 48.6656 106.888 48.5426 106.888 48.406C106.888 48.3924 106.888 48.3377 106.888 48.2284C106.888 48.1192 106.888 48.0304 106.888 47.9552C106.888 47.8801 106.881 47.7708 106.868 47.6205C106.854 47.4703 106.834 47.3473 106.807 47.238C106.78 47.1288 106.739 46.999 106.685 46.8556C106.631 46.7053 106.57 46.5823 106.496 46.4731C106.421 46.3638 106.327 46.2545 106.205 46.1384C106.084 46.0223 105.955 45.9335 105.806 45.8583C105.658 45.7832 105.482 45.7217 105.273 45.6807C105.063 45.6329 104.833 45.6124 104.59 45.6124C104.137 45.6124 103.752 45.6739 103.441 45.8037C103.123 45.9266 102.893 46.0769 102.745 46.2408C102.596 46.4048 102.488 46.6233 102.407 46.8897C102.326 47.1561 102.285 47.3678 102.278 47.5113C102.272 47.6615 102.278 47.8459 102.285 48.0782C102.299 48.1328 102.299 48.1806 102.299 48.2011Z" fill="white"/>
<path d="M117.945 43.2901C117.932 43.3106 117.938 43.4336 117.952 43.6521C117.972 43.8707 117.965 44.0756 117.945 44.2737C117.925 44.4718 117.878 44.6904 117.81 44.9158C117.742 45.1411 117.607 45.3256 117.398 45.4622C117.188 45.5988 116.918 45.6671 116.593 45.6671C116.12 45.6671 115.755 45.6876 115.492 45.7217C115.235 45.7559 114.998 45.8447 114.796 45.9813C114.593 46.1179 114.458 46.3091 114.39 46.5618C114.322 46.8146 114.289 47.1561 114.289 47.5864V53.0643C114.086 52.914 113.816 52.7979 113.484 52.7159C113.153 52.6271 112.869 52.5657 112.64 52.5179C112.41 52.4701 112.2 52.3403 112.024 52.1149C111.842 51.8895 111.754 51.5684 111.754 51.145V46.5618C111.754 46.4935 111.754 46.3979 111.761 46.2818C111.768 46.1589 111.788 45.9949 111.822 45.7832C111.856 45.5715 111.91 45.3597 111.991 45.148C112.072 44.9362 112.187 44.7177 112.349 44.4923C112.504 44.2669 112.7 44.062 112.923 43.8912C113.146 43.7204 113.437 43.577 113.795 43.4609C114.153 43.3448 114.545 43.2901 114.992 43.2901C115.749 43.2901 116.31 43.2901 116.668 43.2901C117.026 43.2901 117.229 43.2901 117.262 43.2901C117.296 43.2901 117.364 43.2901 117.458 43.2901C117.54 43.2901 117.709 43.2901 117.945 43.2901Z" fill="white"/>
<path d="M122.555 56.5682C122.352 56.418 122.081 56.3292 121.75 56.3018C121.419 56.2745 121.135 56.2609 120.905 56.2609C120.676 56.2609 120.466 56.1379 120.29 55.892C120.108 55.6461 120.02 55.2431 120.02 54.6831V44.5879C120.034 44.5742 120.088 44.5128 120.182 44.3898C120.277 44.2669 120.365 44.1781 120.446 44.1098C120.527 44.0415 120.669 43.9458 120.885 43.8161C121.101 43.6931 121.338 43.5907 121.595 43.5224C121.852 43.4541 122.203 43.3926 122.642 43.3311C123.082 43.2765 123.582 43.2423 124.129 43.2423C125.866 43.2423 127.117 43.6248 127.874 44.383C128.631 45.1411 129.009 46.4048 129.009 48.1738C129.009 49.0276 128.874 49.7721 128.604 50.4005C128.333 51.0289 127.968 51.507 127.509 51.8485C127.049 52.1832 126.569 52.4291 126.056 52.5862C125.542 52.7433 124.994 52.8184 124.42 52.8184C123.643 52.8184 123.021 52.7364 122.555 52.5793V56.5682ZM122.555 48.0099V50.4415C122.737 50.4961 122.933 50.5439 123.136 50.5781C123.345 50.6122 123.609 50.6395 123.92 50.6669C124.237 50.6873 124.528 50.6532 124.798 50.5644C125.069 50.4756 125.326 50.339 125.576 50.1682C125.826 49.9975 126.022 49.7243 126.171 49.3486C126.319 48.9729 126.394 48.5221 126.394 47.9962C126.394 47.5659 126.326 47.1834 126.184 46.8692C126.042 46.5482 125.88 46.3023 125.691 46.1315C125.501 45.9608 125.258 45.831 124.954 45.749C124.65 45.6602 124.393 45.6124 124.19 45.5919C123.987 45.5715 123.731 45.5851 123.426 45.6193C123.122 45.6534 122.933 45.6739 122.865 45.6876C122.798 45.7012 122.697 45.7217 122.561 45.7559H122.541C122.541 45.7559 122.541 46.5072 122.555 48.0099Z" fill="white"/>
<path d="M133.93 43.618C134.484 43.3926 135.41 43.2765 136.707 43.2765C137.343 43.2765 137.883 43.3858 138.329 43.6043C138.782 43.8229 139.107 44.0688 139.309 44.3488C139.512 44.6289 139.668 44.9499 139.776 45.3051C139.884 45.6671 139.945 45.9335 139.952 46.111C139.965 46.2886 139.965 46.4389 139.952 46.5618V52.7911C138.255 53.0165 137.41 52.4905 137.41 51.1996C137.41 50.7215 137.41 50.0931 137.41 49.3145C137.424 47.6137 137.343 46.5823 137.174 46.2067C137.005 45.8378 136.471 45.6398 135.585 45.6193C135.031 45.6193 134.477 45.7217 133.923 45.9266V51.1996C133.943 51.8826 133.734 52.3334 133.287 52.5452C132.841 52.7569 132.206 52.8389 131.381 52.7911V39.4379C131.584 39.5881 131.855 39.6769 132.186 39.7042C132.517 39.7316 132.801 39.7452 133.031 39.7452C133.26 39.7452 133.47 39.8682 133.646 40.1141C133.828 40.3599 133.916 40.7629 133.916 41.323V43.618H133.93Z" fill="white"/>
<path d="M142.783 42.3134C142.527 42.0402 142.391 41.7123 142.391 41.3367C142.391 40.961 142.527 40.64 142.79 40.3668C143.054 40.1004 143.371 39.9638 143.75 39.9638C144.122 39.9638 144.439 40.1004 144.71 40.3668C144.973 40.6332 145.108 40.9542 145.108 41.3367C145.108 41.7123 144.973 42.0334 144.71 42.3066C144.446 42.573 144.128 42.7096 143.75 42.7096C143.378 42.7096 143.054 42.5798 142.783 42.3134ZM145 44.9977C145 44.4376 144.912 44.0346 144.73 43.7888C144.547 43.5429 144.345 43.4199 144.115 43.4199C143.885 43.4199 143.601 43.4063 143.27 43.3789C142.939 43.3516 142.669 43.2628 142.466 43.1126V52.7774C143.29 52.8252 143.926 52.7433 144.372 52.5315C144.818 52.3198 145.027 51.8758 145.007 51.186V44.9977H145Z" fill="white"/>
<path d="M156.078 46.555V52.7842C155.686 52.8047 155.341 52.8047 155.064 52.7774C154.78 52.7501 154.517 52.6818 154.26 52.5793C154.003 52.4769 153.82 52.3061 153.699 52.0739C153.577 51.8417 153.53 51.548 153.537 51.1928V46.6097C153.368 45.7764 152.597 45.4485 151.232 45.6193C150.522 45.7081 150.11 45.7764 149.995 45.8242C150.029 46.0154 150.049 46.2477 150.049 46.5072V51.1928C150.063 51.548 150.002 51.8417 149.88 52.0739C149.758 52.3061 149.569 52.4769 149.319 52.5793C149.069 52.6818 148.805 52.7501 148.522 52.7774C148.238 52.8047 147.9 52.8116 147.508 52.7842V44.4513C147.508 43.7068 148.691 43.3106 151.049 43.256C154.388 43.1672 156.064 44.2669 156.078 46.555Z" fill="white"/>
<path d="M159.16 45.6876C159.16 45.6534 159.153 45.6056 159.14 45.551C159.126 45.4963 159.126 45.3802 159.133 45.2163C159.14 45.0524 159.153 44.8953 159.187 44.745C159.214 44.5947 159.275 44.4308 159.356 44.2396C159.444 44.0483 159.552 43.8912 159.694 43.7614C159.836 43.6317 160.025 43.5224 160.268 43.4267C160.512 43.338 160.795 43.2901 161.127 43.2901C161.228 43.2901 161.383 43.2901 161.6 43.2901C161.89 43.2765 162.195 43.2765 162.505 43.2901C162.816 43.3038 163.127 43.3175 163.438 43.3311C163.749 43.3516 164.053 43.3994 164.344 43.4746C164.634 43.5565 164.918 43.6521 165.182 43.7683C165.445 43.8844 165.689 44.0483 165.912 44.2532C166.135 44.465 166.324 44.704 166.486 44.9772C166.649 45.2504 166.777 45.5851 166.865 45.9881C166.953 46.3843 167 46.8351 167 47.3405V49.2325C167 49.7038 166.946 50.1273 166.845 50.5098C166.743 50.8923 166.615 51.1996 166.466 51.4455C166.311 51.6846 166.121 51.8963 165.898 52.0807C165.675 52.2651 165.459 52.3949 165.263 52.4837C165.067 52.5725 164.837 52.6408 164.58 52.6886C164.324 52.7433 164.121 52.7706 163.979 52.7842C163.837 52.7979 163.668 52.8047 163.479 52.8047H161.14C161.106 52.8047 161.052 52.8047 160.985 52.7979C160.917 52.7911 160.789 52.7774 160.606 52.7433C160.417 52.7159 160.241 52.675 160.072 52.6135C159.903 52.5588 159.714 52.4632 159.505 52.3334C159.295 52.2037 159.119 52.0466 158.971 51.869C158.822 51.6914 158.7 51.4592 158.599 51.1791C158.498 50.8923 158.443 50.5712 158.443 50.2229C158.443 49.5945 158.525 49.0686 158.68 48.6383C158.835 48.2079 159.079 47.8801 159.396 47.6479C159.721 47.4156 160.079 47.2517 160.471 47.1629C160.863 47.0741 161.343 47.0263 161.911 47.0263C162.891 47.0263 163.56 46.958 163.918 46.8282C164.276 46.6985 164.452 46.4935 164.452 46.2203C164.452 45.831 164.08 45.5715 163.344 45.4349C162.607 45.2982 161.823 45.2709 160.991 45.3461C160.167 45.4075 159.552 45.5236 159.16 45.6876ZM164.526 48.2694C164.479 48.3241 164.418 48.3924 164.33 48.4743C164.242 48.5563 164.053 48.6587 163.763 48.7885C163.472 48.9183 163.161 48.9866 162.85 48.9866C162.296 48.9866 161.85 49.0549 161.505 49.1915C161.16 49.3281 160.991 49.5194 160.991 49.7721C160.991 50.0658 161.113 50.2912 161.363 50.4415C161.613 50.5917 162.107 50.6669 162.85 50.6669C163.154 50.6669 163.391 50.6669 163.553 50.66C163.715 50.6532 163.871 50.6122 164.013 50.5302C164.155 50.4483 164.249 50.3731 164.31 50.3048C164.364 50.2365 164.411 50.0931 164.452 49.8677C164.492 49.6423 164.513 49.4306 164.52 49.2257C164.52 49.0208 164.526 48.6997 164.526 48.2694Z" fill="white"/>
</svg>
