<svg width="200" height="95" viewBox="0 0 200 95" fill="none" xmlns="http://www.w3.org/2000/svg">
<path d="M171.47 39.1668H174.479V50.3335H181V53.1668H171.47V39.1668ZM165.786 53.1668H168.795V39.1668H165.786V53.1668ZM152.411 51.0002C154.083 52.5002 156.257 53.1668 158.263 53.1668C161.272 53.1668 163.445 51.6668 163.445 48.8335C163.445 46.3335 161.774 45.3335 158.931 44.6668C156.591 44.1668 156.089 43.8335 156.089 42.8335C156.089 42.1668 156.758 41.6668 157.928 41.6668C159.099 41.6668 160.269 42.1668 161.606 43.0002L163.278 40.6668C161.941 39.5002 160.102 38.8335 158.096 38.8335C155.253 38.8335 153.247 40.5002 153.247 43.0002C153.247 45.8335 155.086 46.5002 157.928 47.3335C160.269 48.0002 160.771 48.3335 160.771 49.1668C160.771 50.0002 159.935 50.5002 158.764 50.5002C157.092 50.5002 155.922 49.8335 154.585 48.8335L152.411 51.0002ZM151.743 53.1668L145.724 39.1668H142.882L136.863 53.1668H140.04L144.387 42.8335L146.226 47.3335H143.718L142.548 50.0002H147.229L148.566 53.1668H151.743ZM114.962 39.1668C119.309 39.1668 122.318 42.1668 122.318 46.1668C122.318 50.1668 119.309 53.1668 114.962 53.1668H110.114V39.1668H114.962ZM119.142 46.1668C119.142 43.6668 117.47 42.0002 114.962 42.0002H113.291V50.5002H114.962C117.47 50.3335 119.142 48.6668 119.142 46.1668ZM103.26 45.8335V48.1668H104.764V49.6668C103.928 50.1668 102.925 50.5002 101.922 50.5002C99.4145 50.5002 97.7426 48.6668 97.7426 46.0002C97.7426 43.6668 99.5816 41.6668 101.755 41.6668C103.427 41.6668 104.263 42.1668 105.433 43.1668L107.439 40.8335C105.767 39.6668 104.263 39.0002 101.755 39.0002C97.5754 39.0002 94.399 42.3335 94.399 46.1668C94.399 50.3335 97.4083 53.3335 101.755 53.3335C104.263 53.3335 106.269 52.3335 107.774 51.1668V45.8335H103.26ZM88.046 45.8335V48.1668H89.5507V49.6668C88.7148 50.1668 87.7117 50.5002 86.7086 50.5002C84.2008 50.5002 82.529 48.6668 82.529 46.0002C82.529 43.6668 84.368 41.6668 86.5414 41.6668C88.2132 41.6668 89.0491 42.1668 90.2194 43.1668L92.2256 40.8335C90.721 39.6668 89.2163 38.8335 86.7086 38.8335C82.529 38.8335 79.3525 42.1668 79.3525 46.0002C79.3525 50.1668 82.3618 53.1668 86.7086 53.1668C89.2163 53.1668 91.2225 52.1668 92.7271 51.0002V45.6668H88.046V45.8335ZM70.9934 53.1668H74.0027V48.6668L79.3525 39.1668H75.8417L72.498 45.3335L69.1544 39.1668H65.6436L70.9934 48.6668V53.1668ZM132.684 48.1668C134.523 47.5002 135.693 46.1668 135.693 43.8335C135.693 42.5002 135.192 41.3335 134.523 40.6668C133.687 39.6668 132.182 39.1668 130.51 39.1668H124.659V53.1668H127.668V42.0002H130.343C131.848 42.0002 132.684 42.6668 132.684 44.0002C132.684 45.1668 131.848 46.0002 130.343 46.0002H128.839V48.6668H129.675L132.684 53.1668H136.027L132.684 48.1668Z" fill="white"/>
<path d="M58.1207 48.6667C57.9536 50.1667 57.7864 51.6667 57.2848 53.1667C49.9288 52.6667 43.2415 49.3333 38.5604 44.3333C33.8793 49.5 27.192 52.8333 19.8359 53.1667C19.3344 51.6667 19.1672 50.1667 19 48.6667C21.5077 48.5 23.8483 48.1667 26.0217 47.3333C24.0155 45.6667 21.8421 44.5 19.3344 43.6667C19.6687 42.1667 20.1703 40.6667 20.839 39.3333C24.517 40.5 27.8607 42.5 30.5356 45.1667C32.2074 44.1667 33.7121 42.8333 35.0495 41.5C30.5356 40.5 26.5232 38.1667 23.5139 35C24.517 33.8333 25.6873 32.6667 26.8576 31.8333C28.6966 33.8333 30.87 35.3333 33.3777 36.1667C32.3746 34 31.8731 31.6667 31.5387 29.1667C32.8762 28.6667 34.3808 28.1667 36.0526 28C36.387 31 37.2229 33.8333 38.5604 36.3333C39.8978 33.8333 40.9009 31 41.0681 28C42.5728 28.1667 44.0774 28.6667 45.582 29.1667C45.2477 31.6667 44.5789 34 43.743 36.1667C46.2508 35.3333 48.5913 33.8333 50.2632 31.8333C51.6006 32.8333 52.6037 33.8333 53.6068 35C50.5975 38.3333 46.5851 40.5 42.0712 41.3333C43.4087 42.8333 44.9133 44 46.5851 45C49.2601 42.3333 52.6037 40.3333 56.2817 39.1667C56.9505 40.5 57.452 42 57.7864 43.5C55.2786 44.3333 52.9381 45.5 51.0991 47.1667C53.2724 48 55.7802 48.5 58.1207 48.6667ZM40.9009 66.8333V60.3333L47.5882 51.6667C46.0836 51 44.7461 50.3333 43.4087 49.5L38.5604 55.8333L33.7121 49.5C32.3746 50.3333 31.0372 51.1667 29.5325 51.6667L36.2198 60.3333V66.8333C37.8916 67 39.3963 67 40.9009 66.8333Z" fill="white"/>
</svg>
