<svg width="200" height="95" viewBox="0 0 200 95" fill="none" xmlns="http://www.w3.org/2000/svg">
<path d="M49.6671 26H25.8538C25.0969 26 24.371 26.3011 23.8359 26.837C23.3007 27.373 23 28.0998 23 28.8578V66.1421C23 66.5174 23.0738 66.889 23.2172 67.2357C23.3606 67.5824 23.5709 67.8974 23.8359 68.1628C24.1009 68.4282 24.4155 68.6387 24.7617 68.7823C25.1079 68.9259 25.479 68.9998 25.8538 68.9998H49.6671C50.0425 69.0009 50.4145 68.9278 50.7617 68.7846C51.1088 68.6415 51.4244 68.4312 51.6902 68.1657C51.9561 67.9002 52.167 67.5848 52.311 67.2376C52.4549 66.8903 52.529 66.5181 52.529 66.1421V28.8578C52.529 28.4818 52.4549 28.1095 52.311 27.7623C52.167 27.415 51.9561 27.0996 51.6902 26.8342C51.4244 26.5687 51.1088 26.3584 50.7617 26.2152C50.4145 26.0721 50.0425 25.9989 49.6671 26ZM47.5171 48.9389C47.5177 50.4859 47.0214 51.992 46.1014 53.2346L42.2808 58.3911L46.7101 62.4945C46.8033 62.5818 46.8681 62.6951 46.8963 62.8197C46.9244 62.9443 46.9145 63.0745 46.8678 63.1935C46.8212 63.3124 46.74 63.4146 46.6347 63.4867C46.5294 63.5589 46.4049 63.5978 46.2773 63.5983H40.6971C40.3778 63.6 40.0696 63.4814 39.8335 63.2661L39.1479 62.6302L38.5978 62.1198L37.7645 61.34L35.6752 59.418C35.5608 59.311 35.4896 59.1657 35.4751 59.0097C35.4605 58.8537 35.5037 58.6977 35.5963 58.5714L41.5143 50.5815C42.1651 49.7027 42.5162 48.6375 42.5154 47.5435V40.8254C42.5154 38.6685 41.6882 37.7449 41.3767 37.4998C41.0167 37.2203 40.2542 36.552 37.7645 36.552C35.2747 36.552 34.5082 37.2203 34.1482 37.4998C33.8327 37.7469 33.0055 38.6685 33.0055 40.8254V47.9425C33.0055 48.5271 33.1263 49.1055 33.3601 49.6412C33.594 50.1769 33.936 50.6584 34.3646 51.0554L36.3487 52.8944C36.465 53.0014 36.5376 53.1477 36.5526 53.3052C36.5675 53.4626 36.5237 53.62 36.4296 53.7471L34.0552 56.9451C34.0021 57.0167 33.9346 57.0764 33.857 57.1203C33.7794 57.1641 33.6935 57.1911 33.6048 57.1995C33.5161 57.2079 33.4266 57.1975 33.3421 57.1691C33.2577 57.1406 33.1802 57.0946 33.1147 57.0342L30.3135 54.4377C29.5851 53.7625 29.004 52.9439 28.6065 52.0332C28.209 51.1225 28.0038 50.1394 28.0037 49.1455V38.6705C28.0037 35.6568 28.9179 34.2958 29.9696 33.3702C31.1609 32.3211 33.2906 31.3995 37.7604 31.3995C42.2302 31.3995 44.36 32.3211 45.5512 33.3702C46.6029 34.2958 47.5171 35.6568 47.5171 38.6705V48.9389Z" fill="white"/>
<path d="M174.162 38.8477V51.7693V53.187L167.35 40.8062C166.525 39.3317 165.956 38.8517 164.882 38.8517C163.808 38.8517 163.05 39.595 163.05 41.0796V43.9495V56.8711H165.459V43.9495V42.5317L172.262 54.9126C173.088 56.387 173.656 56.867 174.73 56.867C175.804 56.867 176.564 56.1237 176.564 54.6392V51.7693V38.8477H174.162Z" fill="white"/>
<path d="M126.176 38.8574H122.877L116.239 45.9562V38.8675H113.832V56.9031H116.239V49.4823L116.949 48.7228L123.059 56.893H126.182L118.613 46.9446L126.176 38.8574Z" fill="white"/>
<path d="M151.257 39.9389C149.916 39.0559 148.381 38.8574 146.868 38.8574H142.433V56.893H144.928V50.5537H146.868C148.381 50.5537 149.916 50.3512 151.257 49.4722C152.598 48.5932 153.704 47.0843 153.704 44.7066C153.704 42.3288 152.588 40.8179 151.257 39.9389ZM149.979 47.4671C149.309 47.9977 148.27 48.3259 146.868 48.3259H144.928V41.0853H146.868C148.27 41.0853 149.309 41.4134 149.979 41.944C150.398 42.2715 150.737 42.6904 150.971 43.169C151.204 43.6475 151.325 44.173 151.325 44.7056C151.325 45.2381 151.204 45.7636 150.971 46.2422C150.737 46.7207 150.398 47.1396 149.979 47.4671Z" fill="white"/>
<path d="M72.4145 54.7709C72.7296 54.3734 73.0009 53.9429 73.2235 53.4869C73.8727 52.1481 73.8687 50.6109 73.8667 49.5942V46.0458C73.8667 45.0331 73.8667 43.4919 73.2235 42.1531C72.0727 39.7794 70.0158 38.5885 67.5746 38.5845H67.5442C65.1051 38.5845 63.0481 39.7794 61.8973 42.1531C61.2481 43.4919 61.2521 45.0291 61.2542 46.0458V49.5942C61.2542 50.6068 61.2542 52.1481 61.8973 53.4869C63.0502 55.8646 65.1131 57.0555 67.5604 57.0555C68.5089 57.065 69.4476 56.8637 70.309 56.4661L72.2466 58.9998H75.6586L72.4145 54.7709ZM71.4477 49.6975C71.4477 50.5218 71.4578 51.6479 71.0432 52.4965C70.6084 53.3917 69.5708 54.7466 67.5462 54.7466C65.5217 54.7466 64.4882 53.3917 64.0574 52.4965C63.6266 51.6013 63.6529 50.3233 63.6529 49.499V46.141C63.6529 45.3167 63.6205 44.0387 64.0574 43.1435C64.4942 42.2483 65.5298 40.8934 67.5543 40.8934C69.5789 40.8934 70.6164 42.2483 71.0513 43.1435C71.4861 44.0387 71.4558 45.3167 71.4558 46.141V49.6975H71.4477Z" fill="white"/>
<path d="M103.665 41.7764C105.311 40.5328 107.19 40.4032 110.091 41.0797V39.4128C110.091 39.4128 108.655 38.5845 106.375 38.5845C104.096 38.5845 102.767 39.1738 101.709 40.1176C100.496 41.1911 99.5754 42.9106 99.3065 45.586C99.2263 46.3503 99.1898 47.1184 99.1972 47.8868C99.1898 48.6545 99.2263 49.422 99.3065 50.1856C99.5754 52.8529 100.504 54.5724 101.709 55.654C102.767 56.5957 104.08 57.1851 106.375 57.1851C108.671 57.1851 110.091 56.3568 110.091 56.3568V54.6838C107.19 55.3603 105.311 55.2307 103.665 53.9891C101.986 52.7233 101.653 50.3638 101.642 47.8868C101.632 45.4098 101.986 43.0422 103.665 41.7764Z" fill="white"/>
<path d="M135.37 40.6929C136.598 40.743 137.822 40.8695 139.035 41.0716V39.1293C137.449 38.7051 135.808 38.5275 134.168 38.6027C133.214 38.6376 132.265 38.7685 131.337 38.9936C130.014 39.3359 129.28 39.9658 128.869 40.5876C128.616 40.9716 128.455 41.4094 128.4 41.8663C128.344 42.3233 128.396 42.7869 128.55 43.2205C128.554 43.2324 128.558 43.2446 128.562 43.257C128.59 43.3359 128.62 43.4149 128.655 43.4959C129.12 44.699 129.828 45.6205 130.831 46.7102C131.907 47.8767 134.14 49.9649 135.078 51.0869C135.663 51.8059 136.351 52.7639 136.009 53.5902C135.633 54.4955 133.986 55.1234 132.018 55.0667C130.791 55.0079 129.567 54.8801 128.354 54.6839V56.6161C128.354 56.6161 129.879 57.2885 133.218 57.1548C136.557 57.0211 137.884 56.1259 138.515 55.17C138.831 54.6393 139.008 54.0375 139.03 53.4201V53.3694C139.032 53.266 139.028 53.1625 139.018 53.0596C138.97 52.134 138.78 51.4393 137.603 50.0742C136.282 48.5512 133.913 46.3031 132.848 45.1932L132.554 44.8853C131.774 44.0468 130.918 43.0018 131.317 42.0053C131.737 40.9602 133.598 40.6564 135.37 40.6929Z" fill="white"/>
<path d="M95.905 38.8574H93.4092V56.893H95.905V38.8574Z" fill="white"/>
<path d="M159.295 38.8296H156.799V56.8652H159.295V38.8296Z" fill="white"/>
<path d="M79.6608 38.8574H77.252V50.6773C77.252 52.7917 77.9639 57.1583 83.3782 57.1583C88.7925 57.1583 89.5065 52.7836 89.5065 50.6773V38.8574H87.0976V50.6773C87.0976 54.4464 84.5209 54.9203 83.3782 54.9203C82.2355 54.9203 79.6608 54.4464 79.6608 50.6773V38.8574Z" fill="white"/>
</svg>
