<svg width="213" height="56" viewBox="0 0 213 56" fill="none" xmlns="http://www.w3.org/2000/svg">
<path d="M54.7531 27.6579C54.7531 42.8494 42.5939 55.1579 27.5865 55.1579C12.5792 55.1579 0.419922 42.8494 0.419922 27.6579C0.419922 12.4664 12.5792 0.157898 27.5865 0.157898C42.5939 0.157898 54.7531 12.4664 54.7531 27.6579Z" fill="#FD3231"/>
<path d="M68.7747 28.5225C68.7747 23.843 72.2143 20.2725 76.9246 20.2725C79.7728 20.2725 82.2922 21.6918 83.6506 23.9539L80.5615 25.7725C79.8604 24.5527 78.524 23.8208 76.9246 23.8208C74.1423 23.8208 72.3458 25.7059 72.3458 28.5446C72.3458 31.3834 74.1423 33.2684 76.9246 33.2684C78.524 33.2684 79.8823 32.5366 80.5615 31.3168L83.6506 33.1354C82.3142 35.3753 79.7947 36.8168 76.9246 36.8168C72.2143 36.7946 68.7747 33.2019 68.7747 28.5225Z" fill="white"/>
<path d="M105.45 33.9781H99.6225L98.8338 36.4841H94.9121L100.258 20.6051H104.837L110.182 36.4841H106.261L105.45 33.9781ZM104.355 30.5628L102.514 24.7301L100.674 30.5628H104.355Z" fill="white"/>
<path d="M122.692 32.8692L125.781 31.0507C126.351 32.3592 127.315 33.2463 129.068 33.2463C130.776 33.2463 131.193 32.5588 131.193 31.96C131.193 30.9842 130.294 30.6071 127.95 29.9418C125.628 29.2765 123.327 28.1455 123.327 25.1071C123.327 22.0467 125.891 20.2725 128.586 20.2725C131.171 20.2725 133.186 21.5144 134.326 23.8652L131.302 25.6616C130.755 24.5305 130.032 23.8209 128.586 23.8209C127.468 23.8209 126.899 24.3975 126.899 25.0184C126.899 25.7503 127.271 26.2382 129.725 26.9922C132.091 27.7241 134.764 28.5668 134.764 31.9156C134.764 34.9761 132.354 36.7947 128.936 36.7947C125.672 36.7947 123.568 35.1979 122.692 32.8692Z" fill="white"/>
<path d="M154.393 20.5831V36.4622H150.8V20.5831H154.393Z" fill="white"/>
<path d="M184.013 20.5831V36.4622H181.318L175.272 27.8352V36.4622H171.679V20.5831H174.373L180.42 29.2102V20.5831H184.013Z" fill="white"/>
<path d="M196.063 28.5225C196.063 23.843 199.722 20.2725 204.213 20.2725C208.705 20.2725 212.363 23.8652 212.363 28.5225C212.363 33.2019 208.705 36.7725 204.213 36.7725C199.722 36.7725 196.063 33.2019 196.063 28.5225ZM208.792 28.5225C208.792 25.6838 206.777 23.7987 204.213 23.7987C201.65 23.7987 199.635 25.6838 199.635 28.5225C199.635 31.3612 201.65 33.2463 204.213 33.2463C206.777 33.2463 208.792 31.3612 208.792 28.5225Z" fill="white"/>
<path d="M34.8166 40.1442H20.3569V43.5373H34.8166V40.1442Z" fill="white"/>
<path d="M20.3569 38.747L27.5868 34.5333L34.8166 38.747V34.8438L30.9388 32.5817L34.8166 30.3196V26.3942L27.5868 30.6079L20.3569 26.3942V30.3196L24.2348 32.5817L20.3569 34.8438V38.747Z" fill="white"/>
<path d="M27.5873 11.7791C23.4247 11.7791 20.0508 15.1944 20.0508 19.4081C20.0508 23.6218 23.4247 27.0371 27.5873 27.0371C31.75 27.0371 35.1239 23.6218 35.1239 19.4081C35.1239 15.1944 31.75 11.7791 27.5873 11.7791ZM27.5873 23.644C25.2869 23.644 23.4028 21.7367 23.4028 19.4081C23.4028 17.0795 25.2869 15.1722 27.5873 15.1722C29.8878 15.1722 31.7719 17.0795 31.7719 19.4081C31.7719 21.7367 29.9097 23.644 27.5873 23.644Z" fill="white"/>
</svg>
