<svg width="283" height="175" viewBox="0 0 283 175" fill="none" xmlns="http://www.w3.org/2000/svg">
<g opacity="0.5">
<mask id="mask0_68_1861" style="mask-type:alpha" maskUnits="userSpaceOnUse" x="0" y="0" width="283" height="175">
<rect width="283" height="175" rx="10" fill="url(#paint0_linear_68_1861)"/>
</mask>
<g mask="url(#mask0_68_1861)">
<path d="M50.3903 121L48.6141 120.709L48.271 122.8H50.3903V121ZM71.0076 -4.66743V-6.46735H69.479L69.2315 -4.95883L71.0076 -4.66743ZM90.6432 -4.66743L92.4193 -4.37603L92.7625 -6.46735H90.6432V-4.66743ZM70.0259 121V122.8H71.5546L71.802 121.291L70.0259 121ZM-5.87776 89.8286L-7.65349 89.5345L-8.00031 91.6285H-5.87776V89.8286ZM-2.62562 70.1931V68.3931H-4.15195L-4.40135 69.8989L-2.62562 70.1931ZM95.5521 70.1931L97.3278 70.4872L97.6746 68.3931H95.5521V70.1931ZM92.2999 89.8286V91.6285H93.8263L94.0757 90.1227L92.2999 89.8286ZM6.21037 121L4.43419 120.709L4.09108 122.8H6.21037V121ZM26.8277 -4.66743V-6.46735H25.299L25.0515 -4.95883L26.8277 -4.66743ZM46.4632 -4.66743L48.2394 -4.37603L48.5825 -6.46735H46.4632V-4.66743ZM25.8459 121V122.8H27.3746L27.6221 121.291L25.8459 121ZM1.30149 46.1395L-0.473344 45.84L-0.827622 47.9394H1.30149V46.1395ZM4.61498 26.504V24.7041H3.09335L2.84015 26.2045L4.61498 26.504ZM102.793 26.504L104.567 26.8035L104.922 24.7041H102.793V26.504ZM99.4792 46.1395V47.9394H101.001L101.254 46.439L99.4792 46.1395ZM52.1665 121.291L72.7838 -4.37603L69.2315 -4.95883L48.6141 120.709L52.1665 121.291ZM71.0076 -2.8675H90.6432V-6.46735H71.0076V-2.8675ZM88.867 -4.95883L68.2497 120.709L71.802 121.291L92.4193 -4.37603L88.867 -4.95883ZM70.0259 119.2H50.3903V122.8H70.0259V119.2ZM-4.10202 90.1227L-0.849887 70.4872L-4.40135 69.8989L-7.65349 89.5345L-4.10202 90.1227ZM-2.62562 71.993H95.5521V68.3931H-2.62562V71.993ZM93.7763 69.8989L90.5242 89.5345L94.0757 90.1227L97.3278 70.4872L93.7763 69.8989ZM92.2999 88.0287H-5.87776V91.6285H92.2999V88.0287ZM7.98655 121.291L28.6039 -4.37603L25.0515 -4.95883L4.43419 120.709L7.98655 121.291ZM26.8277 -2.8675H46.4632V-6.46735H26.8277V-2.8675ZM44.687 -4.95883L24.0697 120.709L27.6221 121.291L48.2394 -4.37603L44.687 -4.95883ZM25.8459 119.2H6.21037V122.8H25.8459V119.2ZM3.07632 46.439L6.38981 26.8035L2.84015 26.2045L-0.473344 45.84L3.07632 46.439ZM4.61498 28.3039H102.793V24.7041H4.61498V28.3039ZM101.018 26.2045L97.7043 45.84L101.254 46.439L104.567 26.8035L101.018 26.2045ZM99.4792 44.3396H1.30149V47.9394H99.4792V44.3396ZM136.71 117.993L135.974 119.636L135.985 119.641L136.71 117.993ZM119.836 104.862L118.382 105.923L118.386 105.929L118.391 105.935L119.836 104.862ZM113.515 85.472V83.672H111.685L111.716 85.5021L113.515 85.472ZM140.269 85.472L142.066 85.3761L141.975 83.672H140.269V85.472ZM143.276 93.5716L141.863 94.6869L141.874 94.7006L141.885 94.7141L143.276 93.5716ZM150.762 98.91L150.082 100.577L150.762 98.91ZM171.993 98.6646L171.24 97.0297L171.993 98.6646ZM179.295 92.7126L180.774 93.7383L179.295 92.7126ZM179.11 75.0406L177.638 76.0759L177.647 76.089L177.657 76.102L179.11 75.0406ZM171.134 68.9045L170.424 70.5589L170.432 70.5619L171.134 68.9045ZM147.141 66.6955H145.341V68.4954H147.141V66.6955ZM147.141 47.1827V45.3827H145.341V47.1827H147.141ZM169.477 45.0964L168.742 43.4534L168.734 43.457L169.477 45.0964ZM176.717 39.3284L178.192 40.3607L178.2 40.3492L176.717 39.3284ZM177.024 22.3314L175.488 23.269L175.497 23.2843L175.507 23.2995L177.024 22.3314ZM170.765 16.6862L169.951 18.2912L169.96 18.2961L170.765 16.6862ZM151.559 16.6249L152.263 18.2816L152.272 18.2775L152.282 18.2734L151.559 16.6249ZM144.38 22.086L145.814 23.1738V23.1738L144.38 22.086ZM141.496 30.4311V32.231H143.228L143.295 30.5003L141.496 30.4311ZM116.031 30.4311L114.232 30.4006L114.201 32.231H116.031V30.4311ZM122.229 11.2864L123.685 12.3438L122.229 11.2864ZM138.428 -1.66074L139.177 -0.0241737L139.182 -0.0261955L138.428 -1.66074ZM184.326 -1.66074L185.111 -3.2807L184.326 -1.66074ZM199.482 11.1024L197.988 12.106L197.993 12.1126L197.997 12.1192L199.482 11.1024ZM204.882 29.0198L203.082 29.0087L203.082 29.0195L203.082 29.0303L204.882 29.0198ZM198.316 46.6304L197.004 45.3982L196.999 45.4043L198.316 46.6304ZM181.197 55.5891L180.877 53.8177L179.397 54.0846V55.5891H181.197ZM181.197 56.5709H179.397V58.1546L180.968 58.3562L181.197 56.5709ZM202.305 66.2046L200.982 67.4246L200.987 67.4299L200.992 67.4353L202.305 66.2046ZM209.546 85.7174L207.746 85.708L207.746 85.7178L207.746 85.7277L209.546 85.7174ZM203.348 104.801L201.908 103.721L201.903 103.728L203.348 104.801ZM186.228 117.932L185.506 116.283L186.228 117.932ZM161.193 120.918C152.237 120.918 144.329 119.379 137.435 116.346L135.985 119.641C143.408 122.907 151.823 124.518 161.193 124.518V120.918ZM137.446 116.351C130.574 113.27 125.207 109.075 121.281 103.789L118.391 105.935C122.728 111.776 128.611 116.335 135.974 119.636L137.446 116.351ZM121.29 103.801C117.43 98.5135 115.432 92.4149 115.315 85.4418L111.716 85.5021C111.844 93.1738 114.06 100.002 118.382 105.923L121.29 103.801ZM113.515 87.2719H140.269V83.672H113.515V87.2719ZM138.472 85.5678C138.654 88.9937 139.783 92.0528 141.863 94.6869L144.688 92.4563C143.086 90.427 142.211 88.0863 142.066 85.3761L138.472 85.5678ZM141.885 94.7141C143.98 97.2651 146.733 99.2107 150.082 100.577L151.441 97.2434C148.572 96.073 146.334 94.4597 144.666 92.4291L141.885 94.7141ZM150.082 100.577C153.438 101.946 157.171 102.612 161.254 102.612V99.0123C157.565 99.0123 154.303 98.4108 151.441 97.2434L150.082 100.577ZM161.254 102.612C165.517 102.612 169.361 101.858 172.745 100.299L171.24 97.0297C168.406 98.3346 165.091 99.0123 161.254 99.0123V102.612ZM172.745 100.299C176.114 98.7482 178.812 96.5669 180.774 93.7383L177.816 91.6868C176.259 93.9307 174.089 95.7174 171.24 97.0297L172.745 100.299ZM180.774 93.7383C182.757 90.8783 183.733 87.5897 183.733 83.9379H180.133C180.133 86.9132 179.35 89.4743 177.816 91.6868L180.774 93.7383ZM183.733 83.9379C183.733 80.2228 182.683 76.8809 180.564 73.9792L177.657 76.102C179.302 78.3546 180.133 80.9443 180.133 83.9379H183.733ZM180.583 74.0053C178.516 71.0657 175.566 68.8271 171.835 67.2471L170.432 70.5619C173.655 71.9272 176.023 73.7793 177.638 76.0759L180.583 74.0053ZM171.843 67.2501C168.131 65.6593 163.787 64.8955 158.861 64.8955V68.4954C163.426 68.4954 167.264 69.2043 170.424 70.5589L171.843 67.2501ZM158.861 64.8955H147.141V68.4954H158.861V64.8955ZM148.941 66.6955V47.1827H145.341V66.6955H148.941ZM147.141 48.9826H158.861V45.3827H147.141V48.9826ZM158.861 48.9826C163.079 48.9826 166.878 48.2506 170.22 46.7357L168.734 43.457C165.939 44.7239 162.662 45.3827 158.861 45.3827V48.9826ZM170.212 46.7394C173.576 45.2341 176.263 43.1168 178.192 40.3606L175.243 38.2963C173.736 40.449 171.595 42.1769 168.742 43.4534L170.212 46.7394ZM178.2 40.3492C180.144 37.5254 181.094 34.2575 181.094 30.6152H177.495C177.495 33.5999 176.727 36.1408 175.235 38.3077L178.2 40.3492ZM181.094 30.6152C181.094 27.1645 180.261 24.0588 178.542 21.3634L175.507 23.2995C176.814 25.3493 177.495 27.7661 177.495 30.6152H181.094ZM178.561 21.3939C176.9 18.6724 174.551 16.5667 171.57 15.0763L169.96 18.2961C172.38 19.5057 174.203 21.1634 175.488 23.269L178.561 21.3939ZM171.58 15.0813C168.624 13.5806 165.226 12.8614 161.438 12.8614V16.4612C164.769 16.4612 167.588 17.0919 169.951 18.2912L171.58 15.0813ZM161.438 12.8614C157.616 12.8614 154.073 13.5575 150.837 14.9764L152.282 18.2734C155.018 17.0741 158.061 16.4612 161.438 16.4612V12.8614ZM150.856 14.9681C147.607 16.3477 144.952 18.3534 142.946 20.9981L145.814 23.1738C147.408 21.0733 149.539 19.4383 152.263 18.2816L150.856 14.9681ZM142.946 20.9981C140.907 23.6865 139.833 26.8303 139.698 30.3619L143.295 30.5003C143.404 27.6503 144.254 25.2307 145.814 23.1738L142.946 20.9981ZM141.496 28.6312H116.031V32.231H141.496V28.6312ZM117.831 30.4616C117.948 23.5665 119.907 17.5486 123.685 12.3438L120.772 10.2291C116.533 16.0693 114.36 22.8145 114.232 30.4006L117.831 30.4616ZM123.685 12.3438C127.495 7.09528 132.641 2.96831 139.177 -0.0241776L137.679 -3.2973C130.634 -0.0718727 124.98 4.43262 120.772 10.2291L123.685 12.3438ZM139.182 -0.0261955C145.746 -3.05264 153.194 -4.58561 161.561 -4.58561V-8.18546C152.747 -8.18546 144.774 -6.56857 137.674 -3.29528L139.182 -0.0261955ZM161.561 -4.58561C170.016 -4.58561 177.326 -3.05085 183.542 -0.0407791L185.111 -3.2807C178.318 -6.57037 170.452 -8.18546 161.561 -8.18546V-4.58561ZM183.542 -0.0407791C189.794 2.98711 194.587 7.04239 197.988 12.106L200.976 10.0987C197.178 4.4446 191.867 -0.00885391 185.111 -3.2807L183.542 -0.0407791ZM197.997 12.1192C201.425 17.1255 203.121 22.7373 203.082 29.0087L206.682 29.0309C206.725 22.0483 204.822 15.7151 200.968 10.0856L197.997 12.1192ZM203.082 29.0303C203.121 35.6504 201.077 41.062 197.004 45.3982L199.629 47.8626C204.392 42.7901 206.725 36.4613 206.682 29.0093L203.082 29.0303ZM196.999 45.4043C192.917 49.7917 187.576 52.6105 180.877 53.8177L181.516 57.3605C188.89 56.0315 194.962 52.8778 199.634 47.8565L196.999 45.4043ZM179.397 55.5891V56.5709H182.997V55.5891H179.397ZM180.968 58.3562C189.924 59.5055 196.52 62.5849 200.982 67.4246L203.628 64.9846C198.436 59.352 190.959 56.0089 181.426 54.7856L180.968 58.3562ZM200.992 67.4353C205.513 72.2605 207.784 78.3061 207.746 85.708L211.345 85.7268C211.389 77.5021 208.833 70.5391 203.618 64.9739L200.992 67.4353ZM207.746 85.7277C207.784 92.506 205.838 98.4815 201.908 103.721L204.788 105.881C209.204 99.993 211.389 93.2464 211.345 85.7071L207.746 85.7277ZM201.903 103.728C197.984 109.005 192.543 113.2 185.506 116.283L186.951 119.581C194.476 116.283 200.449 111.724 204.793 105.874L201.903 103.728ZM185.506 116.283C178.49 119.358 170.398 120.918 161.193 120.918V124.518C170.805 124.518 179.404 122.888 186.951 119.581L185.506 116.283Z" fill="url(#paint1_linear_68_1861)"/>
</g>
</g>
<defs>
<linearGradient id="paint0_linear_68_1861" x1="57.0007" y1="-5.32319" x2="57.0007" y2="136" gradientUnits="userSpaceOnUse">
<stop stop-color="#1D1251"/>
<stop offset="1" stop-color="#130A40" stop-opacity="0"/>
</linearGradient>
<linearGradient id="paint1_linear_68_1861" x1="141.343" y1="-46" x2="141.343" y2="121" gradientUnits="userSpaceOnUse">
<stop stop-color="#B75CFF"/>
<stop offset="1" stop-color="#00FFF0"/>
</linearGradient>
</defs>
</svg>
