<svg width="283" height="175" viewBox="0 0 283 175" fill="none" xmlns="http://www.w3.org/2000/svg">
<g opacity="0.5">
<mask id="mask0_68_1845" style="mask-type:alpha" maskUnits="userSpaceOnUse" x="0" y="0" width="283" height="175">
<rect width="283" height="175" rx="10" fill="url(#paint0_linear_68_1845)"/>
</mask>
<g mask="url(#mask0_68_1845)">
<path d="M50.0476 121L48.2714 120.709L47.9283 122.8H50.0476V121ZM70.6649 -4.66743V-6.46735H69.1362L68.8887 -4.95883L70.6649 -4.66743ZM90.3004 -4.66743L92.0766 -4.37603L92.4197 -6.46735H90.3004V-4.66743ZM69.6831 121V122.8H71.2118L71.4593 121.291L69.6831 121ZM-6.22053 89.8286L-7.99626 89.5345L-8.34309 91.6285H-6.22053V89.8286ZM-2.96839 70.1931V68.3931H-4.49473L-4.74413 69.8989L-2.96839 70.1931ZM95.2093 70.1931L96.985 70.4872L97.3318 68.3931H95.2093V70.1931ZM91.9571 89.8286V91.6285H93.4835L93.7329 90.1227L91.9571 89.8286ZM5.8676 121L4.09142 120.709L3.74831 122.8H5.8676V121ZM26.4849 -4.66743V-6.46735H24.9562L24.7087 -4.95883L26.4849 -4.66743ZM46.1204 -4.66743L47.8966 -4.37603L48.2397 -6.46735H46.1204V-4.66743ZM25.5031 121V122.8H27.0318L27.2793 121.291L25.5031 121ZM0.958714 46.1395L-0.816118 45.84L-1.1704 47.9394H0.958714V46.1395ZM4.27221 26.504V24.7041H2.75057L2.49738 26.2045L4.27221 26.504ZM102.45 26.504L104.225 26.8035L104.579 24.7041H102.45V26.504ZM99.1364 46.1395V47.9394H100.658L100.911 46.439L99.1364 46.1395ZM51.8237 121.291L72.441 -4.37603L68.8887 -4.95883L48.2714 120.709L51.8237 121.291ZM70.6649 -2.8675H90.3004V-6.46735H70.6649V-2.8675ZM88.5242 -4.95883L67.9069 120.709L71.4593 121.291L92.0766 -4.37603L88.5242 -4.95883ZM69.6831 119.2H50.0476V122.8H69.6831V119.2ZM-4.4448 90.1227L-1.19266 70.4872L-4.74413 69.8989L-7.99626 89.5345L-4.4448 90.1227ZM-2.96839 71.993H95.2093V68.3931H-2.96839V71.993ZM93.4335 69.8989L90.1814 89.5345L93.7329 90.1227L96.985 70.4872L93.4335 69.8989ZM91.9571 88.0287H-6.22053V91.6285H91.9571V88.0287ZM7.64378 121.291L28.2611 -4.37603L24.7087 -4.95883L4.09142 120.709L7.64378 121.291ZM26.4849 -2.8675H46.1204V-6.46735H26.4849V-2.8675ZM44.3443 -4.95883L23.727 120.709L27.2793 121.291L47.8966 -4.37603L44.3443 -4.95883ZM25.5031 119.2H5.8676V122.8H25.5031V119.2ZM2.73354 46.439L6.04704 26.8035L2.49738 26.2045L-0.816118 45.84L2.73354 46.439ZM4.27221 28.3039H102.45V24.7041H4.27221V28.3039ZM100.675 26.2045L97.3616 45.84L100.911 46.439L104.225 26.8035L100.675 26.2045ZM99.1364 44.3396H0.958714V47.9394H99.1364V44.3396ZM169.073 -4.66743H170.873V-6.46735H169.073V-4.66743ZM169.073 121V122.8H170.873V121H169.073ZM142.503 121H140.703V122.8H142.503V121ZM142.503 20.552H144.303V18.752H142.503V20.552ZM141.767 20.552V18.752H141.249L140.811 19.0269L141.767 20.552ZM112.989 38.5921H111.189V41.8448L113.945 40.1172L112.989 38.5921ZM112.989 15.0295L112.026 13.5087L111.189 14.0387V15.0295H112.989ZM144.099 -4.66743V-6.46735H143.577L143.136 -6.18818L144.099 -4.66743ZM167.273 -4.66743V121H170.873V-4.66743H167.273ZM169.073 119.2H142.503V122.8H169.073V119.2ZM144.303 121V20.552H140.703V121H144.303ZM142.503 18.752H141.767V22.3519H142.503V18.752ZM140.811 19.0269L112.033 37.0671L113.945 40.1172L142.723 22.077L140.811 19.0269ZM114.789 38.5921V15.0295H111.189V38.5921H114.789ZM113.951 16.5502L145.062 -3.14668L143.136 -6.18818L112.026 13.5087L113.951 16.5502ZM144.099 -2.8675H169.073V-6.46735H144.099V-2.8675Z" fill="url(#paint1_linear_68_1845)"/>
</g>
</g>
<defs>
<linearGradient id="paint0_linear_68_1845" x1="57.0007" y1="-5.32319" x2="57.0007" y2="136" gradientUnits="userSpaceOnUse">
<stop stop-color="#1D1251"/>
<stop offset="1" stop-color="#130A40" stop-opacity="0"/>
</linearGradient>
<linearGradient id="paint1_linear_68_1845" x1="93" y1="-46" x2="93" y2="120.87" gradientUnits="userSpaceOnUse">
<stop stop-color="#B75CFF"/>
<stop offset="1" stop-color="#00FFF0"/>
</linearGradient>
</defs>
</svg>
