<svg width="284" height="175" viewBox="0 0 284 175" fill="none" xmlns="http://www.w3.org/2000/svg">
<g opacity="0.5">
<mask id="mask0_68_1853" style="mask-type:alpha" maskUnits="userSpaceOnUse" x="0" y="0" width="284" height="175">
<rect x="0.328613" width="283" height="175" rx="10" fill="url(#paint0_linear_68_1853)"/>
</mask>
<g mask="url(#mask0_68_1853)">
<path d="M50.0476 121L48.2714 120.709L47.9283 122.8H50.0476V121ZM70.6649 -4.66743V-6.46735H69.1362L68.8887 -4.95883L70.6649 -4.66743ZM90.3004 -4.66743L92.0766 -4.37603L92.4197 -6.46735H90.3004V-4.66743ZM69.6831 121V122.8H71.2118L71.4593 121.291L69.6831 121ZM-6.22053 89.8286L-7.99626 89.5345L-8.34309 91.6285H-6.22053V89.8286ZM-2.96839 70.1931V68.3931H-4.49473L-4.74413 69.8989L-2.96839 70.1931ZM95.2093 70.1931L96.985 70.4872L97.3318 68.3931H95.2093V70.1931ZM91.9571 89.8286V91.6285H93.4835L93.7329 90.1227L91.9571 89.8286ZM5.8676 121L4.09142 120.709L3.74831 122.8H5.8676V121ZM26.4849 -4.66743V-6.46735H24.9562L24.7087 -4.95883L26.4849 -4.66743ZM46.1204 -4.66743L47.8966 -4.37603L48.2397 -6.46735H46.1204V-4.66743ZM25.5031 121V122.8H27.0318L27.2793 121.291L25.5031 121ZM0.958714 46.1395L-0.816118 45.84L-1.1704 47.9394H0.958714V46.1395ZM4.27221 26.504V24.7041H2.75057L2.49738 26.2045L4.27221 26.504ZM102.45 26.504L104.225 26.8035L104.579 24.7041H102.45V26.504ZM99.1364 46.1395V47.9394H100.658L100.911 46.439L99.1364 46.1395ZM51.8237 121.291L72.441 -4.37603L68.8887 -4.95883L48.2714 120.709L51.8237 121.291ZM70.6649 -2.8675H90.3004V-6.46735H70.6649V-2.8675ZM88.5242 -4.95883L67.9069 120.709L71.4593 121.291L92.0766 -4.37603L88.5242 -4.95883ZM69.6831 119.2H50.0476V122.8H69.6831V119.2ZM-4.4448 90.1227L-1.19266 70.4872L-4.74413 69.8989L-7.99626 89.5345L-4.4448 90.1227ZM-2.96839 71.993H95.2093V68.3931H-2.96839V71.993ZM93.4335 69.8989L90.1814 89.5345L93.7329 90.1227L96.985 70.4872L93.4335 69.8989ZM91.9571 88.0287H-6.22053V91.6285H91.9571V88.0287ZM7.64378 121.291L28.2611 -4.37603L24.7087 -4.95883L4.09142 120.709L7.64378 121.291ZM26.4849 -2.8675H46.1204V-6.46735H26.4849V-2.8675ZM44.3443 -4.95883L23.727 120.709L27.2793 121.291L47.8966 -4.37603L44.3443 -4.95883ZM25.5031 119.2H5.8676V122.8H25.5031V119.2ZM2.73354 46.439L6.04704 26.8035L2.49738 26.2045L-0.816118 45.84L2.73354 46.439ZM4.27221 28.3039H102.45V24.7041H4.27221V28.3039ZM100.675 26.2045L97.3616 45.84L100.911 46.439L104.225 26.8035L100.675 26.2045ZM99.1364 44.3396H0.958714V47.9394H99.1364V44.3396ZM114.4 121H112.6V122.8H114.4V121ZM114.4 101.855L113.177 100.535L112.6 101.069V101.855H114.4ZM159.132 60.4366L160.355 61.7574L160.37 61.7439L160.384 61.7301L159.132 60.4366ZM168.704 50.4962L167.359 49.3003L167.35 49.3109L168.704 50.4962ZM174.656 41.8442L176.28 42.6208L176.285 42.6118L174.656 41.8442ZM174.166 23.0678L172.637 24.0176L172.643 24.028L174.166 23.0678ZM167.293 16.8703L166.479 18.4757L166.488 18.4802L166.497 18.4847L167.293 16.8703ZM140.724 23.6814L142.311 24.5307L140.724 23.6814ZM138.392 34.0514V35.8513H140.192V34.0514H138.392ZM113.173 34.0514H111.373V35.8513H113.173V34.0514ZM118.757 12.6364L120.29 13.5791L118.757 12.6364ZM134.404 -1.4153L133.607 -3.02911L134.404 -1.4153ZM181.099 -1.59938L180.322 0.0242729L180.334 0.0299034L181.099 -1.59938ZM196.746 11.5319L195.247 12.5278L196.746 11.5319ZM199.508 44.8509L197.841 44.1723L197.836 44.185L199.508 44.8509ZM189.629 60.2526L191.002 61.4157L191.006 61.4107L189.629 60.2526ZM169.564 80.4403L168.352 79.1091L168.328 79.1315L168.304 79.1548L169.564 80.4403ZM151.217 98.4191L149.957 97.1336L149.417 97.6629V98.4191H151.217ZM151.217 99.2782H149.417V101.078H151.217V99.2782ZM203.987 99.2782H205.787V97.4783H203.987V99.2782ZM203.987 121V122.8H205.787V121H203.987ZM116.2 121V101.855H112.6V121H116.2ZM115.623 103.176L160.355 61.7574L157.909 59.1159L113.177 100.535L115.623 103.176ZM160.384 61.7301C164.212 58.025 167.44 54.6746 170.059 51.6814L167.35 49.3109C164.815 52.2084 161.661 55.485 157.88 59.1432L160.384 61.7301ZM170.05 51.692C172.752 48.6517 174.842 45.629 176.28 42.6208L173.033 41.0677C171.771 43.7048 169.893 46.45 167.359 49.3003L170.05 51.692ZM176.285 42.6118C177.753 39.497 178.481 36.1449 178.481 32.5787H174.881C174.881 35.6395 174.26 38.4645 173.028 41.0767L176.285 42.6118ZM178.481 32.5787C178.481 28.6163 177.576 25.1002 175.688 22.1075L172.643 24.028C174.11 26.3533 174.881 29.1778 174.881 32.5787H178.481ZM175.695 22.118C173.836 19.1268 171.289 16.8334 168.089 15.2559L166.497 18.4847C169.106 19.7707 171.14 21.609 172.637 24.0176L175.695 22.118ZM168.107 15.2649C164.919 13.6485 161.341 12.8614 157.414 12.8614V16.4612C160.85 16.4612 163.858 17.1467 166.479 18.4757L168.107 15.2649ZM157.414 12.8614C153.323 12.8614 149.663 13.6898 146.492 15.4112L148.21 18.5749C150.766 17.1873 153.815 16.4612 157.414 16.4612V12.8614ZM146.492 15.4112C143.316 17.1354 140.855 19.6212 139.137 22.832L142.311 24.5307C143.701 21.9327 145.659 19.9596 148.21 18.5749L146.492 15.4112ZM139.137 22.832C137.415 26.0486 136.592 29.8098 136.592 34.0514H140.192C140.192 30.2751 140.923 27.123 142.311 24.5307L139.137 22.832ZM138.392 32.2515H113.173V35.8513H138.392V32.2515ZM114.973 34.0514C114.973 26.1087 116.768 19.3078 120.29 13.5791L117.223 11.6936C113.3 18.0736 111.373 25.5493 111.373 34.0514H114.973ZM120.29 13.5791C123.825 7.82891 128.779 3.37035 135.201 0.198521L133.607 -3.02911C126.611 0.42606 121.133 5.33529 117.223 11.6936L120.29 13.5791ZM135.201 0.198521C141.623 -2.97338 149.074 -4.58561 157.598 -4.58561V-8.18546C148.614 -8.18546 140.602 -6.48421 133.607 -3.02911L135.201 0.198521ZM157.598 -4.58561C166.386 -4.58561 173.944 -3.028 180.322 0.024231L181.876 -3.22298C174.919 -6.5523 166.809 -8.18546 157.598 -8.18546V-4.58561ZM180.334 0.0299034C186.776 3.05447 191.725 7.2252 195.247 12.5278L198.246 10.536C194.323 4.62996 188.84 0.0465164 181.864 -3.22866L180.334 0.0299034ZM195.247 12.5278C198.759 17.8142 200.53 23.8847 200.53 30.7993H204.13C204.13 23.2326 202.179 16.4581 198.246 10.536L195.247 12.5278ZM200.53 30.7993C200.53 35.2999 199.639 39.7539 197.841 44.1723L201.175 45.5296C203.14 40.7029 204.13 35.7891 204.13 30.7993H200.53ZM197.836 44.185C196.091 48.5649 192.926 53.5325 188.251 59.0944L191.006 61.4107C195.822 55.6822 199.242 50.382 201.18 45.5169L197.836 44.185ZM188.255 59.0895C183.58 64.6102 176.955 71.2807 168.352 79.1091L170.775 81.7716C179.435 73.8916 186.186 67.1036 191.002 61.4157L188.255 59.0895ZM168.304 79.1548L149.957 97.1336L152.476 99.7047L170.823 81.7259L168.304 79.1548ZM149.417 98.4191V99.2782H153.016V98.4191H149.417ZM151.217 101.078H203.987V97.4783H151.217V101.078ZM202.187 99.2782V121H205.787V99.2782H202.187ZM203.987 119.2H114.4V122.8H203.987V119.2Z" fill="url(#paint1_linear_68_1853)"/>
</g>
</g>
<defs>
<linearGradient id="paint0_linear_68_1853" x1="57.3293" y1="-5.32319" x2="57.3293" y2="136" gradientUnits="userSpaceOnUse">
<stop stop-color="#1D1251"/>
<stop offset="1" stop-color="#130A40" stop-opacity="0"/>
</linearGradient>
<linearGradient id="paint1_linear_68_1853" x1="120.5" y1="-46" x2="120.5" y2="121" gradientUnits="userSpaceOnUse">
<stop stop-color="#B75CFF"/>
<stop offset="1" stop-color="#00FFF0"/>
</linearGradient>
</defs>
</svg>
