<svg width="201" height="95" viewBox="0 0 201 95" fill="none" xmlns="http://www.w3.org/2000/svg">
<g clip-path="url(#clip0_68_1947)">
<path d="M73.9678 80.6302V76.1931C74.0408 74.7141 73.0193 73.4569 71.5601 73.383C71.4142 73.383 71.3412 73.383 71.1953 73.383C70.2468 73.309 69.2983 73.8267 68.7146 74.6401C68.2039 73.8267 67.3283 73.309 66.3798 73.383C65.5773 73.309 64.7747 73.7527 64.3369 74.4183V73.5309H62.8777V80.6302H64.4099V76.7108C64.264 75.8234 64.9206 74.9359 65.7961 74.862C65.8691 74.862 66.015 74.862 66.088 74.862C67.1094 74.862 67.6202 75.5276 67.6202 76.7108V80.6302H69.1524V76.7108C69.0064 75.8234 69.6631 74.9359 70.5386 74.862C70.6116 74.862 70.7575 74.862 70.8305 74.862C71.8519 74.862 72.3627 75.5276 72.3627 76.7108V80.6302H73.9678ZM96.6588 73.6048H94.1781V71.4602H92.6459V73.6048H91.2597V75.0099H92.6459V78.2638C92.6459 79.8907 93.3026 80.8521 95.0536 80.8521C95.7103 80.8521 96.367 80.6302 96.9506 80.3344L96.5129 79.0033C96.0751 79.2251 95.6373 79.373 95.1996 79.373C94.47 79.373 94.1781 78.9293 94.1781 78.1898V74.9359H96.6588V73.6048ZM109.573 73.383C108.843 73.383 108.114 73.7527 107.749 74.4183V73.5309H106.217V80.6302H107.749V76.6368C107.749 75.4536 108.26 74.788 109.208 74.788C109.5 74.788 109.865 74.862 110.157 74.9359L110.594 73.4569C110.303 73.4569 109.938 73.383 109.573 73.383ZM90.0193 74.1225C89.1438 73.6048 88.1953 73.383 87.1738 73.383C85.4227 73.383 84.2554 74.2704 84.2554 75.6755C84.2554 76.8587 85.1309 77.5242 86.6631 77.7461L87.3927 77.82C88.1953 77.968 88.633 78.1898 88.633 78.5596C88.633 79.0772 88.0494 79.447 87.0279 79.447C86.2253 79.447 85.3498 79.2251 84.6931 78.7075L83.9635 79.8907C84.8391 80.4823 85.9335 80.8521 86.9549 80.7781C88.9979 80.7781 90.1652 79.8167 90.1652 78.4856C90.1652 77.1545 89.2167 76.5629 87.7575 76.341L87.0279 76.2671C86.3712 76.1931 85.8605 76.0452 85.8605 75.6015C85.8605 75.1578 86.3712 74.788 87.1738 74.788C87.9764 74.788 88.706 75.0099 89.3627 75.3796L90.0193 74.1225ZM130.659 73.383C129.929 73.383 129.2 73.7527 128.835 74.4183V73.5309H127.303V80.6302H128.835V76.6368C128.835 75.4536 129.345 74.788 130.294 74.788C130.586 74.788 130.951 74.862 131.242 74.9359L131.68 73.4569C131.388 73.4569 131.024 73.383 130.659 73.383ZM111.105 77.0805C111.032 79.0772 112.564 80.7042 114.461 80.7781C114.607 80.7781 114.68 80.7781 114.826 80.7781C115.702 80.8521 116.65 80.5562 117.307 79.9646L116.577 78.7075C116.067 79.0772 115.41 79.2991 114.753 79.373C113.513 79.2991 112.637 78.1898 112.71 76.9326C112.783 75.8234 113.659 74.9359 114.753 74.862C115.41 74.862 116.067 75.0838 116.577 75.5275L117.307 74.2704C116.577 73.6788 115.702 73.383 114.826 73.4569C112.856 73.309 111.251 74.862 111.105 76.7847C111.105 76.8587 111.105 76.9326 111.105 77.0805ZM125.333 77.0805V73.5309H123.8V74.4183C123.29 73.7527 122.487 73.383 121.612 73.383C119.569 73.383 117.964 75.0099 117.964 77.0805C117.964 79.1512 119.569 80.7781 121.612 80.7781C122.487 80.7781 123.29 80.4083 123.8 79.7428V80.6302H125.333V77.0805ZM119.642 77.0805C119.715 75.8973 120.736 75.0099 121.903 75.0838C123.071 75.1578 123.946 76.1931 123.873 77.3763C123.8 78.4856 122.925 79.373 121.758 79.373C120.59 79.373 119.642 78.4856 119.642 77.3024C119.642 77.2284 119.642 77.1545 119.642 77.0805ZM101.328 73.383C99.2854 73.383 97.6803 75.0838 97.7532 77.1545C97.8262 79.2251 99.4313 80.8521 101.474 80.7781C102.496 80.8521 103.59 80.4823 104.393 79.8167L103.663 78.7075C103.079 79.1512 102.35 79.447 101.62 79.447C100.599 79.5209 99.6502 78.7814 99.5043 77.7461H104.685C104.685 77.5242 104.685 77.3763 104.685 77.1545C104.685 74.862 103.298 73.383 101.328 73.383ZM101.328 74.788C102.277 74.788 103.079 75.5276 103.079 76.4889H99.4313C99.5043 75.5276 100.38 74.7141 101.328 74.788ZM139.341 77.0805V70.7207H137.882V74.4183C137.371 73.7527 136.569 73.383 135.693 73.383C133.65 73.383 132.045 75.0099 132.045 77.0805C132.045 79.1512 133.65 80.7781 135.693 80.7781C136.569 80.7781 137.371 80.4083 137.882 79.7428V80.6302H139.341V77.0805ZM141.895 79.5949C141.968 79.5949 142.114 79.5949 142.187 79.6688C142.26 79.6688 142.333 79.7428 142.406 79.8167C142.479 79.8907 142.551 79.9646 142.551 80.0386C142.624 80.1865 142.624 80.4083 142.551 80.5563C142.479 80.6302 142.479 80.7042 142.406 80.7781C142.333 80.8521 142.26 80.926 142.187 80.926C142.114 81 142.041 81 141.895 81C141.603 81 141.384 80.8521 141.238 80.5563C141.165 80.4083 141.165 80.1865 141.238 80.0386C141.311 79.9646 141.311 79.8907 141.384 79.8167C141.457 79.7428 141.53 79.6688 141.603 79.6688C141.749 79.5949 141.822 79.5949 141.895 79.5949ZM141.895 80.8521C141.968 80.8521 142.041 80.8521 142.114 80.7781C142.187 80.7781 142.26 80.7042 142.26 80.6302C142.479 80.4083 142.479 80.1125 142.26 79.8907C142.187 79.8167 142.187 79.8167 142.114 79.7428C142.041 79.7428 141.968 79.6688 141.895 79.6688C141.822 79.6688 141.749 79.6688 141.676 79.7428C141.603 79.7428 141.53 79.8167 141.53 79.8907C141.311 80.1125 141.311 80.4083 141.53 80.6302C141.603 80.7042 141.676 80.7042 141.676 80.7781C141.749 80.8521 141.822 80.8521 141.895 80.8521ZM141.968 79.9646C142.041 79.9646 142.114 79.9646 142.187 80.0386C142.26 80.1125 142.26 80.1125 142.26 80.1865C142.26 80.2604 142.26 80.2604 142.187 80.3344C142.114 80.4083 142.114 80.4083 142.041 80.4083L142.26 80.6302H142.114L141.895 80.4083H141.822V80.6302H141.676V79.9646H141.968ZM141.822 80.1125V80.2604H141.968H142.041V80.1865V80.1125H141.968H141.822ZM133.796 77.0805C133.869 75.8973 134.891 75.0099 136.058 75.0838C137.225 75.1578 138.101 76.1931 138.028 77.3763C137.955 78.4856 137.079 79.373 135.912 79.373C134.745 79.373 133.796 78.4856 133.796 77.3024C133.723 77.2284 133.796 77.1545 133.796 77.0805ZM82.5043 77.0805V73.5309H80.9721V74.4183C80.4614 73.7527 79.6588 73.383 78.7833 73.383C76.7403 73.383 75.1352 75.0099 75.1352 77.0805C75.1352 79.1512 76.7403 80.7781 78.7833 80.7781C79.6588 80.7781 80.4614 80.4083 80.9721 79.7428V80.6302H82.5043V77.0805ZM76.8863 77.0805C76.9592 75.8973 77.9807 75.0099 79.1481 75.0838C80.3155 75.1578 81.191 76.1931 81.118 77.3763C81.0451 78.4856 80.1695 79.373 79.0021 79.373C77.8348 79.373 76.8863 78.4856 76.8863 77.3024C76.8863 77.2284 76.8863 77.1545 76.8863 77.0805Z" fill="white"/>
<path d="M112.491 19.6942H89.5085V61.5507H112.491V19.6942Z" fill="#8B8B8B"/>
<path d="M90.9668 40.6216C90.9668 32.4869 94.6878 24.722 101.035 19.6933C89.5805 10.5973 73.0913 12.594 64.117 24.2044C55.1428 35.8147 57.1127 52.4538 68.5677 61.5499C78.1256 69.1668 91.4775 69.1668 101.035 61.5499C94.6878 56.5212 90.9668 48.8302 90.9668 40.6216Z" fill="#696969"/>
<path d="M143.5 40.6226C143.5 55.3389 131.753 67.2451 117.234 67.2451C111.324 67.2451 105.633 65.2484 101.036 61.5508C112.418 52.4548 114.388 35.7418 105.414 24.2053C104.101 22.5045 102.642 21.0254 100.964 19.6943C112.345 10.5983 128.908 12.595 137.882 24.2053C141.53 28.8643 143.5 34.6325 143.5 40.6226Z" fill="#A3A3A3"/>
<path d="M141.019 57.1137V56.2263H141.384V56.0784H140.509V56.2263H140.873V57.1137H141.019ZM142.698 57.1137V56.0784H142.406L142.114 56.8179L141.822 56.0784H141.603V57.1137H141.822V56.3742L142.114 57.0397H142.333L142.625 56.3742V57.1876L142.698 57.1137Z" fill="#878787"/>
</g>
<defs>
<clipPath id="clip0_68_1947">
<rect width="85" height="67" fill="white" transform="translate(58.5 14)"/>
</clipPath>
</defs>
</svg>
