<svg width="266" height="308" viewBox="0 0 266 308" fill="none" xmlns="http://www.w3.org/2000/svg">
<g opacity="0.2">
<path d="M106.5 196.558C79.9975 196.558 58.4424 175.002 58.4424 148.5C58.4424 121.997 79.9975 100.442 106.5 100.442C133.002 100.442 154.558 121.997 154.558 148.5C154.558 175.002 133.002 196.558 106.5 196.558ZM106.5 111.598C86.1575 111.598 69.5983 128.148 69.5983 148.5C69.5983 168.852 86.1478 185.402 106.5 185.402C126.852 185.402 143.402 168.852 143.402 148.5C143.402 128.148 126.842 111.598 106.5 111.598Z" fill="url(#paint0_linear_68_1025)"/>
<path d="M106.499 212.477C71.2178 212.477 42.5229 183.782 42.5229 148.5C42.5229 113.218 71.2178 84.5234 106.499 84.5234C141.781 84.5234 170.476 113.218 170.476 148.5C170.476 183.782 141.771 212.477 106.499 212.477ZM106.499 94.2242C76.5726 94.2242 52.2237 118.573 52.2237 148.5C52.2237 178.427 76.5726 202.776 106.499 202.776C136.426 202.776 160.775 178.427 160.775 148.5C160.775 118.573 136.426 94.2242 106.499 94.2242Z" fill="url(#paint1_linear_68_1025)"/>
<path d="M106.5 228.396C62.4488 228.396 26.6045 192.551 26.6045 148.5C26.6045 104.449 62.4391 68.6045 106.5 68.6045C150.561 68.6045 186.396 104.449 186.396 148.5C186.396 192.551 150.551 228.396 106.5 228.396ZM106.5 76.8501C66.9888 76.8501 34.8501 108.989 34.8501 148.5C34.8501 188.011 66.9888 220.15 106.5 220.15C146.011 220.15 178.15 188.011 178.15 148.5C178.15 108.989 146.011 76.8501 106.5 76.8501Z" fill="url(#paint2_linear_68_1025)"/>
<path d="M106.5 244.314C53.6696 244.314 10.6855 201.33 10.6855 148.5C10.6855 95.6696 53.6696 52.6855 106.5 52.6855C159.33 52.6855 202.314 95.6696 202.314 148.5C202.314 201.33 159.33 244.314 106.5 244.314ZM106.5 59.4761C57.4141 59.4761 17.4761 99.4141 17.4761 148.5C17.4761 197.586 57.4141 237.524 106.5 237.524C155.586 237.524 195.524 197.586 195.524 148.5C195.524 99.4044 155.586 59.4761 106.5 59.4761Z" fill="url(#paint3_linear_68_1025)"/>
<path d="M106.5 260.233C44.8905 260.233 -5.2334 210.11 -5.2334 148.5C-5.2334 86.8904 44.8905 36.7665 106.5 36.7665C168.11 36.7665 218.233 86.8904 218.233 148.5C218.233 210.11 168.11 260.233 106.5 260.233ZM106.5 42.0923C47.8298 42.0923 0.102024 89.82 0.102024 148.49C0.102024 207.161 47.8298 254.888 106.5 254.888C165.17 254.888 212.898 207.17 212.898 148.5C212.898 89.8297 165.17 42.0923 106.5 42.0923Z" fill="url(#paint4_linear_68_1025)"/>
<path d="M106.499 276.152C36.1107 276.152 -21.1626 218.889 -21.1626 148.49C-21.1626 78.1015 36.101 20.8281 106.499 20.8281C176.898 20.8281 234.162 78.0918 234.162 148.49C234.152 218.889 176.888 276.152 106.499 276.152ZM106.499 24.7181C38.2449 24.7181 -17.2823 80.2453 -17.2823 148.5C-17.2823 216.754 38.2449 272.282 106.499 272.282C174.754 272.282 230.281 216.754 230.281 148.5C230.281 80.2453 174.754 24.7181 106.499 24.7181Z" fill="url(#paint5_linear_68_1025)"/>
<path d="M106.5 292.081C27.332 292.081 -37.0811 227.668 -37.0811 148.5C-37.0811 69.332 27.332 4.91895 106.5 4.91895C185.668 4.91895 250.081 69.332 250.081 148.5C250.081 227.668 185.668 292.081 106.5 292.081ZM106.5 7.34414C28.6707 7.34414 -34.6559 70.661 -34.6559 148.5C-34.6559 226.329 28.661 289.656 106.5 289.656C184.329 289.656 247.656 226.339 247.656 148.5C247.656 70.6707 184.329 7.34414 106.5 7.34414Z" fill="url(#paint6_linear_68_1025)"/>
<path d="M106.5 308C18.5528 308 -53 236.447 -53 148.5C-53 60.5528 18.5528 -11 106.5 -11C194.447 -11 266 60.5528 266 148.5C266 236.447 194.447 308 106.5 308ZM106.5 -10.0299C19.0864 -10.0299 -52.0299 61.0864 -52.0299 148.5C-52.0299 235.914 19.0864 307.03 106.5 307.03C193.914 307.03 265.03 235.914 265.03 148.5C265.03 61.0864 193.914 -10.0299 106.5 -10.0299Z" fill="url(#paint7_linear_68_1025)"/>
</g>
<defs>
<linearGradient id="paint0_linear_68_1025" x1="106.5" y1="100.442" x2="106.5" y2="196.558" gradientUnits="userSpaceOnUse">
<stop stop-color="#B75CFF"/>
<stop offset="1" stop-color="#00FFF0"/>
</linearGradient>
<linearGradient id="paint1_linear_68_1025" x1="106.499" y1="84.5234" x2="106.499" y2="212.477" gradientUnits="userSpaceOnUse">
<stop stop-color="#B75CFF"/>
<stop offset="1" stop-color="#00FFF0"/>
</linearGradient>
<linearGradient id="paint2_linear_68_1025" x1="106.5" y1="68.6045" x2="106.5" y2="228.396" gradientUnits="userSpaceOnUse">
<stop stop-color="#B75CFF"/>
<stop offset="1" stop-color="#00FFF0"/>
</linearGradient>
<linearGradient id="paint3_linear_68_1025" x1="106.5" y1="52.6855" x2="106.5" y2="244.314" gradientUnits="userSpaceOnUse">
<stop stop-color="#B75CFF"/>
<stop offset="1" stop-color="#00FFF0"/>
</linearGradient>
<linearGradient id="paint4_linear_68_1025" x1="106.5" y1="36.7665" x2="106.5" y2="260.233" gradientUnits="userSpaceOnUse">
<stop stop-color="#B75CFF"/>
<stop offset="1" stop-color="#00FFF0"/>
</linearGradient>
<linearGradient id="paint5_linear_68_1025" x1="106.499" y1="20.8281" x2="106.499" y2="276.152" gradientUnits="userSpaceOnUse">
<stop stop-color="#B75CFF"/>
<stop offset="1" stop-color="#00FFF0"/>
</linearGradient>
<linearGradient id="paint6_linear_68_1025" x1="106.5" y1="4.91895" x2="106.5" y2="292.081" gradientUnits="userSpaceOnUse">
<stop stop-color="#B75CFF"/>
<stop offset="1" stop-color="#00FFF0"/>
</linearGradient>
<linearGradient id="paint7_linear_68_1025" x1="106.5" y1="-11" x2="106.5" y2="308" gradientUnits="userSpaceOnUse">
<stop stop-color="#B75CFF"/>
<stop offset="1" stop-color="#00FFF0"/>
</linearGradient>
</defs>
</svg>
