<svg width="201" height="95" viewBox="0 0 201 95" fill="none" xmlns="http://www.w3.org/2000/svg">
<path d="M173.713 36.8822C171.788 35.6274 168.849 35 164.999 35H154.916L151.167 54.3533H137.993L138.855 49.9614H146.809L147.772 45.0386H139.817L140.679 40.6467H148.836L149.951 35H133.332L129.785 53.3398H123.705L127.303 35H118.639L115.092 53.3398H109.164L112.66 35H103.996L100.247 54.3533H86.972L87.8333 49.9614H95.788L96.7507 45.0386H88.796L89.6573 40.6467H97.916L98.9293 35H47.148L44.2093 50.3475L38.3827 35H29.364L24.5 60H33.1133L36.052 44.2664L41.7267 60H72.5827L76.332 40.6467H81.1453L77.396 60H158.513L160.844 47.7896L164.644 60H173.257L169.305 50.0097L170.217 49.8166C172.193 49.4305 173.764 48.5618 174.828 47.2104C175.892 45.9073 176.449 44.2181 176.449 42.1429C176.5 39.8745 175.588 38.1371 173.713 36.8822ZM65.084 54.3533H51.9107L52.772 49.9614H61.0307L61.9427 45.0386H53.7853L54.596 40.695H67.7693L65.084 54.3533ZM166.62 45.9073C165.759 46.4865 164.492 46.7761 162.769 46.7761H161.047L162.364 40.0676H163.631C165.049 40.0676 166.113 40.3089 166.823 40.7432C167.38 41.0811 168.039 41.7568 168.039 43.0598C168.039 44.6525 167.279 45.473 166.62 45.9073Z" fill="white"/>
</svg>
