<svg width="575" height="181" viewBox="0 0 575 181" fill="none" xmlns="http://www.w3.org/2000/svg">
<g opacity="0.5">
<mask id="mask0_68_1893" style="mask-type:alpha" maskUnits="userSpaceOnUse" x="0" y="0" width="575" height="583">
<rect width="574.271" height="582.868" fill="url(#paint0_linear_68_1893)"/>
</mask>
<g mask="url(#mask0_68_1893)">
<path fill-rule="evenodd" clip-rule="evenodd" d="M574.272 287.566C574.272 129.952 446.039 1.71935 288.425 1.71934C130.812 1.71932 2.57914 129.952 2.57913 287.566C2.57911 445.179 130.812 573.412 288.425 573.412C446.039 573.412 574.272 445.179 574.272 287.566ZM572.533 287.566C572.533 444.223 445.083 571.673 288.425 571.673C131.768 571.673 4.31764 444.223 4.31765 287.566C4.31767 130.908 131.768 3.45785 288.425 3.45786C445.083 3.45787 572.533 130.908 572.533 287.566ZM288.426 30.2487C430.306 30.2487 545.743 145.686 545.743 287.566C545.743 429.446 430.305 544.883 288.425 544.883C146.545 544.883 31.1082 429.446 31.1082 287.566C31.1083 145.686 146.546 30.2487 288.426 30.2487ZM288.425 540.537C427.906 540.537 541.396 427.064 541.396 287.566C541.396 148.085 427.924 34.595 288.426 34.595C148.945 34.595 35.4546 148.068 35.4546 287.566C35.4545 427.047 148.945 540.537 288.425 540.537ZM517.214 287.583C517.214 161.419 414.572 58.7949 288.426 58.7949C162.279 58.7949 59.6551 161.419 59.6377 287.583C59.6377 413.747 162.262 516.371 288.426 516.371C414.59 516.371 517.214 413.73 517.214 287.583ZM510.26 287.566C510.26 409.888 410.748 509.4 288.426 509.4C166.104 509.4 66.5918 409.887 66.5918 287.566C66.5918 165.244 166.104 65.7316 288.426 65.7316C410.748 65.7316 510.26 165.244 510.26 287.566ZM288.425 87.3236C398.838 87.3237 488.667 177.153 488.667 287.566C488.667 397.979 398.838 487.807 288.425 487.807C178.012 487.807 88.1834 397.979 88.1834 287.566C88.1834 177.153 178.012 87.3236 288.425 87.3236ZM288.425 478.263C393.571 478.263 479.105 392.728 479.105 287.583C479.105 182.438 393.571 96.9029 288.425 96.9029C183.28 96.9029 97.7452 182.42 97.7451 287.566C97.7451 392.711 183.28 478.263 288.425 478.263ZM460.138 287.566C460.138 192.886 383.105 115.853 288.425 115.853C193.746 115.853 116.712 192.886 116.712 287.566C116.712 382.245 193.746 459.279 288.425 459.279C383.105 459.279 460.138 382.245 460.138 287.566ZM447.969 287.566C447.969 375.535 376.394 447.109 288.425 447.109C200.457 447.109 128.882 375.552 128.882 287.566C128.882 199.597 200.457 128.023 288.425 128.023C376.394 128.023 447.969 199.597 447.969 287.566ZM288.425 144.381C367.371 144.381 431.609 208.62 431.609 287.565C431.609 366.511 367.389 430.749 288.425 430.749C209.462 430.749 145.242 366.511 145.242 287.565C145.242 208.619 209.48 144.381 288.425 144.381ZM288.425 415.972C359.235 415.972 416.832 358.375 416.832 287.565C416.832 216.756 359.235 159.159 288.425 159.159C217.616 159.159 160.019 216.756 160.019 287.565C160.019 358.375 217.616 415.972 288.425 415.972ZM403.081 287.566C403.081 224.336 351.656 172.911 288.426 172.911C225.214 172.911 173.771 224.336 173.771 287.566C173.771 350.795 225.196 402.221 288.426 402.221C351.656 402.221 403.081 350.795 403.081 287.566ZM385.696 287.566C385.696 341.199 342.059 384.835 288.426 384.835C234.793 384.835 191.156 341.199 191.156 287.566C191.156 233.933 234.793 190.296 288.426 190.296C342.059 190.296 385.696 233.933 385.696 287.566ZM288.425 201.44C335.922 201.44 374.551 240.07 374.551 287.566C374.551 335.062 335.922 373.692 288.425 373.692C240.929 373.692 202.3 335.062 202.3 287.566C202.3 240.07 240.929 201.44 288.425 201.44ZM288.425 353.699C324.882 353.699 354.558 324.04 354.558 287.566C354.558 251.092 324.899 221.433 288.425 221.433C251.951 221.433 222.292 251.092 222.292 287.566C222.292 324.04 251.969 353.699 288.425 353.699ZM288.425 229.968C320.188 229.968 346.022 255.803 346.022 287.565C346.022 319.328 320.188 345.162 288.425 345.162C256.663 345.162 230.828 319.328 230.828 287.565C230.828 255.803 256.663 229.968 288.425 229.968ZM288.425 322.562C307.723 322.562 323.422 306.863 323.422 287.565C323.422 268.268 307.723 252.569 288.425 252.569C269.128 252.569 253.429 268.268 253.429 287.565C253.429 306.863 269.128 322.562 288.425 322.562Z" fill="url(#paint1_linear_68_1893)"/>
</g>
</g>
<defs>
<linearGradient id="paint0_linear_68_1893" x1="152.675" y1="213.828" x2="619.806" y2="213.828" gradientUnits="userSpaceOnUse">
<stop stop-color="#C4C4C4"/>
<stop offset="1" stop-color="#C4C4C4" stop-opacity="0"/>
</linearGradient>
<linearGradient id="paint1_linear_68_1893" x1="512.177" y1="444.89" x2="223.855" y2="25.6556" gradientUnits="userSpaceOnUse">
<stop stop-color="#FF1C52"/>
<stop offset="1" stop-color="#00B2FF"/>
</linearGradient>
</defs>
</svg>
