<svg width="201" height="95" viewBox="0 0 201 95" fill="none" xmlns="http://www.w3.org/2000/svg">
<path d="M44.1985 46.4012C44.1811 45.7897 43.8858 45.4751 43.33 45.4577H40.3426C39.6304 45.4926 39.2657 45.8945 39.2483 46.6283V52.0273C39.2657 52.7786 39.6652 53.163 40.4468 53.1979H43.1737C43.4516 53.1979 43.6948 53.0931 43.8858 52.8834C44.0769 52.7262 44.1811 52.5165 44.1811 52.2544V46.4012H44.1985ZM35.4271 45.6324C35.4445 44.287 35.7398 43.2562 36.3303 42.5573C36.6256 42.2602 37.0077 42.0156 37.4767 41.806C37.963 41.5963 38.4146 41.4915 38.8662 41.4915H44.3374C46.7517 41.5089 47.9849 42.8368 48.0196 45.4751V53.5998C48.0023 54.5433 47.6375 55.347 46.9254 56.0284C46.2306 56.7448 45.3969 57.1117 44.4243 57.1292H39.2483V62.9824H35.4271V45.6324Z" fill="white"/>
<path d="M54.9498 52.3942C54.9498 52.6213 55.054 52.7961 55.2624 52.9358C55.4361 53.0931 55.6793 53.1804 55.9572 53.1804H58.8926C59.5526 53.1804 59.9 52.9184 59.9173 52.3942V51.2934C59.9173 50.6819 59.57 50.3849 58.8578 50.3849H55.9398C55.5577 50.3849 55.2972 50.4548 55.1409 50.5771C55.0019 50.7168 54.9324 50.9964 54.9324 51.4157V52.3942H54.9498ZM59.9347 46.2963C59.9521 45.7023 59.6047 45.4227 58.9099 45.4402H51.1981V41.4915H59.8826C62.4185 41.5264 63.7038 42.7669 63.7385 45.1956V53.4775C63.7211 54.5258 63.3911 55.382 62.7832 56.0809C62.1406 56.7972 61.3069 57.1467 60.2821 57.1467H55.0367C52.4834 57.1292 51.1807 55.9585 51.146 53.6173V50.4198C51.1634 47.9737 52.3966 46.7332 54.863 46.6982H59.9521V46.2963" fill="white"/>
<path d="M74.49 59.0337C74.7853 59.0162 75.0632 58.9114 75.2716 58.7017C75.48 58.5095 75.5843 58.2998 75.5843 58.0727V57.1292H70.6862C70.0436 57.1292 69.5399 57.0418 69.1577 56.8846C68.7582 56.7273 68.3588 56.4652 67.9419 56.0634C67.5598 55.644 67.2819 55.2072 67.1082 54.753C66.9345 54.3336 66.8477 53.8094 66.8477 53.163V41.4915H70.6862V51.9224C70.6862 52.7611 71.0336 53.1804 71.711 53.1804H74.4205C74.7505 53.1804 75.0285 53.0756 75.2542 52.8659C75.48 52.6737 75.5843 52.4641 75.5843 52.202V41.4915H79.3881V58.7366C79.3707 60.0121 79.0407 61.043 78.4154 61.8118C77.7728 62.5806 76.9043 62.9824 75.7927 62.9999H66.8477V59.0337H74.49Z" fill="white"/>
<path d="M82.3929 53.1804H89.219C89.8442 53.163 90.1742 52.9009 90.1916 52.4291V52.0797C90.1916 51.9749 90.1569 51.87 90.1048 51.7477C89.9484 51.4507 89.7574 51.2934 89.549 51.2934H86.1446C85.1372 51.276 84.2862 50.9265 83.5567 50.2451C82.8272 49.6161 82.4624 48.8648 82.4277 47.9562V45.0034C82.4624 42.697 83.713 41.5264 86.162 41.4915H94.0823V45.4577H87.3778C86.5962 45.4577 86.1967 45.7023 86.1967 46.1915V46.5759C86.1967 47.0826 86.5962 47.3272 87.4126 47.3272H90.7822C91.6853 47.3447 92.4496 47.6941 93.0922 48.3756C93.7349 49.057 94.0649 49.8607 94.0996 50.8042V53.6871C94.0823 54.4909 93.7001 55.3121 92.988 56.1158C92.6406 56.5177 92.2759 56.7797 91.9285 56.937C91.5638 57.0768 91.0601 57.1467 90.4174 57.1467H82.4103V53.1804" fill="white"/>
<path d="M100.648 52.3942C100.648 52.6213 100.752 52.7961 100.96 52.9358C101.134 53.0931 101.36 53.1804 101.655 53.1804H104.608C105.268 53.1804 105.615 52.9184 105.633 52.3942V51.2934C105.633 50.6819 105.285 50.3849 104.573 50.3849H101.655C101.273 50.3849 101.012 50.4548 100.856 50.5771C100.717 50.7168 100.648 50.9964 100.648 51.4157V52.3942ZM105.633 46.2963C105.65 45.7023 105.303 45.4227 104.59 45.4402H96.8787V41.4915H105.563C108.099 41.5264 109.384 42.7669 109.419 45.1956V53.4775C109.402 54.5258 109.072 55.382 108.464 56.0809C107.821 56.7972 106.987 57.1467 105.963 57.1467H100.7C98.1466 57.1292 96.8439 55.9585 96.8092 53.6173V50.4198C96.8266 47.9737 98.0598 46.7332 100.526 46.6982H105.633V46.2963Z" fill="white"/>
<path d="M112.545 39.2377C112.563 38.1719 112.962 37.3158 113.727 36.6693C114.473 36.0228 115.446 35.6734 116.662 35.6559H119.094V39.4823H117.617C116.801 39.4998 116.401 39.8842 116.384 40.653V41.4916H119.094V45.4579H116.384V57.1469H112.545V39.2377Z" fill="white"/>
<path d="M129.984 46.2265V46.1391C129.984 45.9294 129.897 45.7547 129.741 45.6324C129.567 45.5101 129.341 45.4402 129.081 45.4402H126.406C126.058 45.4402 125.78 45.545 125.572 45.7372C125.311 45.912 125.172 46.1566 125.172 46.4536V48.0436L129.984 46.2265ZM125.242 51.8351V52.0797C125.242 52.3942 125.329 52.6563 125.485 52.831C125.607 53.0581 125.763 53.1804 125.989 53.1804H133.857V57.1467H125.485C124.721 57.1467 124.13 57.0768 123.713 56.937C123.262 56.7797 122.845 56.5351 122.48 56.1857C122.063 55.7663 121.768 55.347 121.629 54.8927C121.473 54.4385 121.386 53.8269 121.386 53.0756L121.351 45.1432C121.386 42.7495 122.637 41.5264 125.086 41.4915H130.262C132.641 41.5264 133.857 42.8019 133.892 45.283V48.4105L125.242 51.8351Z" fill="white"/>
<path d="M142.003 57.1469C141.43 57.1469 140.891 57.0945 140.405 56.9897C139.901 56.9023 139.398 56.6752 138.894 56.2733C138.373 55.819 138.008 55.2948 137.8 54.7183C137.591 54.1591 137.487 53.5127 137.487 52.8138V45.423C137.47 44.8289 137.522 44.2873 137.661 43.833C137.782 43.3787 138.06 42.9244 138.477 42.4876C138.946 42.0333 139.415 41.7188 139.919 41.5616C140.405 41.4393 140.944 41.3694 141.551 41.3694H147.422V42.2954H141.69C140.683 42.2954 139.884 42.5051 139.293 42.9244C138.703 43.3787 138.39 44.165 138.39 45.2832V52.674C138.39 53.1982 138.477 53.7049 138.633 54.1941C138.79 54.6658 139.068 55.1026 139.45 55.4696C139.867 55.7841 140.284 55.9937 140.683 56.0636C141.1 56.151 141.551 56.2034 142.038 56.2034H147.509V57.1294H142.003" fill="white"/>
<path d="M162.533 47.5545H154.839C153.918 47.5719 153.189 47.869 152.668 48.4106C152.129 48.9697 151.869 49.7385 151.869 50.7169V53.0757C151.869 53.53 151.921 53.9493 152.008 54.3337C152.112 54.7356 152.338 55.085 152.72 55.3821C153.38 55.9412 154.127 56.2033 154.926 56.2033H159.615C161.561 56.1858 162.551 55.1549 162.551 53.0932V47.5545H162.533ZM163.454 52.8835C163.454 53.4776 163.402 54.0017 163.332 54.456C163.211 54.9627 162.95 55.4345 162.568 55.8888C161.769 56.7449 160.762 57.1642 159.581 57.1293H154.995C153.797 57.1293 152.841 56.7798 152.094 56.0635C151.33 55.3646 150.948 54.3861 150.948 53.1281V50.7519C150.983 48.0611 152.32 46.6808 154.943 46.6284H162.568V45.5801C162.568 44.7239 162.325 43.9726 161.821 43.3261C161.508 42.9068 161.144 42.6273 160.727 42.4875C160.31 42.3826 159.824 42.3128 159.303 42.3128H150.983V41.3867H158.868C159.598 41.3867 160.241 41.4391 160.831 41.544C161.126 41.5964 161.404 41.7187 161.665 41.8934C161.943 42.0507 162.186 42.2953 162.412 42.6098C163.124 43.5358 163.471 44.5842 163.454 45.7723V52.8835Z" fill="white"/>
<path d="M172.069 42.3128C169.933 42.3477 168.873 43.5183 168.925 45.8247V57.1293H168.005V45.8422C167.97 42.8719 169.359 41.3867 172.225 41.3867H173.25V42.3128H172.069Z" fill="white"/>
<path d="M187.579 42.3127H180.319C179.798 42.3127 179.329 42.3652 178.912 42.4875C178.478 42.5923 178.044 42.8544 177.644 43.2912C177.262 43.6931 177.019 44.0949 176.915 44.4793C176.776 44.8812 176.724 45.3529 176.741 45.912V53.1281C176.741 54.3337 177.089 55.1374 177.783 55.5742C178.131 55.7839 178.513 55.9237 178.93 56.0285C179.346 56.1334 179.833 56.2033 180.354 56.2033H183.532C184.713 56.2033 185.686 55.9237 186.433 55.3821C187.18 54.8579 187.562 53.9668 187.597 52.6913V42.3127H187.579ZM188.5 52.7612C188.413 55.749 186.85 57.2166 183.793 57.1468H180.389C179.676 57.1468 179.034 57.0769 178.461 56.9546C177.87 56.7973 177.314 56.4479 176.776 55.8888C176.376 55.3821 176.116 54.8754 176.012 54.3512C175.873 53.827 175.803 53.2504 175.838 52.6214V45.912C175.873 42.8893 177.401 41.3692 180.389 41.4042H187.597V36.2848H188.517V52.7612" fill="white"/>
<path d="M14.1502 40.8975C14.4455 40.7577 14.7581 40.6529 15.0534 40.6005C15.6092 37.9447 17.954 35.9528 20.7504 35.9528C23.5642 35.9528 25.8916 37.9447 26.4474 40.6005C27.3159 40.7577 28.028 41.1072 28.5664 41.6313C28.5838 41.1246 28.5664 40.6354 28.5143 40.1637C28.167 36.145 24.8147 33 20.733 33C16.5297 33 13.108 36.3547 12.9344 40.5306C12.917 40.8975 12.8996 41.2644 12.917 41.6663C13.2644 41.3692 13.6639 41.1072 14.1502 40.8975Z" fill="white"/>
<path d="M25.3009 41.4915H15.9391C15.4875 41.4915 15.0185 41.5963 14.5495 41.806C14.0806 42.0156 13.6985 42.2602 13.4032 42.5573C12.83 43.2562 12.5174 44.287 12.5 45.6324V52.9883C12.5174 54.3336 12.8126 55.3645 13.4032 56.0634C13.7158 56.3604 14.0806 56.605 14.5495 56.8147C15.0359 57.0244 15.5048 57.1292 15.9391 57.1292H25.3009C27.7152 57.1117 28.9484 55.7664 28.9832 53.128V45.4751C28.9484 42.8368 27.7152 41.5089 25.3009 41.4915Z" fill="white"/>
</svg>
