<svg width="201" height="95" viewBox="0 0 201 95" fill="none" xmlns="http://www.w3.org/2000/svg">
<path d="M126.69 37.6C129.389 37.6 131.611 35.4323 131.611 32.8C131.611 30.1677 129.389 28 126.69 28C123.992 28 121.77 30.1677 121.77 32.8C121.77 35.4323 123.992 37.6 126.69 37.6ZM88.9656 40.1806C88.754 40.7484 87.1667 45.1355 83.2513 49.6774V30.1677L72.9868 32.1806V67.5871H83.3042V56.6452C86.2672 61.0323 87.7487 67.5871 87.7487 67.5871H100.077C98.8598 62.6323 93.5159 53.4968 93.5159 53.4968C98.3307 47.5613 100.394 41.2645 100.765 40.1806H88.9656ZM116.056 39.8194C106.849 40.129 102.14 44.1548 102.14 52.1548V67.5355H112.193V55.0452C112.193 50.2452 112.828 48.1806 118.701 47.9742V39.9742C117.749 39.7677 116.056 39.8194 116.056 39.8194ZM55.6852 44.1032C54.4153 44 51.5053 43.8452 51.5053 41.2645C51.5053 38.1677 55.7381 38.1677 57.2725 38.1677C60.0238 38.1677 63.6217 38.9935 66.2143 39.7161C66.2143 39.7161 67.6429 40.2323 68.8598 40.6968L68.9656 40.7484V32.2839L68.8069 32.2323C65.791 31.2 62.246 30.2194 55.7381 30.2194C44.4683 30.1677 40.5 36.5677 40.5 42.0903C40.5 45.2387 41.8757 52.671 54.7857 53.5484C55.8968 53.6 58.754 53.7548 58.754 56.4387C58.754 58.6064 56.373 59.8968 52.4048 59.8968C48.0132 59.8968 43.7804 58.8129 41.1878 57.7806V66.5032C45.0503 67.4839 49.3889 68 54.5212 68C65.5265 68 70.4471 61.9613 70.4471 55.9226C70.4471 49.1097 64.9444 44.7226 55.6852 44.1032ZM121.717 67.5871H131.717V40.2323H121.717V67.5871ZM150.5 31.9226V67.5871H160.5V30.1677L150.5 31.9226ZM135.897 31.9226L145.897 30.1677V67.5355H135.897V31.9226Z" fill="white"/>
</svg>
