<svg width="201" height="95" viewBox="0 0 201 95" fill="none" xmlns="http://www.w3.org/2000/svg">
<path d="M102.478 40.4026C102.358 45.843 107.283 48.8654 111.006 50.6789C114.73 52.4923 116.051 53.7013 116.051 55.3939C116.051 57.9327 113.048 59.0208 110.286 59.1417C105.361 59.2626 102.598 57.8118 100.316 56.7237L98.5146 64.9447C100.797 66.0328 105.001 66.8791 109.325 67C119.534 67 126.141 61.9223 126.261 54.064C126.261 44.1504 112.568 43.5459 112.688 39.0728C112.688 37.7429 114.009 36.2921 116.772 35.9294C118.213 35.6876 121.937 35.5667 126.381 37.622L128.062 29.6428C125.78 28.7965 122.777 27.9502 118.934 27.9502C109.325 27.9502 102.598 33.0279 102.478 40.4026ZM144.398 28.5547C142.596 28.5547 140.914 29.6428 140.314 31.3353L125.78 66.2746H135.99L138.032 60.5924H150.523L151.725 66.2746H160.733L152.926 28.5547H144.398ZM145.839 38.831L148.722 52.9759H140.674L145.839 38.831ZM90.2267 28.5547L82.1792 66.2746H91.9084L99.9559 28.5547H90.2267ZM75.8132 28.5547L65.7237 54.1849L61.6399 32.3025C61.1594 29.8846 59.2376 28.4338 57.1957 28.4338H40.7402L40.5 29.5219C43.8632 30.2473 47.7068 31.4562 50.109 32.7861C51.5504 33.5115 51.9107 34.2369 52.3912 36.0503L60.0784 66.1537H70.288L86.0228 28.4338L75.8132 28.5547Z" fill="white"/>
</svg>
